# This file uses centimeters as units for non-parametric coordinates.

mtllib Tank_neck_unreal.mtl
g default
v 133.154663 -7.982201 -40.368889
v 113.268127 -7.982201 -76.786209
v 82.294106 -7.982201 -105.687164
v 43.264576 -7.982201 -124.242699
v 0.000017 -7.982201 -130.636505
v -43.264545 -7.982201 -124.242691
v -82.294060 -7.982201 -105.687141
v -113.268059 -7.982201 -76.786186
v -133.154572 -7.982201 -40.368874
v -140.007004 -7.982201 0.000023
v -133.154572 -7.982201 40.368919
v -113.268036 -7.982201 76.786224
v -82.294044 -7.982201 105.687157
v -43.264530 -7.982201 124.242699
v 0.000013 -7.982201 130.636505
v 43.264553 -7.982201 124.242691
v 82.294060 -7.982201 105.687149
v 113.268051 -7.982201 76.786217
v 133.154572 -7.982201 40.368912
v 140.007004 -7.982201 0.000023
v 133.154663 7.982201 -40.368889
v 113.268127 7.982201 -76.786209
v 82.294106 7.982201 -105.687164
v 43.264576 7.982201 -124.242699
v 0.000017 7.982201 -130.636505
v -43.264545 7.982201 -124.242691
v -82.294060 7.982201 -105.687141
v -113.268059 7.982201 -76.786186
v -133.154572 7.982201 -40.368874
v -140.007004 7.982201 0.000023
v -133.154572 7.982201 40.368919
v -113.268036 7.982201 76.786224
v -82.294044 7.982201 105.687157
v -43.264530 7.982201 124.242699
v 0.000013 7.982201 130.636505
v 43.264553 7.982201 124.242691
v 82.294060 7.982201 105.687149
v 113.268051 7.982201 76.786217
v 133.154572 7.982201 40.368912
v 140.007004 7.982201 0.000023
v 0.000017 -7.982201 0.000023
v 0.000017 7.982201 0.000023
vt 0.793630 0.479563
vt 0.841648 0.479563
vt 0.841648 0.988528
vt 0.793630 0.988528
vt 0.879749 0.479568
vt 0.879749 0.988524
vt 0.740408 0.479563
vt 0.740408 0.988528
vt 0.687187 0.479563
vt 0.687187 0.988528
vt 0.639168 0.479563
vt 0.639168 0.988529
vt 0.601068 0.479564
vt 0.601068 0.988527
vt 0.158007 0.479565
vt 0.206023 0.479565
vt 0.206022 0.988522
vt 0.158006 0.988521
vt 0.259247 0.479566
vt 0.259246 0.988522
vt 0.119904 0.479567
vt 0.119902 0.988518
vt 0.312472 0.479567
vt 0.312471 0.988523
vt 0.360486 0.479568
vt 0.360485 0.988524
vt 0.398591 0.479567
vt 0.398590 0.988525
vt 0.412183 0.095117
vt 0.444389 0.158329
vt 0.228739 0.228398
vt 0.455488 0.228398
vt 0.362020 0.044954
vt 0.444389 0.298467
vt 0.298808 0.012749
vt 0.412183 0.361677
vt 0.228739 0.001649
vt 0.362020 0.411841
vt 0.158670 0.012749
vt 0.298808 0.444047
vt 0.095460 0.044954
vt 0.228739 0.455145
vt 0.045296 0.095117
vt 0.158670 0.444047
vt 0.013090 0.158329
vt 0.095460 0.411841
vt 0.001992 0.228398
vt 0.045296 0.361677
vt 0.013090 0.298467
vt 0.904538 0.298467
vt 0.872332 0.361682
vt 0.688889 0.228402
vt 0.822169 0.411841
vt 0.915638 0.228402
vt 0.758958 0.444055
vt 0.904538 0.158336
vt 0.688889 0.455151
vt 0.872332 0.095121
vt 0.618819 0.444055
vt 0.822169 0.044962
vt 0.555610 0.411841
vt 0.758958 0.012749
vt 0.505445 0.361682
vt 0.688889 0.001653
vt 0.473239 0.298467
vt 0.618819 0.012749
vt 0.462141 0.228402
vt 0.555610 0.044962
vt 0.473239 0.158336
vt 0.505445 0.095121
vt 0.927756 0.479572
vt 0.927756 0.988520
vt 0.980984 0.479572
vt 0.018668 0.988514
vt 0.071897 0.479568
vt 0.071895 0.988515
vt 0.446603 0.479565
vt 0.446603 0.988527
vt 0.499828 0.479565
vt 0.499828 0.988527
vt 0.553052 0.479565
vt 0.553052 0.988527
vt 0.018669 0.479566
vt 0.980983 0.988520
vn 0.944380 0.000000 -0.328857
vn 0.789016 0.000000 -0.614373
vn 0.789016 0.000000 -0.614373
vn 0.944380 0.000000 -0.328857
vn 0.561130 0.000000 -0.827728
vn 0.561130 0.000000 -0.827728
vn 0.290132 0.000000 -0.956987
vn 0.290132 0.000000 -0.956987
vn -0.000000 0.000000 -1.000000
vn -0.000000 0.000000 -1.000000
vn -0.290133 0.000000 -0.956986
vn -0.290133 0.000000 -0.956986
vn -0.561130 0.000000 -0.827728
vn -0.561130 0.000000 -0.827728
vn -0.789016 0.000000 -0.614373
vn -0.789016 0.000000 -0.614373
vn -0.944380 0.000000 -0.328857
vn -0.944380 0.000000 -0.328857
vn -1.000000 0.000000 0.000000
vn -1.000000 0.000000 0.000000
vn -0.944379 0.000000 0.328858
vn -0.944379 0.000000 0.328858
vn -0.789016 0.000000 0.614373
vn -0.789016 0.000000 0.614373
vn -0.561130 0.000000 0.827728
vn -0.561130 0.000000 0.827728
vn -0.290133 0.000000 0.956986
vn -0.290133 0.000000 0.956986
vn 0.000000 0.000000 1.000000
vn 0.000000 0.000000 1.000000
vn 0.290133 0.000000 0.956986
vn 0.290133 0.000000 0.956986
vn 0.561130 0.000000 0.827728
vn 0.561130 0.000000 0.827728
vn 0.789016 0.000000 0.614373
vn 0.789016 0.000000 0.614373
vn 0.944380 0.000000 0.328858
vn 0.944380 0.000000 0.328858
vn 1.000000 0.000000 0.000001
vn 1.000000 0.000000 0.000001
vn 0.000000 -1.000000 0.000000
vn 0.000000 -1.000000 0.000000
vn 0.000000 -1.000000 -0.000000
vn 0.000000 -1.000000 0.000000
vn 0.000000 -1.000000 0.000000
vn 0.000000 -1.000000 0.000000
vn 0.000000 -1.000000 0.000000
vn 0.000000 -1.000000 0.000000
vn 0.000000 -1.000000 0.000000
vn 0.000000 -1.000000 0.000000
vn 0.000000 -1.000000 0.000000
vn 0.000000 -1.000000 0.000000
vn 0.000000 -1.000000 0.000000
vn 0.000000 -1.000000 0.000000
vn 0.000000 -1.000000 -0.000000
vn 0.000000 -1.000000 -0.000000
vn 0.000000 -1.000000 0.000000
vn 0.000000 -1.000000 0.000000
vn 0.000000 -1.000000 0.000000
vn 0.000000 -1.000000 0.000000
vn 0.000000 -1.000000 0.000000
vn 0.000000 1.000000 0.000000
vn 0.000000 1.000000 0.000000
vn 0.000000 1.000000 0.000000
vn 0.000000 1.000000 0.000000
vn 0.000000 1.000000 0.000000
vn 0.000000 1.000000 0.000000
vn 0.000000 1.000000 0.000000
vn 0.000000 1.000000 0.000000
vn 0.000000 1.000000 0.000000
vn 0.000000 1.000000 0.000000
vn 0.000000 1.000000 0.000000
vn 0.000000 1.000000 0.000000
vn 0.000000 1.000000 0.000000
vn 0.000000 1.000000 0.000000
vn 0.000000 1.000000 0.000000
vn 0.000000 1.000000 0.000000
vn 0.000000 1.000000 0.000000
vn 0.000000 1.000000 0.000000
vn 0.000000 1.000000 0.000000
vn 0.000000 1.000000 0.000000
vn 0.000000 1.000000 0.000000
s 1
g Tank_neck_unreal Unreal
usemtl lambert9SG
f 1/1/1 2/2/2 22/3/3 21/4/4
f 2/2/2 3/5/5 23/6/6 22/3/3
f 3/5/5 4/71/7 24/72/8 23/6/6
f 4/71/7 5/73/9 25/84/10 24/72/8
f 5/83/9 6/75/11 26/76/12 25/74/10
f 6/75/11 7/21/13 27/22/14 26/76/12
f 7/21/13 8/15/15 28/18/16 27/22/14
f 8/15/15 9/16/17 29/17/18 28/18/16
f 9/16/17 10/19/19 30/20/20 29/17/18
f 10/19/19 11/23/21 31/24/22 30/20/20
f 11/23/21 12/25/23 32/26/24 31/24/22
f 12/25/23 13/27/25 33/28/26 32/26/24
f 13/27/25 14/77/27 34/78/28 33/28/26
f 14/77/27 15/79/29 35/80/30 34/78/28
f 15/79/29 16/81/31 36/82/32 35/80/30
f 16/81/31 17/13/33 37/14/34 36/82/32
f 17/13/33 18/11/35 38/12/36 37/14/34
f 18/11/35 19/9/37 39/10/38 38/12/36
f 19/9/37 20/7/39 40/8/40 39/10/38
f 20/7/39 1/1/1 21/4/4 40/8/40
s 2
f 2/29/41 1/30/42 41/31/43
f 3/33/44 2/29/41 41/31/43
f 4/35/45 3/33/44 41/31/43
f 5/37/46 4/35/45 41/31/43
f 6/39/47 5/37/46 41/31/43
f 7/41/48 6/39/47 41/31/43
f 8/43/49 7/41/48 41/31/43
f 9/45/50 8/43/49 41/31/43
f 10/47/51 9/45/50 41/31/43
f 11/49/52 10/47/51 41/31/43
f 12/48/53 11/49/52 41/31/43
f 13/46/54 12/48/53 41/31/43
f 14/44/55 13/46/54 41/31/43
f 15/42/56 14/44/55 41/31/43
f 16/40/57 15/42/56 41/31/43
f 17/38/58 16/40/57 41/31/43
f 18/36/59 17/38/58 41/31/43
f 19/34/60 18/36/59 41/31/43
f 20/32/61 19/34/60 41/31/43
f 1/30/42 20/32/61 41/31/43
s 3
f 21/50/62 22/51/63 42/52/64
f 22/51/63 23/53/65 42/52/64
f 23/53/65 24/55/66 42/52/64
f 24/55/66 25/57/67 42/52/64
f 25/57/67 26/59/68 42/52/64
f 26/59/68 27/61/69 42/52/64
f 27/61/69 28/63/70 42/52/64
f 28/63/70 29/65/71 42/52/64
f 29/65/71 30/67/72 42/52/64
f 30/67/72 31/69/73 42/52/64
f 31/69/73 32/70/74 42/52/64
f 32/70/74 33/68/75 42/52/64
f 33/68/75 34/66/76 42/52/64
f 34/66/76 35/64/77 42/52/64
f 35/64/77 36/62/78 42/52/64
f 36/62/78 37/60/79 42/52/64
f 37/60/79 38/58/80 42/52/64
f 38/58/80 39/56/81 42/52/64
f 39/56/81 40/54/82 42/52/64
f 40/54/82 21/50/62 42/52/64
