# This file uses centimeters as units for non-parametric coordinates.

mtllib Tank_head_03_unreal.mtl
g default
v 129.688477 102.740875 -59.988342
v 110.486938 102.740875 -97.673302
v 80.580078 102.740875 -127.580254
v 42.895020 102.740875 -146.781677
v 1.120972 102.740875 -153.398041
v -40.653076 102.740875 -146.781677
v -78.338135 102.740875 -127.580231
v -108.244995 102.740875 -97.673286
v -127.446411 102.740875 -59.988327
v -134.062744 102.740875 -18.214241
v -127.446411 102.740875 23.559853
v -108.244995 102.740875 61.244804
v -78.338013 102.740875 91.151741
v -40.653076 102.740875 110.353149
v 1.120972 102.740875 116.969482
v 42.895020 102.740875 110.353149
v 80.579956 102.740875 91.151733
v 110.486938 102.740875 61.244797
v 129.688354 102.740875 23.559834
v 136.304688 102.740875 -18.214241
v 1.120972 102.740875 -18.214241
v 1.120972 122.257538 -18.214241
v 129.688477 108.771454 -59.988342
v 116.702637 122.257538 -55.768982
v 110.486938 108.771454 -97.673302
v 99.440430 122.257538 -89.647583
v 80.580078 108.771454 -127.580254
v 72.554321 122.257538 -116.533798
v 42.895020 108.771454 -146.781677
v 38.675659 122.257538 -133.795807
v 1.120972 108.771454 -153.398041
v 1.120972 122.257538 -139.743881
v -40.653076 108.771454 -146.781677
v -36.433716 122.257538 -133.795807
v -78.338135 108.771454 -127.580231
v -70.312378 122.257538 -116.533775
v -108.244995 108.771454 -97.673286
v -97.198486 122.257538 -89.647583
v -127.446411 108.771454 -59.988327
v -114.460571 122.257538 -55.768967
v -134.062744 108.771454 -18.214241
v -120.408569 122.257538 -18.214241
v -127.446411 108.771454 23.559853
v -114.460571 122.257538 19.340492
v -108.244995 108.771454 61.244804
v -97.198486 122.257538 53.219086
v -78.338013 108.771454 91.151741
v -70.312256 122.257538 80.105286
v -40.653076 108.771454 110.353149
v -36.433716 122.257538 97.367264
v 1.120972 108.771454 116.969482
v 1.120972 122.257538 103.315338
v 42.895020 108.771454 110.353149
v 38.675659 122.257538 97.367264
v 80.579956 108.771454 91.151733
v 72.554199 122.257538 80.105278
v 110.486938 108.771454 61.244797
v 99.440430 122.257538 53.219078
v 129.688354 108.771454 23.559834
v 116.702515 122.257538 19.340481
v 136.304688 108.771454 -18.214241
v 122.650513 122.257538 -18.214260
v -146.009155 -118.901123 202.862213
v -138.460205 -122.257538 203.505890
v -138.542969 -118.411499 211.066406
v -138.614746 -110.123535 212.276855
v -146.051758 -110.551697 208.877319
v -149.123535 -111.000793 200.647980
v 146.008911 -118.901123 202.862213
v 149.123657 -111.000793 200.647980
v 146.009644 -110.459869 208.833893
v 138.459961 -109.945068 212.213776
v 138.464600 -118.354828 211.046143
v 138.459961 -122.257538 203.505890
v -145.949951 99.720947 127.815887
v -149.123535 92.356476 129.547241
v -145.950684 93.172913 137.067322
v -138.217041 93.993225 140.150909
v -138.212524 100.447968 135.269867
v -138.217041 102.899658 127.557556
v 145.949707 99.720947 127.815887
v 138.216797 102.899658 127.557556
v 138.168945 100.428101 135.277008
v 138.128052 93.920807 140.176483
v 145.922607 93.134857 137.084015
v 149.123657 92.356476 129.547241
v -145.955200 92.079376 -170.551727
v -149.123535 92.081512 -162.902161
v -145.955200 99.731049 -162.902161
v -138.305542 102.899658 -162.902161
v -138.306396 99.731049 -170.551727
v -138.305542 92.081512 -173.720306
v 145.954956 92.079376 -170.551727
v 138.305542 92.081512 -173.720306
v 138.306152 99.731049 -170.551727
v 138.305542 102.899658 -162.902161
v 145.954956 99.731049 -162.902161
v 149.123657 92.081512 -162.902161
v -145.955200 -119.088989 -162.902161
v -149.123535 -111.439423 -162.902161
v -145.955200 -111.442108 -170.551727
v -138.305542 -111.439423 -173.720306
v -138.304565 -119.088989 -170.551727
v -138.305542 -122.257538 -162.902161
v 145.954956 -119.088989 -162.902161
v 138.305542 -122.257538 -162.902161
v 138.304565 -119.088989 -170.551727
v 138.305542 -111.439423 -173.720306
v 145.954956 -111.442108 -170.551727
v 149.123657 -111.439423 -162.902161
v -144.658569 -117.085083 209.211548
v 144.626953 -117.044037 209.191010
v -144.532715 98.833160 134.128906
v 144.512817 98.818024 134.136230
v -144.549438 98.324860 -169.145813
v 144.549194 98.324860 -169.145813
v -144.548950 -117.684357 -169.145782
v 144.548950 -117.684357 -169.145782
v 119.029175 72.805176 -212.276855
v 138.305542 92.081512 -193.000488
v -138.305542 92.081512 -193.000488
v -119.029175 72.805176 -212.276855
v 119.029175 -92.163086 -212.276855
v 138.305542 -111.439423 -193.000488
v -119.029175 -92.163086 -212.276855
v -138.305542 -111.439423 -193.000488
vt 0.638084 0.561502
vt 0.699740 0.530086
vt 0.768089 0.740438
vt 0.589153 0.610433
vt 0.557737 0.672089
vt 0.546912 0.740438
vt 0.557737 0.808786
vt 0.589153 0.870444
vt 0.638084 0.919375
vt 0.699740 0.950791
vt 0.768089 0.961618
vt 0.836437 0.950791
vt 0.898095 0.919375
vt 0.947026 0.870444
vt 0.978444 0.808786
vt 0.989269 0.740438
vt 0.978444 0.672089
vt 0.947026 0.610433
vt 0.898095 0.561502
vt 0.836437 0.530086
vt 0.768089 0.519261
vt 0.146487 0.295909
vt 0.515030 0.295909
vt 0.515030 0.351374
vt 0.146487 0.351374
vt 0.146487 0.245873
vt 0.515030 0.245873
vt 0.146487 0.205624
vt 0.515030 0.205624
vt 0.146487 0.152723
vt 0.515030 0.152723
vt 0.146487 0.097551
vt 0.515030 0.097615
vt 0.146487 0.045358
vt 0.515030 0.045358
vt 0.146487 0.001992
vt 0.515030 0.001992
vt 0.515030 0.998008
vt 0.146487 0.998008
vt 0.146487 0.958299
vt 0.515030 0.958299
vt 0.146487 0.908264
vt 0.515030 0.908264
vt 0.146486 0.852798
vt 0.515030 0.852798
vt 0.146486 0.797332
vt 0.515030 0.797332
vt 0.146486 0.747296
vt 0.515030 0.747296
vt 0.146487 0.707588
vt 0.515030 0.707588
vt 0.146487 0.657552
vt 0.515030 0.657551
vt 0.146487 0.602087
vt 0.515030 0.602086
vt 0.146487 0.546620
vt 0.515030 0.546620
vt 0.146487 0.496585
vt 0.515030 0.496585
vt 0.146487 0.456876
vt 0.515030 0.456876
vt 0.146487 0.406840
vt 0.515030 0.406840
vt 0.010768 0.295909
vt 0.010768 0.245873
vt 0.010768 0.205624
vt 0.010768 0.152723
vt 0.010768 0.097530
vt 0.010768 0.045358
vt 0.010768 0.001992
vt 0.010768 0.998008
vt 0.010768 0.958299
vt 0.010768 0.908264
vt 0.010768 0.852798
vt 0.010768 0.797332
vt 0.010768 0.747296
vt 0.010768 0.707588
vt 0.010768 0.657552
vt 0.010768 0.602087
vt 0.010768 0.546620
vt 0.010768 0.496585
vt 0.010768 0.456876
vt 0.010768 0.406840
vt 0.010768 0.351374
vt 0.979339 0.298266
vt 0.947570 0.360625
vt 0.766604 0.229147
vt 0.898082 0.410113
vt 0.835727 0.441886
vt 0.766604 0.452832
vt 0.697483 0.441886
vt 0.635126 0.410113
vt 0.585640 0.360625
vt 0.553867 0.298266
vt 0.542920 0.229147
vt 0.553867 0.160028
vt 0.585640 0.097668
vt 0.635126 0.048181
vt 0.697483 0.016408
vt 0.766604 0.005461
vt 0.835727 0.016408
vt 0.898082 0.048181
vt 0.947570 0.097668
vt 0.979339 0.160028
vt 0.990290 0.229147
vt 0.861985 0.598543
vt 0.858098 0.598237
vt 0.859087 0.425522
vt 0.862995 0.425557
vt 0.666565 0.469293
vt 0.656060 0.466426
vt 0.656061 0.016147
vt 0.666320 0.016108
vt 0.021225 0.473728
vt 0.007664 0.473713
vt 0.004956 0.023067
vt 0.018768 0.023063
vt 0.862062 0.601885
vt 0.992406 0.599183
vt 0.992392 0.603176
vt 0.655345 0.477118
vt 0.402843 0.388799
vt 0.404141 0.378722
vt 0.372294 0.471513
vt 0.372737 0.485114
vt 0.021006 0.484881
vt 0.686040 0.469129
vt 0.675662 0.471904
vt 0.675097 0.021721
vt 0.685283 0.021748
vt 0.996306 0.598923
vt 0.993520 0.426327
vt 0.997427 0.426341
vt 0.370861 0.008074
vt 0.370413 0.021780
vt 0.019661 0.009613
vt 0.935309 0.381350
vt 0.936512 0.391337
vt 0.688001 0.477791
vt 0.394202 0.376619
vt 0.393694 0.016472
vt 0.403951 0.016495
vt 0.446987 0.946697
vt 0.435241 0.946214
vt 0.435454 0.537396
vt 0.447107 0.537355
vt 0.435289 0.957531
vt 0.046195 0.957582
vt 0.046161 0.946175
vt 0.385466 0.471490
vt 0.383670 0.021617
vt 0.034395 0.946566
vt 0.034449 0.537278
vt 0.046100 0.537326
vt 0.945178 0.379268
vt 0.935611 0.021878
vt 0.945792 0.021859
vt 0.403896 0.006243
vt 0.656100 0.005887
vt 0.027487 0.983500
vt 0.027574 0.966895
vt 0.457035 0.966895
vt 0.457035 0.983500
vt 0.006297 0.966895
vt 0.006083 0.514201
vt 0.026758 0.514248
vt 0.435509 0.525744
vt 0.046050 0.525672
vt 0.026697 0.498361
vt 0.457035 0.498361
vt 0.457035 0.514284
vt 0.935674 0.011689
vt 0.685238 0.011562
vt 0.863003 0.421648
vt 0.993561 0.422419
vt 0.476491 0.966895
vt 0.476491 0.514220
vt 0.662675 0.475722
vt 0.858935 0.601398
vt 0.010684 0.483713
vt 0.995704 0.602370
vt 0.679379 0.479848
vt 0.007672 0.011412
vt 0.444461 0.954739
vt 0.394856 0.385215
vt 0.383910 0.482887
vt 0.944450 0.387907
vt 0.036333 0.956183
vt 0.382113 0.010140
vt 0.006307 0.983500
vt 0.395305 0.007668
vt 0.445273 0.527585
vt 0.944340 0.013292
vt 0.006186 0.498361
vt 0.036283 0.527510
vt 0.859735 0.422238
vt 0.664853 0.007379
vt 0.476491 0.983500
vt 0.676711 0.013100
vt 0.996853 0.423064
vt 0.476491 0.498361
vt 0.561181 0.573231
vt 0.561181 0.515824
vt 0.780791 0.515824
vt 0.780791 0.573231
vt 0.516530 0.573231
vt 0.561181 0.906229
vt 0.516530 0.906893
vt 0.561181 0.961409
vt 0.780791 0.906229
vt 0.780791 0.961410
vt 0.825392 0.573231
vt 0.825395 0.906893
vt 0.493567 0.906893
vt 0.493569 0.573231
vt 0.561181 0.489444
vt 0.780791 0.489450
vt 0.780791 0.985228
vt 0.561181 0.985229
vt 0.846655 0.573231
vt 0.846656 0.906893
vn 0.000000 -1.000000 -0.000000
vn 0.000000 -1.000000 -0.000000
vn 0.000000 -1.000000 -0.000000
vn 0.000000 -1.000000 0.000000
vn 0.000000 -1.000000 0.000000
vn 0.000000 -1.000000 0.000000
vn 0.000000 -1.000000 0.000000
vn 0.000000 -1.000000 0.000000
vn 0.000000 -1.000000 -0.000000
vn 0.000000 -1.000000 -0.000000
vn 0.000000 -1.000000 0.000000
vn 0.000000 -1.000000 0.000000
vn 0.000000 -1.000000 0.000000
vn 0.000000 -1.000000 -0.000000
vn 0.000000 -1.000000 0.000000
vn 0.000000 -1.000000 0.000000
vn 0.000000 -1.000000 0.000000
vn 0.000000 -1.000000 0.000000
vn 0.000000 -1.000000 0.000000
vn 0.000000 -1.000000 0.000000
vn 0.000000 -1.000000 0.000000
vn 0.668321 0.711472 -0.217150
vn 0.668321 0.711472 -0.217150
vn 0.702715 0.711472 0.000001
vn 0.702715 0.711472 0.000001
vn 0.568507 0.711473 -0.413045
vn 0.568507 0.711473 -0.413045
vn 0.413045 0.711473 -0.568507
vn 0.413045 0.711473 -0.568507
vn 0.217150 0.711472 -0.668321
vn 0.217150 0.711472 -0.668321
vn 0.000000 0.711472 -0.702715
vn 0.000000 0.711472 -0.702715
vn -0.217150 0.711472 -0.668321
vn -0.217150 0.711472 -0.668321
vn -0.413045 0.711473 -0.568507
vn -0.413045 0.711473 -0.568507
vn -0.568508 0.711473 -0.413044
vn -0.568508 0.711473 -0.413044
vn -0.668321 0.711472 -0.217150
vn -0.668321 0.711472 -0.217150
vn -0.702715 0.711472 0.000000
vn -0.702715 0.711472 0.000000
vn -0.668321 0.711472 0.217150
vn -0.668321 0.711472 0.217150
vn -0.568507 0.711473 0.413045
vn -0.568507 0.711473 0.413045
vn -0.413045 0.711473 0.568507
vn -0.413044 0.711473 0.568508
vn -0.217150 0.711472 0.668321
vn -0.217150 0.711472 0.668321
vn -0.000000 0.711472 0.702715
vn -0.000000 0.711472 0.702715
vn 0.217150 0.711472 0.668321
vn 0.217150 0.711472 0.668321
vn 0.413045 0.711473 0.568507
vn 0.413045 0.711473 0.568507
vn 0.568507 0.711473 0.413045
vn 0.568507 0.711473 0.413045
vn 0.668321 0.711472 0.217150
vn 0.668321 0.711472 0.217150
vn 0.951057 0.000000 -0.309016
vn 0.809017 0.000000 -0.587785
vn 0.809017 0.000000 -0.587785
vn 0.951057 0.000000 -0.309016
vn 0.587785 0.000000 -0.809017
vn 0.587785 0.000000 -0.809017
vn 0.309017 0.000000 -0.951057
vn 0.309017 0.000000 -0.951057
vn 0.000000 0.000000 -1.000000
vn 0.000000 0.000000 -1.000000
vn -0.309017 0.000000 -0.951057
vn -0.309017 0.000000 -0.951057
vn -0.587785 0.000000 -0.809017
vn -0.587785 0.000000 -0.809017
vn -0.809018 0.000000 -0.587784
vn -0.809018 0.000000 -0.587784
vn -0.951057 0.000000 -0.309016
vn -0.951057 0.000000 -0.309016
vn -1.000000 0.000000 0.000000
vn -1.000000 0.000000 0.000000
vn -0.951057 0.000000 0.309016
vn -0.951057 0.000000 0.309016
vn -0.809017 0.000000 0.587785
vn -0.809017 0.000000 0.587785
vn -0.587785 0.000000 0.809017
vn -0.587785 0.000000 0.809017
vn -0.309017 0.000000 0.951057
vn -0.309017 0.000000 0.951057
vn 0.000000 0.000000 1.000000
vn 0.000000 0.000000 1.000000
vn 0.309017 0.000000 0.951057
vn 0.309017 0.000000 0.951057
vn 0.587785 0.000000 0.809017
vn 0.587785 0.000000 0.809017
vn 0.809017 0.000000 0.587785
vn 0.809017 0.000000 0.587785
vn 0.951057 0.000000 0.309016
vn 0.951057 0.000000 0.309016
vn 1.000000 0.000000 0.000001
vn 1.000000 0.000000 0.000001
vn 0.000000 1.000000 0.000000
vn 0.000000 1.000000 0.000000
vn 0.000000 1.000000 0.000000
vn 0.000000 1.000000 0.000000
vn 0.000000 1.000000 0.000000
vn 0.000000 1.000000 0.000000
vn 0.000000 1.000000 0.000000
vn 0.000000 1.000000 0.000000
vn 0.000000 1.000000 0.000000
vn 0.000000 1.000000 0.000000
vn 0.000000 1.000000 0.000000
vn 0.000000 1.000000 0.000000
vn 0.000000 1.000000 0.000000
vn 0.000000 1.000000 0.000000
vn 0.000000 1.000000 0.000000
vn 0.000000 1.000000 0.000000
vn 0.000000 1.000000 0.000000
vn 0.000000 1.000000 -0.000000
vn 0.000000 1.000000 -0.000000
vn 0.000000 1.000000 0.000000
vn 0.000000 1.000000 0.000000
vn -0.010864 -0.999887 0.010352
vn -0.394436 -0.918904 0.005979
vn -0.393728 -0.919213 -0.005145
vn -0.011373 -0.999900 -0.008383
vn -0.928298 -0.371759 0.007610
vn -0.999739 -0.018702 0.013116
vn -0.999824 -0.016337 -0.009278
vn -0.927368 -0.374118 -0.004968
vn -0.010791 0.316818 0.948425
vn -0.007128 -0.140184 0.990100
vn 0.007670 -0.139994 0.990123
vn 0.010870 0.316762 0.948443
vn -0.007407 -0.890163 0.455583
vn 0.010870 -0.999888 0.010300
vn 0.007525 -0.890074 0.455755
vn -0.927741 0.111586 0.356154
vn -0.925230 0.131674 0.355825
vn -0.999905 0.012021 0.006694
vn -0.011517 0.343323 0.939147
vn -0.393759 0.312832 0.864344
vn -0.395322 0.296789 0.869273
vn 0.999738 -0.018688 0.013188
vn 0.928307 -0.371733 0.007775
vn 0.927353 -0.374154 -0.004968
vn 0.999824 -0.016339 -0.009279
vn 0.394435 -0.918903 0.006120
vn 0.011373 -0.999900 -0.008383
vn 0.393733 -0.919210 -0.005145
vn 0.390353 0.313203 0.865753
vn 0.011545 0.343345 0.939139
vn 0.391826 0.297087 0.870753
vn 0.999905 0.012041 0.006747
vn 0.923670 0.132843 0.359426
vn 0.926120 0.113053 0.359891
vn -0.920940 0.389679 0.004465
vn -0.921542 0.388217 -0.006851
vn -0.999867 0.013318 -0.009365
vn -0.380560 0.924742 0.005210
vn -0.011275 0.999903 0.008167
vn -0.011076 0.999883 -0.010533
vn -0.380716 0.924669 -0.006496
vn -0.007196 0.952926 0.303116
vn 0.007214 0.952904 0.303187
vn 0.011278 0.999903 0.008143
vn -0.007161 0.601655 0.798724
vn 0.007334 0.601592 0.798770
vn 0.380552 0.924744 0.005287
vn 0.380721 0.924667 -0.006496
vn 0.011076 0.999883 -0.010533
vn 0.920921 0.389723 0.004538
vn 0.999867 0.013320 -0.009366
vn 0.921527 0.388255 -0.006852
vn -0.924279 0.009348 -0.381602
vn -0.924281 -0.009356 -0.381599
vn -0.381623 0.009348 -0.924271
vn -0.170339 0.230095 -0.958145
vn -0.170386 -0.230046 -0.958148
vn -0.381618 -0.009357 -0.924273
vn -0.006933 0.381904 -0.924176
vn 0.006933 0.381904 -0.924176
vn 0.170343 0.230096 -0.958144
vn -0.006932 0.924175 -0.381906
vn 0.006932 0.924175 -0.381907
vn 0.381633 0.009349 -0.924267
vn 0.381628 -0.009357 -0.924269
vn 0.170388 -0.230049 -0.958147
vn 0.924264 0.009349 -0.381640
vn 0.924265 -0.009356 -0.381636
vn -0.006927 -0.924178 -0.381899
vn 0.006927 -0.924178 -0.381899
vn -0.006928 -0.381904 -0.924176
vn 0.006928 -0.381904 -0.924176
vn -0.920301 -0.231755 0.315177
vn -0.361283 -0.851686 0.379613
vn -0.365220 -0.090871 0.926476
vn 0.359577 -0.848568 0.388119
vn 0.918765 -0.228065 0.322270
vn 0.359650 -0.083293 0.929362
vn -0.326609 0.911461 0.250131
vn -0.865531 0.408848 0.289309
vn -0.326750 0.539309 0.776132
vn 0.864357 0.408723 0.292972
vn 0.325753 0.910871 0.253377
vn 0.324173 0.537511 0.778456
vn -0.325332 0.325213 -0.887917
vn -0.887929 0.325211 -0.325300
vn -0.325300 0.887908 -0.325269
vn 0.887913 0.325233 -0.325321
vn 0.325337 0.325218 -0.887913
vn 0.325305 0.887904 -0.325273
vn -0.325181 -0.887967 -0.325226
vn -0.887932 -0.325307 -0.325195
vn -0.325173 -0.325332 -0.887931
vn 0.887927 -0.325316 -0.325201
vn 0.325187 -0.887966 -0.325222
vn 0.325178 -0.325327 -0.887931
vn 0.707107 0.000000 -0.707107
vn 0.707107 0.000000 -0.707107
vn 0.707107 0.000000 -0.707107
vn 0.707107 0.000000 -0.707107
vn 0.000000 0.707107 -0.707106
vn 0.000000 0.707107 -0.707106
vn 0.000000 0.707107 -0.707106
vn 0.000000 0.707107 -0.707106
vn -0.707107 0.000000 -0.707106
vn -0.707107 0.000000 -0.707106
vn -0.707107 0.000000 -0.707106
vn -0.707107 0.000000 -0.707106
vn 0.000000 -0.707107 -0.707106
vn 0.000000 -0.707107 -0.707106
vn 0.000000 -0.707107 -0.707106
vn 0.000000 -0.707107 -0.707106
vn 0.000000 0.000000 -1.000000
vn 0.000000 0.000000 -1.000000
vn 0.000000 0.000000 -1.000000
vn 0.000000 0.000000 -1.000000
vn 0.000000 1.000000 0.000000
vn 0.000000 1.000000 0.000000
vn 0.000000 1.000000 0.000000
vn 0.000000 1.000000 0.000000
vn 1.000000 0.000000 0.000000
vn 1.000000 0.000000 0.000000
vn 1.000000 0.000000 0.000000
vn 1.000000 0.000000 0.000000
vn -1.000000 0.000000 0.000000
vn -1.000000 0.000000 0.000000
vn -1.000000 0.000000 0.000000
vn -1.000000 0.000000 0.000000
vn 0.000000 -1.000000 0.000000
vn 0.000000 -1.000000 0.000000
vn 0.000000 -1.000000 0.000000
vn 0.000000 -1.000000 0.000000
s 1
g Tank_head_03_unreal Unreal
usemtl lambert27SG
f 2/1/1 1/2/2 21/3/3
f 3/4/4 2/1/1 21/3/3
f 4/5/5 3/4/4 21/3/3
f 5/6/6 4/5/5 21/3/3
f 6/7/7 5/6/6 21/3/3
f 7/8/8 6/7/7 21/3/3
f 8/9/9 7/8/8 21/3/3
f 9/10/10 8/9/9 21/3/3
f 10/11/11 9/10/10 21/3/3
f 11/12/12 10/11/11 21/3/3
f 12/13/13 11/12/12 21/3/3
f 13/14/14 12/13/13 21/3/3
f 14/15/15 13/14/14 21/3/3
f 15/16/16 14/15/15 21/3/3
f 16/17/17 15/16/16 21/3/3
f 17/18/18 16/17/17 21/3/3
f 18/19/19 17/18/18 21/3/3
f 19/20/20 18/19/19 21/3/3
f 20/21/21 19/20/20 21/3/3
f 1/2/2 20/21/21 21/3/3
s 2
f 23/22/22 24/23/23 62/24/24 61/25/25
f 24/23/23 23/22/22 25/26/26 26/27/27
f 26/27/27 25/26/26 27/28/28 28/29/29
f 28/29/29 27/28/28 29/30/30 30/31/31
f 30/31/31 29/30/30 31/32/32 32/33/33
f 32/33/33 31/32/32 33/34/34 34/35/35
f 34/35/35 33/34/34 35/36/36 36/37/37
f 36/38/37 35/39/36 37/40/38 38/41/39
f 38/41/39 37/40/38 39/42/40 40/43/41
f 40/43/41 39/42/40 41/44/42 42/45/43
f 42/45/43 41/44/42 43/46/44 44/47/45
f 44/47/45 43/46/44 45/48/46 46/49/47
f 46/49/47 45/48/46 47/50/48 48/51/49
f 48/51/49 47/50/48 49/52/50 50/53/51
f 50/53/51 49/52/50 51/54/52 52/55/53
f 52/55/53 51/54/52 53/56/54 54/57/55
f 54/57/55 53/56/54 55/58/56 56/59/57
f 56/59/57 55/58/56 57/60/58 58/61/59
f 58/61/59 57/60/58 59/62/60 60/63/61
f 60/63/61 59/62/60 61/25/25 62/24/24
s 3
f 1/64/62 2/65/63 25/26/64 23/22/65
f 2/65/63 3/66/66 27/28/67 25/26/64
f 3/66/66 4/67/68 29/30/69 27/28/67
f 4/67/68 5/68/70 31/32/71 29/30/69
f 5/68/70 6/69/72 33/34/73 31/32/71
f 6/69/72 7/70/74 35/36/75 33/34/73
f 7/71/74 8/72/76 37/40/77 35/39/75
f 8/72/76 9/73/78 39/42/79 37/40/77
f 9/73/78 10/74/80 41/44/81 39/42/79
f 10/74/80 11/75/82 43/46/83 41/44/81
f 11/75/82 12/76/84 45/48/85 43/46/83
f 12/76/84 13/77/86 47/50/87 45/48/85
f 13/77/86 14/78/88 49/52/89 47/50/87
f 14/78/88 15/79/90 51/54/91 49/52/89
f 15/79/90 16/80/92 53/56/93 51/54/91
f 16/80/92 17/81/94 55/58/95 53/56/93
f 17/81/94 18/82/96 57/60/97 55/58/95
f 18/82/96 19/83/98 59/62/99 57/60/97
f 19/83/98 20/84/100 61/25/101 59/62/99
f 20/84/100 1/64/62 23/22/65 61/25/101
s 4
f 24/85/102 26/86/103 22/87/104
f 26/86/103 28/88/105 22/87/104
f 28/88/105 30/89/106 22/87/104
f 30/89/106 32/90/107 22/87/104
f 32/90/107 34/91/108 22/87/104
f 34/91/108 36/92/109 22/87/104
f 36/92/109 38/93/110 22/87/104
f 38/93/110 40/94/111 22/87/104
f 40/94/111 42/95/112 22/87/104
f 42/95/112 44/96/113 22/87/104
f 44/96/113 46/97/114 22/87/104
f 46/97/114 48/98/115 22/87/104
f 48/98/115 50/99/116 22/87/104
f 50/99/116 52/100/117 22/87/104
f 52/100/117 54/101/118 22/87/104
f 54/101/118 56/102/119 22/87/104
f 56/102/119 58/103/120 22/87/104
f 58/103/120 60/104/121 22/87/104
f 60/104/121 62/105/122 22/87/104
f 62/105/122 24/85/102 22/87/104
s 5
f 64/106/123 63/107/124 99/108/125 104/109/126
s 6
f 63/110/127 68/111/128 100/112/129 99/113/130
s 7
f 66/114/131 65/115/132 73/116/133 72/117/134
s 5
f 65/118/135 64/106/123 74/119/136 73/120/137
s 6
f 67/121/138 77/122/139 76/123/140 68/111/128
s 7
f 78/124/141 77/125/142 67/126/143 66/114/131
s 10
f 70/127/144 69/128/145 105/129/146 110/130/147
s 5
f 69/131/148 74/119/136 106/132/149 105/133/150
s 7
f 85/134/151 84/135/152 72/117/134 71/136/153
s 10
f 86/137/154 85/138/155 71/139/156 70/127/144
s 6
f 76/123/140 75/140/157 89/141/158 88/142/159
s 13
f 75/143/160 80/144/161 90/145/162 89/146/163
f 80/144/161 79/147/164 83/148/165 82/149/166
s 7
f 79/150/167 78/124/141 84/135/152 83/151/168
s 13
f 82/149/166 81/152/169 97/153/170 96/154/171
s 10
f 81/155/172 86/137/154 98/156/173 97/157/174
s 6
f 88/142/159 87/158/175 101/159/176 100/112/129
s 14
f 87/160/177 92/161/178 102/162/179 101/163/180
f 92/161/178 91/164/181 95/165/182 94/166/183
s 13
f 91/167/184 90/145/162 96/154/171 95/168/185
s 14
f 94/166/183 93/169/186 109/170/187 108/171/188
s 10
f 93/172/189 98/156/173 110/130/147 109/173/190
s 5
f 104/109/126 103/174/191 107/175/192 106/132/149
s 14
f 103/176/193 102/162/179 108/171/188 107/177/194
s 7
f 84/135/152 78/124/141 66/114/131 72/117/134
s 13
f 80/144/161 82/149/166 96/154/171 90/145/162
s 5
f 104/109/126 106/132/149 74/119/136 64/106/123
s 10
f 98/156/173 86/137/154 70/127/144 110/130/147
s 6
f 76/123/140 88/142/159 100/112/129 68/111/128
f 67/121/138 68/111/128 63/110/127 111/178/195
s 5
f 63/107/124 64/106/123 65/118/135 111/179/196
s 7
f 65/115/132 66/114/131 67/126/143 111/180/197
s 5
f 73/120/137 74/119/136 69/131/148 112/181/198
s 10
f 69/128/145 70/127/144 71/139/156 112/182/199
s 7
f 71/136/153 72/117/134 73/116/133 112/183/200
s 13
f 79/147/164 80/144/161 75/143/160 113/184/201
s 6
f 75/140/157 76/123/140 77/122/139 113/185/202
s 7
f 77/125/142 78/124/141 79/150/167 113/186/203
s 10
f 85/138/155 86/137/154 81/155/172 114/187/204
s 13
f 81/152/169 82/149/166 83/148/165 114/188/205
s 7
f 83/151/168 84/135/152 85/134/151 114/189/206
s 14
f 91/164/181 92/161/178 87/160/177 115/190/207
s 6
f 87/158/175 88/142/159 89/141/158 115/191/208
s 13
f 89/146/163 90/145/162 91/167/184 115/192/209
s 10
f 97/157/174 98/156/173 93/172/189 116/193/210
s 14
f 93/169/186 94/166/183 95/165/182 116/194/211
s 13
f 95/168/185 96/154/171 97/153/170 116/195/212
s 5
f 103/174/191 104/109/126 99/108/125 117/196/213
s 6
f 99/113/130 100/112/129 101/159/176 117/197/214
s 14
f 101/163/180 102/162/179 103/176/193 117/198/215
s 10
f 109/173/190 110/130/147 105/129/146 118/199/216
s 5
f 105/133/150 106/132/149 107/175/192 118/200/217
s 14
f 107/177/194 108/171/188 109/170/187 118/201/218
s off
f 119/202/219 120/203/220 124/204/221 123/205/222
f 120/206/223 119/202/224 122/207/225 121/208/226
f 121/209/227 122/207/228 125/210/229 126/211/230
f 123/205/231 124/212/232 126/213/233 125/210/234
f 125/210/235 122/207/236 119/202/237 123/205/238
f 92/214/239 94/215/240 120/206/241 121/208/242
f 124/204/243 120/203/244 94/216/245 108/217/246
f 102/218/247 92/219/248 121/209/249 126/211/250
f 108/220/251 102/221/252 126/213/253 124/212/254
