<?xml version="1.0" encoding="UTF-8" standalone="no" ?>
<!DOCTYPE sesx>
<sesx version="1.9">

  <session appBuild="13.0.13.46" appVersion="13.0" audioChannelType="stereo" bitDepth="16" duration="4365698" sampleRate="48000">
    <tracks>
      <audioTrack automationLaneOpenState="false" id="10001" index="1" select="false" visible="true">
        <trackParameters trackHeight="134" trackHue="160" trackMinimized="false">
          <name>Track 1</name>
        </trackParameters>
        <trackAudioParameters audioChannelType="stereo" automationMode="1" monitoring="false" recordArmed="false" solo="false" soloSafe="false">
          <trackOutput outputID="10000" type="trackID"/>
          <trackInput inputID="1"/>
          <component componentGuid="82c03c50-dc30-405a-b7c8-2aecf1b5a9e7" componentID="Audition.Fader" id="trackFader" name="volume" powered="true">
            <parameter index="0" name="volume" parameterValue="1"/>
            <parameter index="1" name="static gain" parameterValue="1"/>
          </component>
          <component componentGuid="b52f21e1-8d00-4a66-b7e4-046169fcff91" componentID="Audition.Mute" id="trackMute" name="Mute" powered="true">
            <parameter index="0" parameterValue="0"/>
            <parameter index="1" name="mute" parameterValue="0"/>
          </component>
          <component componentGuid="8c768449-ced2-471e-ae56-a2ff16b3c181" componentID="Audition.StereoPanner" id="trackPan" name="StereoPanner" powered="true">
            <parameter index="0" name="Pan" parameterValue="0"/>
          </component>
          <component componentGuid="ae2b27bb-16d1-4e47-95ed-2b42c6429b65" componentID="Audition.EQ" id="trackEQ" name="EQ" powered="false">
            <parameter index="0" name="Low Shelf Frequency" parameterValue="0.000834028352983295917510986328125"/>
            <parameter index="1" name="Low Shelf Gain" parameterValue="0.5"/>
            <parameter index="2" name="High Shelf Frequency" parameterValue="0.74979150295257568359375"/>
            <parameter index="3" name="High Shelf Gain" parameterValue="0.5"/>
            <parameter index="4" name="EQ Band 1 Center Frequency" parameterValue="0.00125104258768260478973388671875"/>
            <parameter index="5" name="EQ Band 1 Q" parameterValue="0.000199989997781813144683837890625"/>
            <parameter index="6" name="EQ Band 1 Gain" parameterValue="0.5"/>
            <parameter index="7" name="EQ Band 1 Enable" parameterValue="1"/>
            <parameter index="8" name="EQ Band 2 Center Frequency" parameterValue="0.0075062550604343414306640625"/>
            <parameter index="9" name="EQ Band 2 Q" parameterValue="0.000199989997781813144683837890625"/>
            <parameter index="10" name="EQ Band 2 Gain" parameterValue="0.5"/>
            <parameter index="11" name="EQ Band 2 Enable" parameterValue="1"/>
            <parameter index="12" name="EQ Band 3 Center Frequency" parameterValue="0.0325271077454090118408203125"/>
            <parameter index="13" name="EQ Band 3 Q" parameterValue="0.000199989997781813144683837890625"/>
            <parameter index="14" name="EQ Band 3 Gain" parameterValue="0.5"/>
            <parameter index="15" name="EQ Band 3 Enable" parameterValue="1"/>
            <parameter index="16" name="EQ Band 4 Center Frequency" parameterValue="0.13261051476001739501953125"/>
            <parameter index="17" name="EQ Band 4 Q" parameterValue="0.000199989997781813144683837890625"/>
            <parameter index="18" name="EQ Band 4 Gain" parameterValue="0.5"/>
            <parameter index="19" name="EQ Band 4 Enable" parameterValue="1"/>
            <parameter index="20" name="EQ Band 5 Center Frequency" parameterValue="0.532944142818450927734375"/>
            <parameter index="21" name="EQ Band 5 Q" parameterValue="0.000199989997781813144683837890625"/>
            <parameter index="22" name="EQ Band 5 Gain" parameterValue="0.5"/>
            <parameter index="23" name="EQ Band 5 Enable" parameterValue="1"/>
            <parameter index="24" name="Master Gain" parameterValue="0.666666686534881591796875"/>
            <parameter index="25" name="ConstantQ" parameterValue="1"/>
            <parameter index="26" name="Low Shelf Filter Order" parameterValue="0"/>
            <parameter index="27" name="High Shelf Filter Order" parameterValue="0"/>
            <parameter index="28" name="Ultra-Quiet Mode" parameterValue="0"/>
            <parameter index="29" name="Low Shelf Enable" parameterValue="1"/>
            <parameter index="30" name="High Shelf Enable" parameterValue="1"/>
            <parameter index="31" name="Original Sample Rate" parameterValue="0.25"/>
            <parameter index="32" name="EQ Band 1 Bandwidth" parameterValue="0.002499990165233612060546875"/>
            <parameter index="33" name="EQ Band 2 Bandwidth" parameterValue="0.0099999904632568359375"/>
            <parameter index="34" name="EQ Band 3 Bandwidth" parameterValue="0.0399999916553497314453125"/>
            <parameter index="35" name="EQ Band 4 Bandwidth" parameterValue="0.15999998152256011962890625"/>
            <parameter index="36" name="EQ Band 5 Bandwidth" parameterValue="0.63999998569488525390625"/>
            <parameter index="37" name="High-Pass Filter Enable" parameterValue="0"/>
            <parameter index="38" name="High-Pass Cutoff Frequency" parameterValue="0"/>
            <parameter index="39" name="High-Pass Slope" parameterValue="0.4000000059604644775390625"/>
            <parameter index="40" name="Low-Pass Filter Enable" parameterValue="0"/>
            <parameter index="41" name="Low-Pass Cutoff Frequency" parameterValue="0.833194315433502197265625"/>
            <parameter index="42" name="Low-Pass Slope" parameterValue="0.4000000059604644775390625"/>
            <parameter index="43" name="Bypass" parameterValue="0"/>
            <parameter index="44" name="LowGraphRange" parameterValue="1"/>
          </component>
        </trackAudioParameters>
        <editParameter parameterIndex="0" slotIndex="4294967280"/>
        <audioClip clipAutoCrossfade="true" crossFadeHeadClipID="-1" crossFadeTailClipID="-1" endPoint="1586369" fileID="0" hue="-1" id="0" lockedInTime="false" looped="false" name="SL_Kit_01_Breakdown_Arp_G_128 48000 1" offline="false" select="true" sourceInPoint="0" sourceOutPoint="720000" startPoint="866369" zOrder="98">
          <component componentGuid="826e0879-4ee7-468e-a98a-cae02637da1e" componentID="Audition.Fader" id="clipGain" name="volume" powered="true">
            <parameter index="0" name="volume" parameterValue="1"/>
            <parameter index="1" name="static gain" parameterValue="1"/>
          </component>
          <component componentGuid="b06f856b-5c5a-4712-9d2e-5474313b93f1" componentID="Audition.Mute" id="clipMute" name="Mute" powered="true">
            <parameter index="0" parameterValue="0"/>
            <parameter index="1" name="mute" parameterValue="0"/>
          </component>
          <component componentGuid="985a72b7-f7ea-46a2-bae8-08af4da8d270" componentID="Audition.StereoPanner" id="clipPan" name="StereoPanner" powered="true">
            <parameter index="0" name="Pan" parameterValue="0"/>
          </component>
          <fadeIn crossFadeLinkType="linkedAsymmetric" endPoint="379032" shape="-100" startPoint="0" type="log"/>
          <fadeOut crossFadeLinkType="linkedAsymmetric" endPoint="720000" shape="0" startPoint="720000" type="cosine"/>
          <editParameter parameterIndex="0" slotIndex="4294967280"/>
          <editParameter parameterIndex="0" slotIndex="4294967281"/>
          <channelMap>
            <channel index="0" sourceIndex="0"/>
            <channel index="1" sourceIndex="1"/>
          </channelMap>
        </audioClip>
        <audioClip clipAutoCrossfade="true" crossFadeHeadClipID="-1" crossFadeTailClipID="-1" endPoint="3025154" fileID="2" hue="-1" id="1" lockedInTime="false" looped="false" name="SL_Kit_01_Breakdown_SubLead_G_128 48000 1" offline="false" select="true" sourceInPoint="0" sourceOutPoint="720000" startPoint="2305154" zOrder="99">
          <component componentGuid="a5e4fd18-56ee-4930-8831-5ce727b8dfbc" componentID="Audition.Fader" id="clipGain" name="volume" powered="true">
            <parameter index="0" name="volume" parameterValue="1"/>
            <parameter index="1" name="static gain" parameterValue="1"/>
          </component>
          <component componentGuid="f69c31c0-a1ca-459d-889e-45f658d0a7eb" componentID="Audition.Mute" id="clipMute" name="Mute" powered="true">
            <parameter index="0" parameterValue="0"/>
            <parameter index="1" name="mute" parameterValue="0"/>
          </component>
          <component componentGuid="00d2c04d-d988-48d2-9e72-927485d8b511" componentID="Audition.StereoPanner" id="clipPan" name="StereoPanner" powered="true">
            <parameter index="0" name="Pan" parameterValue="0"/>
          </component>
          <fadeIn crossFadeLinkType="linkedAsymmetric" endPoint="0" shape="18" startPoint="0" type="log"/>
          <fadeOut crossFadeLinkType="linkedAsymmetric" endPoint="720000" shape="19" startPoint="720000" type="log"/>
          <editParameter parameterIndex="0" slotIndex="4294967280"/>
          <editParameter parameterIndex="0" slotIndex="4294967281"/>
          <channelMap>
            <channel index="0" sourceIndex="0"/>
            <channel index="1" sourceIndex="1"/>
          </channelMap>
        </audioClip>
        <audioClip clipAutoCrossfade="true" crossFadeHeadClipID="-1" crossFadeTailClipID="-1" endPoint="3070852" fileID="1" hue="-1" id="2" lockedInTime="false" looped="false" name="SL_Kit_01_Breakdown_SubLead_SC_G_128 48000 1" offline="false" select="true" sourceInPoint="0" sourceOutPoint="45698" startPoint="3025154" zOrder="100">
          <component componentGuid="5042de93-de72-4a31-abd9-c93d77c475ba" componentID="Audition.Fader" id="clipGain" name="volume" powered="true">
            <parameter index="0" name="volume" parameterValue="1"/>
            <parameter index="1" name="static gain" parameterValue="1"/>
          </component>
          <component componentGuid="64d52fca-d3c9-42d2-86df-ef7cd3e1cd8b" componentID="Audition.Mute" id="clipMute" name="Mute" powered="true">
            <parameter index="0" parameterValue="0"/>
            <parameter index="1" name="mute" parameterValue="0"/>
          </component>
          <component componentGuid="0c4c9fdd-aa73-408b-8cb7-830d3737847d" componentID="Audition.StereoPanner" id="clipPan" name="StereoPanner" powered="true">
            <parameter index="0" name="Pan" parameterValue="0"/>
          </component>
          <fadeIn crossFadeLinkType="linkedAsymmetric" endPoint="0" shape="0" startPoint="0" type="cosine"/>
          <fadeOut crossFadeLinkType="linkedAsymmetric" endPoint="45698" shape="0" startPoint="45698" type="cosine"/>
          <editParameter parameterIndex="0" slotIndex="4294967280"/>
          <editParameter parameterIndex="0" slotIndex="4294967281"/>
          <channelMap>
            <channel index="0" sourceIndex="0"/>
            <channel index="1" sourceIndex="1"/>
          </channelMap>
        </audioClip>
      </audioTrack>
      <audioTrack automationLaneOpenState="false" id="10002" index="2" select="false" visible="true">
        <trackParameters trackHeight="134" trackHue="267" trackMinimized="false">
          <name>Track 2</name>
        </trackParameters>
        <trackAudioParameters audioChannelType="stereo" automationMode="1" monitoring="false" recordArmed="false" solo="false" soloSafe="false">
          <trackOutput outputID="10000" type="trackID"/>
          <trackInput inputID="1"/>
          <component componentGuid="f88a4840-c8d2-4377-b2aa-5dfb3238d608" componentID="Audition.Fader" id="trackFader" name="volume" powered="true">
            <parameter index="0" name="volume" parameterValue="1"/>
            <parameter index="1" name="static gain" parameterValue="1"/>
          </component>
          <component componentGuid="1a28812c-305d-42e2-abb7-4461485da5f0" componentID="Audition.Mute" id="trackMute" name="Mute" powered="true">
            <parameter index="0" parameterValue="0"/>
            <parameter index="1" name="mute" parameterValue="0"/>
          </component>
          <component componentGuid="a857b507-f551-48a1-9bbd-e77cde97288f" componentID="Audition.StereoPanner" id="trackPan" name="StereoPanner" powered="true">
            <parameter index="0" name="Pan" parameterValue="0"/>
          </component>
          <component componentGuid="a7042014-1fb0-49f4-a4c0-38557d306944" componentID="Audition.EQ" id="trackEQ" name="EQ" powered="false">
            <parameter index="0" name="Low Shelf Frequency" parameterValue="0.000834028352983295917510986328125"/>
            <parameter index="1" name="Low Shelf Gain" parameterValue="0.5"/>
            <parameter index="2" name="High Shelf Frequency" parameterValue="0.74979150295257568359375"/>
            <parameter index="3" name="High Shelf Gain" parameterValue="0.5"/>
            <parameter index="4" name="EQ Band 1 Center Frequency" parameterValue="0.00125104258768260478973388671875"/>
            <parameter index="5" name="EQ Band 1 Q" parameterValue="0.000199989997781813144683837890625"/>
            <parameter index="6" name="EQ Band 1 Gain" parameterValue="0.5"/>
            <parameter index="7" name="EQ Band 1 Enable" parameterValue="1"/>
            <parameter index="8" name="EQ Band 2 Center Frequency" parameterValue="0.0075062550604343414306640625"/>
            <parameter index="9" name="EQ Band 2 Q" parameterValue="0.000199989997781813144683837890625"/>
            <parameter index="10" name="EQ Band 2 Gain" parameterValue="0.5"/>
            <parameter index="11" name="EQ Band 2 Enable" parameterValue="1"/>
            <parameter index="12" name="EQ Band 3 Center Frequency" parameterValue="0.0325271077454090118408203125"/>
            <parameter index="13" name="EQ Band 3 Q" parameterValue="0.000199989997781813144683837890625"/>
            <parameter index="14" name="EQ Band 3 Gain" parameterValue="0.5"/>
            <parameter index="15" name="EQ Band 3 Enable" parameterValue="1"/>
            <parameter index="16" name="EQ Band 4 Center Frequency" parameterValue="0.13261051476001739501953125"/>
            <parameter index="17" name="EQ Band 4 Q" parameterValue="0.000199989997781813144683837890625"/>
            <parameter index="18" name="EQ Band 4 Gain" parameterValue="0.5"/>
            <parameter index="19" name="EQ Band 4 Enable" parameterValue="1"/>
            <parameter index="20" name="EQ Band 5 Center Frequency" parameterValue="0.532944142818450927734375"/>
            <parameter index="21" name="EQ Band 5 Q" parameterValue="0.000199989997781813144683837890625"/>
            <parameter index="22" name="EQ Band 5 Gain" parameterValue="0.5"/>
            <parameter index="23" name="EQ Band 5 Enable" parameterValue="1"/>
            <parameter index="24" name="Master Gain" parameterValue="0.666666686534881591796875"/>
            <parameter index="25" name="ConstantQ" parameterValue="1"/>
            <parameter index="26" name="Low Shelf Filter Order" parameterValue="0"/>
            <parameter index="27" name="High Shelf Filter Order" parameterValue="0"/>
            <parameter index="28" name="Ultra-Quiet Mode" parameterValue="0"/>
            <parameter index="29" name="Low Shelf Enable" parameterValue="1"/>
            <parameter index="30" name="High Shelf Enable" parameterValue="1"/>
            <parameter index="31" name="Original Sample Rate" parameterValue="0.25"/>
            <parameter index="32" name="EQ Band 1 Bandwidth" parameterValue="0.002499990165233612060546875"/>
            <parameter index="33" name="EQ Band 2 Bandwidth" parameterValue="0.0099999904632568359375"/>
            <parameter index="34" name="EQ Band 3 Bandwidth" parameterValue="0.0399999916553497314453125"/>
            <parameter index="35" name="EQ Band 4 Bandwidth" parameterValue="0.15999998152256011962890625"/>
            <parameter index="36" name="EQ Band 5 Bandwidth" parameterValue="0.63999998569488525390625"/>
            <parameter index="37" name="High-Pass Filter Enable" parameterValue="0"/>
            <parameter index="38" name="High-Pass Cutoff Frequency" parameterValue="0"/>
            <parameter index="39" name="High-Pass Slope" parameterValue="0.4000000059604644775390625"/>
            <parameter index="40" name="Low-Pass Filter Enable" parameterValue="0"/>
            <parameter index="41" name="Low-Pass Cutoff Frequency" parameterValue="0.833194315433502197265625"/>
            <parameter index="42" name="Low-Pass Slope" parameterValue="0.4000000059604644775390625"/>
            <parameter index="43" name="Bypass" parameterValue="0"/>
            <parameter index="44" name="LowGraphRange" parameterValue="1"/>
          </component>
        </trackAudioParameters>
        <editParameter parameterIndex="0" slotIndex="4294967280"/>
        <audioClip clipAutoCrossfade="true" crossFadeHeadClipID="-1" crossFadeTailClipID="-1" endPoint="720000" fileID="1" hue="-1" id="0" lockedInTime="false" looped="false" name="SL_Kit_01_Breakdown_SubLead_SC_G_128 48000 1" offline="false" select="true" sourceInPoint="0" sourceOutPoint="720000" startPoint="0" zOrder="98">
          <component componentGuid="25c6958e-4772-44a0-b189-b92d893b4f09" componentID="Audition.Fader" id="clipGain" name="volume" powered="true">
            <parameter index="0" name="volume" parameterValue="1"/>
            <parameter index="1" name="static gain" parameterValue="1"/>
          </component>
          <component componentGuid="2ccf6bb6-37cb-4b91-8d26-efb986d5feb4" componentID="Audition.Mute" id="clipMute" name="Mute" powered="true">
            <parameter index="0" parameterValue="0"/>
            <parameter index="1" name="mute" parameterValue="0"/>
          </component>
          <component componentGuid="099a9773-ec84-46a1-967c-06106429c960" componentID="Audition.StereoPanner" id="clipPan" name="StereoPanner" powered="true">
            <parameter index="0" name="Pan" parameterValue="0"/>
          </component>
          <fadeIn crossFadeLinkType="linkedAsymmetric" endPoint="0" shape="0" startPoint="0" type="cosine"/>
          <fadeOut crossFadeLinkType="linkedAsymmetric" endPoint="720000" shape="0" startPoint="720000" type="cosine"/>
          <editParameter parameterIndex="0" slotIndex="4294967280"/>
          <editParameter parameterIndex="0" slotIndex="4294967281"/>
          <channelMap>
            <channel index="0" sourceIndex="0"/>
            <channel index="1" sourceIndex="1"/>
          </channelMap>
        </audioClip>
        <audioClip clipAutoCrossfade="true" crossFadeHeadClipID="-1" crossFadeTailClipID="-1" endPoint="840592" fileID="1" hue="-1" id="1" lockedInTime="false" looped="false" name="SL_Kit_01_Breakdown_SubLead_SC_G_128 48000 1" offline="false" select="true" sourceInPoint="5120" sourceOutPoint="125712" startPoint="720000" zOrder="99">
          <component componentGuid="6cf8b633-0e22-4d81-8340-73b03151ac9d" componentID="Audition.Fader" id="clipGain" name="volume" powered="true">
            <parameter index="0" name="volume" parameterValue="1"/>
            <parameter index="1" name="static gain" parameterValue="1"/>
          </component>
          <component componentGuid="707aec88-f6a9-4078-a9ce-1605674ef3a6" componentID="Audition.Mute" id="clipMute" name="Mute" powered="true">
            <parameter index="0" parameterValue="0"/>
            <parameter index="1" name="mute" parameterValue="0"/>
          </component>
          <component componentGuid="66f9fe2b-5566-446d-ad28-934084471673" componentID="Audition.StereoPanner" id="clipPan" name="StereoPanner" powered="true">
            <parameter index="0" name="Pan" parameterValue="0"/>
          </component>
          <fadeIn crossFadeLinkType="linkedAsymmetric" endPoint="0" shape="0" startPoint="0" type="cosine"/>
          <fadeOut crossFadeLinkType="linkedAsymmetric" endPoint="120592" shape="19" startPoint="120592" type="log"/>
          <clipStretch adaptiveWindowSize="37" pitchAdjustment="0" preserveFormants="true" stretchMode="realtime" stretchQuality="high" stretchRatio="3" stretchType="solo" transientSensitivity="40"/>
          <editParameter parameterIndex="0" slotIndex="4294967280"/>
          <editParameter parameterIndex="0" slotIndex="4294967281"/>
          <channelMap>
            <channel index="0" sourceIndex="0"/>
            <channel index="1" sourceIndex="1"/>
          </channelMap>
        </audioClip>
        <audioClip clipAutoCrossfade="true" crossFadeHeadClipID="-1" crossFadeTailClipID="-1" endPoint="893712" fileID="1" hue="-1" id="2" lockedInTime="false" looped="false" name="SL_Kit_01_Breakdown_SubLead_SC_G_128 48000 1" offline="false" select="true" sourceInPoint="6144" sourceOutPoint="125712" startPoint="774144" zOrder="100">
          <component componentGuid="1af70217-3be7-43e0-a432-d73b451e80b4" componentID="Audition.Fader" id="clipGain" name="volume" powered="true">
            <parameter index="0" name="volume" parameterValue="1"/>
            <parameter index="1" name="static gain" parameterValue="1"/>
          </component>
          <component componentGuid="8311dc55-350c-497f-a7cd-0ea0e94771b8" componentID="Audition.Mute" id="clipMute" name="Mute" powered="true">
            <parameter index="0" parameterValue="0"/>
            <parameter index="1" name="mute" parameterValue="0"/>
          </component>
          <component componentGuid="dc5e40ea-2ea6-4f14-a604-794f699304d6" componentID="Audition.StereoPanner" id="clipPan" name="StereoPanner" powered="true">
            <parameter index="0" name="Pan" parameterValue="0"/>
          </component>
          <fadeIn crossFadeLinkType="linkedAsymmetric" endPoint="0" shape="18" startPoint="0" type="log"/>
          <fadeOut crossFadeLinkType="linkedAsymmetric" endPoint="119568" shape="0" startPoint="119568" type="cosine"/>
          <clipStretch adaptiveWindowSize="37" pitchAdjustment="0" preserveFormants="true" stretchMode="realtime" stretchQuality="high" stretchRatio="3" stretchType="solo" transientSensitivity="40"/>
          <editParameter parameterIndex="0" slotIndex="4294967280"/>
          <editParameter parameterIndex="0" slotIndex="4294967281"/>
          <channelMap>
            <channel index="0" sourceIndex="0"/>
            <channel index="1" sourceIndex="1"/>
          </channelMap>
        </audioClip>
        <audioClip clipAutoCrossfade="true" crossFadeHeadClipID="-1" crossFadeTailClipID="-1" endPoint="944081" fileID="1" hue="-1" id="3" lockedInTime="false" looped="false" name="SL_Kit_01_Breakdown_SubLead_SC_G_128 48000 1" offline="false" select="true" sourceInPoint="4096" sourceOutPoint="125712" startPoint="822465" zOrder="101">
          <component componentGuid="eab19ee5-271f-460f-91f6-7ebbdb962ace" componentID="Audition.Fader" id="clipGain" name="volume" powered="true">
            <parameter index="0" name="volume" parameterValue="1"/>
            <parameter index="1" name="static gain" parameterValue="1"/>
          </component>
          <component componentGuid="5c7e7ea6-2c3b-40e1-99c3-c90a5395e135" componentID="Audition.Mute" id="clipMute" name="Mute" powered="true">
            <parameter index="0" parameterValue="0"/>
            <parameter index="1" name="mute" parameterValue="0"/>
          </component>
          <component componentGuid="be7cbfd3-674f-4147-87a5-7d590ae2511e" componentID="Audition.StereoPanner" id="clipPan" name="StereoPanner" powered="true">
            <parameter index="0" name="Pan" parameterValue="0"/>
          </component>
          <fadeIn crossFadeLinkType="linkedAsymmetric" endPoint="0" shape="0" startPoint="0" type="cosine"/>
          <fadeOut crossFadeLinkType="linkedAsymmetric" endPoint="121616" shape="19" startPoint="121616" type="log"/>
          <clipStretch adaptiveWindowSize="37" pitchAdjustment="0" preserveFormants="true" stretchMode="realtime" stretchQuality="high" stretchRatio="3" stretchType="solo" transientSensitivity="40"/>
          <editParameter parameterIndex="0" slotIndex="4294967280"/>
          <editParameter parameterIndex="0" slotIndex="4294967281"/>
          <channelMap>
            <channel index="0" sourceIndex="0"/>
            <channel index="1" sourceIndex="1"/>
          </channelMap>
        </audioClip>
        <audioClip clipAutoCrossfade="true" crossFadeHeadClipID="-1" crossFadeTailClipID="-1" endPoint="992081" fileID="1" hue="-1" id="4" lockedInTime="false" looped="false" name="SL_Kit_01_Breakdown_SubLead_SC_G_128 48000 1" offline="false" select="true" sourceInPoint="4608" sourceOutPoint="125712" startPoint="870977" zOrder="102">
          <component componentGuid="65ab55a7-6f2f-40e6-b9ef-40c6bb21160c" componentID="Audition.Fader" id="clipGain" name="volume" powered="true">
            <parameter index="0" name="volume" parameterValue="1"/>
            <parameter index="1" name="static gain" parameterValue="1"/>
          </component>
          <component componentGuid="d08eea6c-38c6-49d1-a6ea-041e63718285" componentID="Audition.Mute" id="clipMute" name="Mute" powered="true">
            <parameter index="0" parameterValue="0"/>
            <parameter index="1" name="mute" parameterValue="0"/>
          </component>
          <component componentGuid="d564b067-dc01-4df4-b1c2-4f5c5317ffdc" componentID="Audition.StereoPanner" id="clipPan" name="StereoPanner" powered="true">
            <parameter index="0" name="Pan" parameterValue="0"/>
          </component>
          <fadeIn crossFadeLinkType="linkedAsymmetric" endPoint="0" shape="18" startPoint="0" type="log"/>
          <fadeOut crossFadeLinkType="linkedAsymmetric" endPoint="121104" shape="0" startPoint="121104" type="cosine"/>
          <clipStretch adaptiveWindowSize="37" pitchAdjustment="0" preserveFormants="true" stretchMode="realtime" stretchQuality="high" stretchRatio="3" stretchType="solo" transientSensitivity="40"/>
          <editParameter parameterIndex="0" slotIndex="4294967280"/>
          <editParameter parameterIndex="0" slotIndex="4294967281"/>
          <channelMap>
            <channel index="0" sourceIndex="0"/>
            <channel index="1" sourceIndex="1"/>
          </channelMap>
        </audioClip>
        <audioClip clipAutoCrossfade="true" crossFadeHeadClipID="-1" crossFadeTailClipID="-1" endPoint="1608744" fileID="5" hue="-1" id="5" lockedInTime="false" looped="false" name="Sl_Kick_&amp;_Snare_145_03 48000 1" offline="false" select="true" sourceInPoint="0" sourceOutPoint="22375" startPoint="1586369" zOrder="103">
          <properties properties="{&quot;ClipRemixParameters&quot;:{&quot;type&quot;:&quot;tree::any&quot;,&quot;value&quot;:{&quot;ChromaWeight&quot;:{&quot;type&quot;:&quot;float&quot;,&quot;value&quot;:1},&quot;EditLength&quot;:{&quot;type&quot;:&quot;float&quot;,&quot;value&quot;:1},&quot;EndAtEnd&quot;:{&quot;type&quot;:&quot;bool&quot;,&quot;value&quot;:true},&quot;MaximumSlack&quot;:{&quot;type&quot;:&quot;float&quot;,&quot;value&quot;:5},&quot;MinimumLoopBeats&quot;:{&quot;type&quot;:&quot;std::uint32_t&quot;,&quot;value&quot;:8},&quot;MusicRetargetingEnabled&quot;:{&quot;type&quot;:&quot;bool&quot;,&quot;value&quot;:false},&quot;SourceClipDuration&quot;:{&quot;type&quot;:&quot;array::std::int64_t&quot;,&quot;value&quot;:[-1,1]},&quot;SourceClipRangeStart&quot;:{&quot;type&quot;:&quot;array::std::int64_t&quot;,&quot;value&quot;:[0,1]},&quot;SplitIntoSegments&quot;:{&quot;type&quot;:&quot;bool&quot;,&quot;value&quot;:false},&quot;StartAtBeginning&quot;:{&quot;type&quot;:&quot;bool&quot;,&quot;value&quot;:true},&quot;StretchExact&quot;:{&quot;type&quot;:&quot;bool&quot;,&quot;value&quot;:false},&quot;TargetDuration&quot;:{&quot;type&quot;:&quot;array::std::int64_t&quot;,&quot;value&quot;:[0,1]},&quot;TimbreWeight&quot;:{&quot;type&quot;:&quot;float&quot;,&quot;value&quot;:1}}},&quot;ClipRetargetSourceSettings&quot;:{&quot;type&quot;:&quot;tree::any&quot;,&quot;value&quot;:{&quot;ComponentKeyframeInfoKey&quot;:{&quot;type&quot;:&quot;tree::any&quot;,&quot;value&quot;:{}}}},&quot;RemixResults&quot;:{&quot;type&quot;:&quot;tree::any&quot;,&quot;value&quot;:{&quot;AnalysisDataGuid&quot;:{&quot;type&quot;:&quot;UTF16String&quot;,&quot;value&quot;:&quot;9c69bdd5-f6a3-4770-bef5-8cac6034a52f&quot;}}}}"/>
          <component componentGuid="4028ece7-eba2-46a3-993f-977a0f912566" componentID="Audition.Fader" id="clipGain" name="volume" powered="true">
            <parameter index="0" name="volume" parameterValue="1"/>
            <parameter index="1" name="static gain" parameterValue="1"/>
          </component>
          <component componentGuid="1d0d8380-147c-415c-b269-682c68807728" componentID="Audition.Mute" id="clipMute" name="Mute" powered="true">
            <parameter index="0" parameterValue="0"/>
            <parameter index="1" name="mute" parameterValue="0"/>
          </component>
          <component componentGuid="178be52f-162c-4f9b-83f1-c49ee4764a4b" componentID="Audition.StereoPanner" id="clipPan" name="StereoPanner" powered="true">
            <parameter index="0" name="Pan" parameterValue="0"/>
          </component>
          <fadeIn crossFadeLinkType="linkedAsymmetric" endPoint="0" shape="0" startPoint="0" type="cosine"/>
          <fadeOut crossFadeLinkType="linkedAsymmetric" endPoint="22375" shape="0" startPoint="22375" type="cosine"/>
          <editParameter parameterIndex="0" slotIndex="4294967281"/>
          <editParameter parameterIndex="0" slotIndex="4294967280"/>
          <channelMap>
            <channel index="0" sourceIndex="0"/>
            <channel index="1" sourceIndex="1"/>
          </channelMap>
        </audioClip>
        <audioClip clipAutoCrossfade="true" crossFadeHeadClipID="-1" crossFadeTailClipID="-1" endPoint="1631119" fileID="5" hue="-1" id="6" lockedInTime="false" looped="false" name="Sl_Kick_&amp;_Snare_145_03 48000 1" offline="false" select="true" sourceInPoint="0" sourceOutPoint="22375" startPoint="1608744" zOrder="104">
          <properties properties="{&quot;ClipRemixParameters&quot;:{&quot;type&quot;:&quot;tree::any&quot;,&quot;value&quot;:{&quot;ChromaWeight&quot;:{&quot;type&quot;:&quot;float&quot;,&quot;value&quot;:1},&quot;EditLength&quot;:{&quot;type&quot;:&quot;float&quot;,&quot;value&quot;:1},&quot;EndAtEnd&quot;:{&quot;type&quot;:&quot;bool&quot;,&quot;value&quot;:true},&quot;MaximumSlack&quot;:{&quot;type&quot;:&quot;float&quot;,&quot;value&quot;:5},&quot;MinimumLoopBeats&quot;:{&quot;type&quot;:&quot;std::uint32_t&quot;,&quot;value&quot;:8},&quot;MusicRetargetingEnabled&quot;:{&quot;type&quot;:&quot;bool&quot;,&quot;value&quot;:false},&quot;SourceClipDuration&quot;:{&quot;type&quot;:&quot;array::std::int64_t&quot;,&quot;value&quot;:[-1,1]},&quot;SourceClipRangeStart&quot;:{&quot;type&quot;:&quot;array::std::int64_t&quot;,&quot;value&quot;:[0,1]},&quot;SplitIntoSegments&quot;:{&quot;type&quot;:&quot;bool&quot;,&quot;value&quot;:false},&quot;StartAtBeginning&quot;:{&quot;type&quot;:&quot;bool&quot;,&quot;value&quot;:true},&quot;StretchExact&quot;:{&quot;type&quot;:&quot;bool&quot;,&quot;value&quot;:false},&quot;TargetDuration&quot;:{&quot;type&quot;:&quot;array::std::int64_t&quot;,&quot;value&quot;:[0,1]},&quot;TimbreWeight&quot;:{&quot;type&quot;:&quot;float&quot;,&quot;value&quot;:1}}},&quot;ClipRetargetSourceSettings&quot;:{&quot;type&quot;:&quot;tree::any&quot;,&quot;value&quot;:{&quot;ComponentKeyframeInfoKey&quot;:{&quot;type&quot;:&quot;tree::any&quot;,&quot;value&quot;:{}}}},&quot;RemixResults&quot;:{&quot;type&quot;:&quot;tree::any&quot;,&quot;value&quot;:{&quot;AnalysisDataGuid&quot;:{&quot;type&quot;:&quot;UTF16String&quot;,&quot;value&quot;:&quot;9c69bdd5-f6a3-4770-bef5-8cac6034a52f&quot;}}}}"/>
          <component componentGuid="238ebe0a-a93c-49a8-8a60-93a6d7001bc8" componentID="Audition.Fader" id="clipGain" name="volume" powered="true">
            <parameter index="0" name="volume" parameterValue="1"/>
            <parameter index="1" name="static gain" parameterValue="1"/>
          </component>
          <component componentGuid="b39ec5ae-47ed-4c2d-84ce-03fb16639007" componentID="Audition.Mute" id="clipMute" name="Mute" powered="true">
            <parameter index="0" parameterValue="0"/>
            <parameter index="1" name="mute" parameterValue="0"/>
          </component>
          <component componentGuid="d7cc77b5-22fd-4bc6-9bb1-6cc9f22cfd21" componentID="Audition.StereoPanner" id="clipPan" name="StereoPanner" powered="true">
            <parameter index="0" name="Pan" parameterValue="0"/>
          </component>
          <fadeIn crossFadeLinkType="linkedAsymmetric" endPoint="0" shape="0" startPoint="0" type="cosine"/>
          <fadeOut crossFadeLinkType="linkedAsymmetric" endPoint="22375" shape="0" startPoint="22375" type="cosine"/>
          <editParameter parameterIndex="0" slotIndex="4294967281"/>
          <editParameter parameterIndex="0" slotIndex="4294967280"/>
          <channelMap>
            <channel index="0" sourceIndex="0"/>
            <channel index="1" sourceIndex="1"/>
          </channelMap>
        </audioClip>
        <audioClip clipAutoCrossfade="true" crossFadeHeadClipID="-1" crossFadeTailClipID="-1" endPoint="1653494" fileID="5" hue="-1" id="7" lockedInTime="false" looped="false" name="Sl_Kick_&amp;_Snare_145_03 48000 1" offline="false" select="true" sourceInPoint="0" sourceOutPoint="22375" startPoint="1631119" zOrder="105">
          <properties properties="{&quot;ClipRemixParameters&quot;:{&quot;type&quot;:&quot;tree::any&quot;,&quot;value&quot;:{&quot;ChromaWeight&quot;:{&quot;type&quot;:&quot;float&quot;,&quot;value&quot;:1},&quot;EditLength&quot;:{&quot;type&quot;:&quot;float&quot;,&quot;value&quot;:1},&quot;EndAtEnd&quot;:{&quot;type&quot;:&quot;bool&quot;,&quot;value&quot;:true},&quot;MaximumSlack&quot;:{&quot;type&quot;:&quot;float&quot;,&quot;value&quot;:5},&quot;MinimumLoopBeats&quot;:{&quot;type&quot;:&quot;std::uint32_t&quot;,&quot;value&quot;:8},&quot;MusicRetargetingEnabled&quot;:{&quot;type&quot;:&quot;bool&quot;,&quot;value&quot;:false},&quot;SourceClipDuration&quot;:{&quot;type&quot;:&quot;array::std::int64_t&quot;,&quot;value&quot;:[-1,1]},&quot;SourceClipRangeStart&quot;:{&quot;type&quot;:&quot;array::std::int64_t&quot;,&quot;value&quot;:[0,1]},&quot;SplitIntoSegments&quot;:{&quot;type&quot;:&quot;bool&quot;,&quot;value&quot;:false},&quot;StartAtBeginning&quot;:{&quot;type&quot;:&quot;bool&quot;,&quot;value&quot;:true},&quot;StretchExact&quot;:{&quot;type&quot;:&quot;bool&quot;,&quot;value&quot;:false},&quot;TargetDuration&quot;:{&quot;type&quot;:&quot;array::std::int64_t&quot;,&quot;value&quot;:[0,1]},&quot;TimbreWeight&quot;:{&quot;type&quot;:&quot;float&quot;,&quot;value&quot;:1}}},&quot;ClipRetargetSourceSettings&quot;:{&quot;type&quot;:&quot;tree::any&quot;,&quot;value&quot;:{&quot;ComponentKeyframeInfoKey&quot;:{&quot;type&quot;:&quot;tree::any&quot;,&quot;value&quot;:{}}}},&quot;RemixResults&quot;:{&quot;type&quot;:&quot;tree::any&quot;,&quot;value&quot;:{&quot;AnalysisDataGuid&quot;:{&quot;type&quot;:&quot;UTF16String&quot;,&quot;value&quot;:&quot;9c69bdd5-f6a3-4770-bef5-8cac6034a52f&quot;}}}}"/>
          <component componentGuid="8fee4be1-f3a4-4e29-b1e6-d7eb5778787f" componentID="Audition.Fader" id="clipGain" name="volume" powered="true">
            <parameter index="0" name="volume" parameterValue="1"/>
            <parameter index="1" name="static gain" parameterValue="1"/>
          </component>
          <component componentGuid="556ed240-8546-4496-bcfb-e00481b8e1ff" componentID="Audition.Mute" id="clipMute" name="Mute" powered="true">
            <parameter index="0" parameterValue="0"/>
            <parameter index="1" name="mute" parameterValue="0"/>
          </component>
          <component componentGuid="5bf74182-0a56-4590-ac50-96053ceef0d9" componentID="Audition.StereoPanner" id="clipPan" name="StereoPanner" powered="true">
            <parameter index="0" name="Pan" parameterValue="0"/>
          </component>
          <fadeIn crossFadeLinkType="linkedAsymmetric" endPoint="0" shape="0" startPoint="0" type="cosine"/>
          <fadeOut crossFadeLinkType="linkedAsymmetric" endPoint="22375" shape="0" startPoint="22375" type="cosine"/>
          <editParameter parameterIndex="0" slotIndex="4294967281"/>
          <editParameter parameterIndex="0" slotIndex="4294967280"/>
          <channelMap>
            <channel index="0" sourceIndex="0"/>
            <channel index="1" sourceIndex="1"/>
          </channelMap>
        </audioClip>
        <audioClip clipAutoCrossfade="true" crossFadeHeadClipID="-1" crossFadeTailClipID="-1" endPoint="1675869" fileID="5" hue="-1" id="8" lockedInTime="false" looped="false" name="Sl_Kick_&amp;_Snare_145_03 48000 1" offline="false" select="true" sourceInPoint="0" sourceOutPoint="22375" startPoint="1653494" zOrder="106">
          <properties properties="{&quot;ClipRemixParameters&quot;:{&quot;type&quot;:&quot;tree::any&quot;,&quot;value&quot;:{&quot;ChromaWeight&quot;:{&quot;type&quot;:&quot;float&quot;,&quot;value&quot;:1},&quot;EditLength&quot;:{&quot;type&quot;:&quot;float&quot;,&quot;value&quot;:1},&quot;EndAtEnd&quot;:{&quot;type&quot;:&quot;bool&quot;,&quot;value&quot;:true},&quot;MaximumSlack&quot;:{&quot;type&quot;:&quot;float&quot;,&quot;value&quot;:5},&quot;MinimumLoopBeats&quot;:{&quot;type&quot;:&quot;std::uint32_t&quot;,&quot;value&quot;:8},&quot;MusicRetargetingEnabled&quot;:{&quot;type&quot;:&quot;bool&quot;,&quot;value&quot;:false},&quot;SourceClipDuration&quot;:{&quot;type&quot;:&quot;array::std::int64_t&quot;,&quot;value&quot;:[-1,1]},&quot;SourceClipRangeStart&quot;:{&quot;type&quot;:&quot;array::std::int64_t&quot;,&quot;value&quot;:[0,1]},&quot;SplitIntoSegments&quot;:{&quot;type&quot;:&quot;bool&quot;,&quot;value&quot;:false},&quot;StartAtBeginning&quot;:{&quot;type&quot;:&quot;bool&quot;,&quot;value&quot;:true},&quot;StretchExact&quot;:{&quot;type&quot;:&quot;bool&quot;,&quot;value&quot;:false},&quot;TargetDuration&quot;:{&quot;type&quot;:&quot;array::std::int64_t&quot;,&quot;value&quot;:[0,1]},&quot;TimbreWeight&quot;:{&quot;type&quot;:&quot;float&quot;,&quot;value&quot;:1}}},&quot;ClipRetargetSourceSettings&quot;:{&quot;type&quot;:&quot;tree::any&quot;,&quot;value&quot;:{&quot;ComponentKeyframeInfoKey&quot;:{&quot;type&quot;:&quot;tree::any&quot;,&quot;value&quot;:{}}}},&quot;RemixResults&quot;:{&quot;type&quot;:&quot;tree::any&quot;,&quot;value&quot;:{&quot;AnalysisDataGuid&quot;:{&quot;type&quot;:&quot;UTF16String&quot;,&quot;value&quot;:&quot;9c69bdd5-f6a3-4770-bef5-8cac6034a52f&quot;}}}}"/>
          <component componentGuid="8c79a363-69fb-4d0f-bfe1-f4d502e2a90e" componentID="Audition.Fader" id="clipGain" name="volume" powered="true">
            <parameter index="0" name="volume" parameterValue="1"/>
            <parameter index="1" name="static gain" parameterValue="1"/>
          </component>
          <component componentGuid="fd7f4c3a-8248-4612-ab42-6cbb97b842a5" componentID="Audition.Mute" id="clipMute" name="Mute" powered="true">
            <parameter index="0" parameterValue="0"/>
            <parameter index="1" name="mute" parameterValue="0"/>
          </component>
          <component componentGuid="48db2718-8d95-4269-98d8-a12f1a52fc6f" componentID="Audition.StereoPanner" id="clipPan" name="StereoPanner" powered="true">
            <parameter index="0" name="Pan" parameterValue="0"/>
          </component>
          <fadeIn crossFadeLinkType="linkedAsymmetric" endPoint="0" shape="0" startPoint="0" type="cosine"/>
          <fadeOut crossFadeLinkType="linkedAsymmetric" endPoint="22375" shape="0" startPoint="22375" type="cosine"/>
          <editParameter parameterIndex="0" slotIndex="4294967281"/>
          <editParameter parameterIndex="0" slotIndex="4294967280"/>
          <channelMap>
            <channel index="0" sourceIndex="0"/>
            <channel index="1" sourceIndex="1"/>
          </channelMap>
        </audioClip>
        <audioClip clipAutoCrossfade="true" crossFadeHeadClipID="-1" crossFadeTailClipID="-1" endPoint="1698244" fileID="5" hue="-1" id="9" lockedInTime="false" looped="false" name="Sl_Kick_&amp;_Snare_145_03 48000 1" offline="false" select="true" sourceInPoint="0" sourceOutPoint="22375" startPoint="1675869" zOrder="107">
          <properties properties="{&quot;ClipRemixParameters&quot;:{&quot;type&quot;:&quot;tree::any&quot;,&quot;value&quot;:{&quot;ChromaWeight&quot;:{&quot;type&quot;:&quot;float&quot;,&quot;value&quot;:1},&quot;EditLength&quot;:{&quot;type&quot;:&quot;float&quot;,&quot;value&quot;:1},&quot;EndAtEnd&quot;:{&quot;type&quot;:&quot;bool&quot;,&quot;value&quot;:true},&quot;MaximumSlack&quot;:{&quot;type&quot;:&quot;float&quot;,&quot;value&quot;:5},&quot;MinimumLoopBeats&quot;:{&quot;type&quot;:&quot;std::uint32_t&quot;,&quot;value&quot;:8},&quot;MusicRetargetingEnabled&quot;:{&quot;type&quot;:&quot;bool&quot;,&quot;value&quot;:false},&quot;SourceClipDuration&quot;:{&quot;type&quot;:&quot;array::std::int64_t&quot;,&quot;value&quot;:[-1,1]},&quot;SourceClipRangeStart&quot;:{&quot;type&quot;:&quot;array::std::int64_t&quot;,&quot;value&quot;:[0,1]},&quot;SplitIntoSegments&quot;:{&quot;type&quot;:&quot;bool&quot;,&quot;value&quot;:false},&quot;StartAtBeginning&quot;:{&quot;type&quot;:&quot;bool&quot;,&quot;value&quot;:true},&quot;StretchExact&quot;:{&quot;type&quot;:&quot;bool&quot;,&quot;value&quot;:false},&quot;TargetDuration&quot;:{&quot;type&quot;:&quot;array::std::int64_t&quot;,&quot;value&quot;:[0,1]},&quot;TimbreWeight&quot;:{&quot;type&quot;:&quot;float&quot;,&quot;value&quot;:1}}},&quot;ClipRetargetSourceSettings&quot;:{&quot;type&quot;:&quot;tree::any&quot;,&quot;value&quot;:{&quot;ComponentKeyframeInfoKey&quot;:{&quot;type&quot;:&quot;tree::any&quot;,&quot;value&quot;:{}}}},&quot;RemixResults&quot;:{&quot;type&quot;:&quot;tree::any&quot;,&quot;value&quot;:{&quot;AnalysisDataGuid&quot;:{&quot;type&quot;:&quot;UTF16String&quot;,&quot;value&quot;:&quot;9c69bdd5-f6a3-4770-bef5-8cac6034a52f&quot;}}}}"/>
          <component componentGuid="b7dd4a25-432e-40f0-9ae0-c686fe7b7973" componentID="Audition.Fader" id="clipGain" name="volume" powered="true">
            <parameter index="0" name="volume" parameterValue="1"/>
            <parameter index="1" name="static gain" parameterValue="1"/>
          </component>
          <component componentGuid="cd4db59e-8ceb-494e-8db1-67bbe1922023" componentID="Audition.Mute" id="clipMute" name="Mute" powered="true">
            <parameter index="0" parameterValue="0"/>
            <parameter index="1" name="mute" parameterValue="0"/>
          </component>
          <component componentGuid="aba1b53b-3722-4f46-9e30-c49738632be4" componentID="Audition.StereoPanner" id="clipPan" name="StereoPanner" powered="true">
            <parameter index="0" name="Pan" parameterValue="0"/>
          </component>
          <fadeIn crossFadeLinkType="linkedAsymmetric" endPoint="0" shape="0" startPoint="0" type="cosine"/>
          <fadeOut crossFadeLinkType="linkedAsymmetric" endPoint="22375" shape="0" startPoint="22375" type="cosine"/>
          <editParameter parameterIndex="0" slotIndex="4294967281"/>
          <editParameter parameterIndex="0" slotIndex="4294967280"/>
          <channelMap>
            <channel index="0" sourceIndex="0"/>
            <channel index="1" sourceIndex="1"/>
          </channelMap>
        </audioClip>
        <audioClip clipAutoCrossfade="true" crossFadeHeadClipID="-1" crossFadeTailClipID="-1" endPoint="1720619" fileID="5" hue="-1" id="10" lockedInTime="false" looped="false" name="Sl_Kick_&amp;_Snare_145_03 48000 1" offline="false" select="true" sourceInPoint="0" sourceOutPoint="22375" startPoint="1698244" zOrder="108">
          <properties properties="{&quot;ClipRemixParameters&quot;:{&quot;type&quot;:&quot;tree::any&quot;,&quot;value&quot;:{&quot;ChromaWeight&quot;:{&quot;type&quot;:&quot;float&quot;,&quot;value&quot;:1},&quot;EditLength&quot;:{&quot;type&quot;:&quot;float&quot;,&quot;value&quot;:1},&quot;EndAtEnd&quot;:{&quot;type&quot;:&quot;bool&quot;,&quot;value&quot;:true},&quot;MaximumSlack&quot;:{&quot;type&quot;:&quot;float&quot;,&quot;value&quot;:5},&quot;MinimumLoopBeats&quot;:{&quot;type&quot;:&quot;std::uint32_t&quot;,&quot;value&quot;:8},&quot;MusicRetargetingEnabled&quot;:{&quot;type&quot;:&quot;bool&quot;,&quot;value&quot;:false},&quot;SourceClipDuration&quot;:{&quot;type&quot;:&quot;array::std::int64_t&quot;,&quot;value&quot;:[-1,1]},&quot;SourceClipRangeStart&quot;:{&quot;type&quot;:&quot;array::std::int64_t&quot;,&quot;value&quot;:[0,1]},&quot;SplitIntoSegments&quot;:{&quot;type&quot;:&quot;bool&quot;,&quot;value&quot;:false},&quot;StartAtBeginning&quot;:{&quot;type&quot;:&quot;bool&quot;,&quot;value&quot;:true},&quot;StretchExact&quot;:{&quot;type&quot;:&quot;bool&quot;,&quot;value&quot;:false},&quot;TargetDuration&quot;:{&quot;type&quot;:&quot;array::std::int64_t&quot;,&quot;value&quot;:[0,1]},&quot;TimbreWeight&quot;:{&quot;type&quot;:&quot;float&quot;,&quot;value&quot;:1}}},&quot;ClipRetargetSourceSettings&quot;:{&quot;type&quot;:&quot;tree::any&quot;,&quot;value&quot;:{&quot;ComponentKeyframeInfoKey&quot;:{&quot;type&quot;:&quot;tree::any&quot;,&quot;value&quot;:{}}}},&quot;RemixResults&quot;:{&quot;type&quot;:&quot;tree::any&quot;,&quot;value&quot;:{&quot;AnalysisDataGuid&quot;:{&quot;type&quot;:&quot;UTF16String&quot;,&quot;value&quot;:&quot;9c69bdd5-f6a3-4770-bef5-8cac6034a52f&quot;}}}}"/>
          <component componentGuid="37147cf6-01e2-4c13-acca-33bbd30d9692" componentID="Audition.Fader" id="clipGain" name="volume" powered="true">
            <parameter index="0" name="volume" parameterValue="1"/>
            <parameter index="1" name="static gain" parameterValue="1"/>
          </component>
          <component componentGuid="c0b5f86e-7546-41ff-a983-9b4025f34e29" componentID="Audition.Mute" id="clipMute" name="Mute" powered="true">
            <parameter index="0" parameterValue="0"/>
            <parameter index="1" name="mute" parameterValue="0"/>
          </component>
          <component componentGuid="afd32a3b-bb1f-46eb-a828-6998948a3570" componentID="Audition.StereoPanner" id="clipPan" name="StereoPanner" powered="true">
            <parameter index="0" name="Pan" parameterValue="0"/>
          </component>
          <fadeIn crossFadeLinkType="linkedAsymmetric" endPoint="0" shape="0" startPoint="0" type="cosine"/>
          <fadeOut crossFadeLinkType="linkedAsymmetric" endPoint="22375" shape="0" startPoint="22375" type="cosine"/>
          <editParameter parameterIndex="0" slotIndex="4294967281"/>
          <editParameter parameterIndex="0" slotIndex="4294967280"/>
          <channelMap>
            <channel index="0" sourceIndex="0"/>
            <channel index="1" sourceIndex="1"/>
          </channelMap>
        </audioClip>
        <audioClip clipAutoCrossfade="true" crossFadeHeadClipID="-1" crossFadeTailClipID="-1" endPoint="1742994" fileID="5" hue="-1" id="11" lockedInTime="false" looped="false" name="Sl_Kick_&amp;_Snare_145_03 48000 1" offline="false" select="true" sourceInPoint="0" sourceOutPoint="22375" startPoint="1720619" zOrder="109">
          <properties properties="{&quot;ClipRemixParameters&quot;:{&quot;type&quot;:&quot;tree::any&quot;,&quot;value&quot;:{&quot;ChromaWeight&quot;:{&quot;type&quot;:&quot;float&quot;,&quot;value&quot;:1},&quot;EditLength&quot;:{&quot;type&quot;:&quot;float&quot;,&quot;value&quot;:1},&quot;EndAtEnd&quot;:{&quot;type&quot;:&quot;bool&quot;,&quot;value&quot;:true},&quot;MaximumSlack&quot;:{&quot;type&quot;:&quot;float&quot;,&quot;value&quot;:5},&quot;MinimumLoopBeats&quot;:{&quot;type&quot;:&quot;std::uint32_t&quot;,&quot;value&quot;:8},&quot;MusicRetargetingEnabled&quot;:{&quot;type&quot;:&quot;bool&quot;,&quot;value&quot;:false},&quot;SourceClipDuration&quot;:{&quot;type&quot;:&quot;array::std::int64_t&quot;,&quot;value&quot;:[-1,1]},&quot;SourceClipRangeStart&quot;:{&quot;type&quot;:&quot;array::std::int64_t&quot;,&quot;value&quot;:[0,1]},&quot;SplitIntoSegments&quot;:{&quot;type&quot;:&quot;bool&quot;,&quot;value&quot;:false},&quot;StartAtBeginning&quot;:{&quot;type&quot;:&quot;bool&quot;,&quot;value&quot;:true},&quot;StretchExact&quot;:{&quot;type&quot;:&quot;bool&quot;,&quot;value&quot;:false},&quot;TargetDuration&quot;:{&quot;type&quot;:&quot;array::std::int64_t&quot;,&quot;value&quot;:[0,1]},&quot;TimbreWeight&quot;:{&quot;type&quot;:&quot;float&quot;,&quot;value&quot;:1}}},&quot;ClipRetargetSourceSettings&quot;:{&quot;type&quot;:&quot;tree::any&quot;,&quot;value&quot;:{&quot;ComponentKeyframeInfoKey&quot;:{&quot;type&quot;:&quot;tree::any&quot;,&quot;value&quot;:{}}}},&quot;RemixResults&quot;:{&quot;type&quot;:&quot;tree::any&quot;,&quot;value&quot;:{&quot;AnalysisDataGuid&quot;:{&quot;type&quot;:&quot;UTF16String&quot;,&quot;value&quot;:&quot;9c69bdd5-f6a3-4770-bef5-8cac6034a52f&quot;}}}}"/>
          <component componentGuid="88d0445e-ccec-4c3d-a626-4512b1f81d47" componentID="Audition.Fader" id="clipGain" name="volume" powered="true">
            <parameter index="0" name="volume" parameterValue="1"/>
            <parameter index="1" name="static gain" parameterValue="1"/>
          </component>
          <component componentGuid="66c181ce-bb0b-4bfc-96ee-cdecabc4b36e" componentID="Audition.Mute" id="clipMute" name="Mute" powered="true">
            <parameter index="0" parameterValue="0"/>
            <parameter index="1" name="mute" parameterValue="0"/>
          </component>
          <component componentGuid="1adb250e-d0b3-49dc-ab2f-f4d77ba49ab2" componentID="Audition.StereoPanner" id="clipPan" name="StereoPanner" powered="true">
            <parameter index="0" name="Pan" parameterValue="0"/>
          </component>
          <fadeIn crossFadeLinkType="linkedAsymmetric" endPoint="0" shape="0" startPoint="0" type="cosine"/>
          <fadeOut crossFadeLinkType="linkedAsymmetric" endPoint="22375" shape="0" startPoint="22375" type="cosine"/>
          <editParameter parameterIndex="0" slotIndex="4294967281"/>
          <editParameter parameterIndex="0" slotIndex="4294967280"/>
          <channelMap>
            <channel index="0" sourceIndex="0"/>
            <channel index="1" sourceIndex="1"/>
          </channelMap>
        </audioClip>
        <audioClip clipAutoCrossfade="true" crossFadeHeadClipID="-1" crossFadeTailClipID="-1" endPoint="1765369" fileID="5" hue="-1" id="12" lockedInTime="false" looped="false" name="Sl_Kick_&amp;_Snare_145_03 48000 1" offline="false" select="true" sourceInPoint="0" sourceOutPoint="22375" startPoint="1742994" zOrder="110">
          <properties properties="{&quot;ClipRemixParameters&quot;:{&quot;type&quot;:&quot;tree::any&quot;,&quot;value&quot;:{&quot;ChromaWeight&quot;:{&quot;type&quot;:&quot;float&quot;,&quot;value&quot;:1},&quot;EditLength&quot;:{&quot;type&quot;:&quot;float&quot;,&quot;value&quot;:1},&quot;EndAtEnd&quot;:{&quot;type&quot;:&quot;bool&quot;,&quot;value&quot;:true},&quot;MaximumSlack&quot;:{&quot;type&quot;:&quot;float&quot;,&quot;value&quot;:5},&quot;MinimumLoopBeats&quot;:{&quot;type&quot;:&quot;std::uint32_t&quot;,&quot;value&quot;:8},&quot;MusicRetargetingEnabled&quot;:{&quot;type&quot;:&quot;bool&quot;,&quot;value&quot;:false},&quot;SourceClipDuration&quot;:{&quot;type&quot;:&quot;array::std::int64_t&quot;,&quot;value&quot;:[-1,1]},&quot;SourceClipRangeStart&quot;:{&quot;type&quot;:&quot;array::std::int64_t&quot;,&quot;value&quot;:[0,1]},&quot;SplitIntoSegments&quot;:{&quot;type&quot;:&quot;bool&quot;,&quot;value&quot;:false},&quot;StartAtBeginning&quot;:{&quot;type&quot;:&quot;bool&quot;,&quot;value&quot;:true},&quot;StretchExact&quot;:{&quot;type&quot;:&quot;bool&quot;,&quot;value&quot;:false},&quot;TargetDuration&quot;:{&quot;type&quot;:&quot;array::std::int64_t&quot;,&quot;value&quot;:[0,1]},&quot;TimbreWeight&quot;:{&quot;type&quot;:&quot;float&quot;,&quot;value&quot;:1}}},&quot;ClipRetargetSourceSettings&quot;:{&quot;type&quot;:&quot;tree::any&quot;,&quot;value&quot;:{&quot;ComponentKeyframeInfoKey&quot;:{&quot;type&quot;:&quot;tree::any&quot;,&quot;value&quot;:{}}}},&quot;RemixResults&quot;:{&quot;type&quot;:&quot;tree::any&quot;,&quot;value&quot;:{&quot;AnalysisDataGuid&quot;:{&quot;type&quot;:&quot;UTF16String&quot;,&quot;value&quot;:&quot;9c69bdd5-f6a3-4770-bef5-8cac6034a52f&quot;}}}}"/>
          <component componentGuid="79749b5d-9939-4f52-9dff-96d2b60cde41" componentID="Audition.Fader" id="clipGain" name="volume" powered="true">
            <parameter index="0" name="volume" parameterValue="1"/>
            <parameter index="1" name="static gain" parameterValue="1"/>
          </component>
          <component componentGuid="9e2f7b05-6f44-4a08-a9fb-383d4e3cadbe" componentID="Audition.Mute" id="clipMute" name="Mute" powered="true">
            <parameter index="0" parameterValue="0"/>
            <parameter index="1" name="mute" parameterValue="0"/>
          </component>
          <component componentGuid="5bc6cf6c-78a1-410d-8271-17669261ad8d" componentID="Audition.StereoPanner" id="clipPan" name="StereoPanner" powered="true">
            <parameter index="0" name="Pan" parameterValue="0"/>
          </component>
          <fadeIn crossFadeLinkType="linkedAsymmetric" endPoint="0" shape="0" startPoint="0" type="cosine"/>
          <fadeOut crossFadeLinkType="linkedAsymmetric" endPoint="22375" shape="0" startPoint="22375" type="cosine"/>
          <editParameter parameterIndex="0" slotIndex="4294967281"/>
          <editParameter parameterIndex="0" slotIndex="4294967280"/>
          <channelMap>
            <channel index="0" sourceIndex="0"/>
            <channel index="1" sourceIndex="1"/>
          </channelMap>
        </audioClip>
        <audioClip clipAutoCrossfade="true" crossFadeHeadClipID="-1" crossFadeTailClipID="-1" endPoint="1787744" fileID="5" hue="-1" id="13" lockedInTime="false" looped="false" name="Sl_Kick_&amp;_Snare_145_03 48000 1" offline="false" select="true" sourceInPoint="0" sourceOutPoint="22375" startPoint="1765369" zOrder="111">
          <properties properties="{&quot;ClipRemixParameters&quot;:{&quot;type&quot;:&quot;tree::any&quot;,&quot;value&quot;:{&quot;ChromaWeight&quot;:{&quot;type&quot;:&quot;float&quot;,&quot;value&quot;:1},&quot;EditLength&quot;:{&quot;type&quot;:&quot;float&quot;,&quot;value&quot;:1},&quot;EndAtEnd&quot;:{&quot;type&quot;:&quot;bool&quot;,&quot;value&quot;:true},&quot;MaximumSlack&quot;:{&quot;type&quot;:&quot;float&quot;,&quot;value&quot;:5},&quot;MinimumLoopBeats&quot;:{&quot;type&quot;:&quot;std::uint32_t&quot;,&quot;value&quot;:8},&quot;MusicRetargetingEnabled&quot;:{&quot;type&quot;:&quot;bool&quot;,&quot;value&quot;:false},&quot;SourceClipDuration&quot;:{&quot;type&quot;:&quot;array::std::int64_t&quot;,&quot;value&quot;:[-1,1]},&quot;SourceClipRangeStart&quot;:{&quot;type&quot;:&quot;array::std::int64_t&quot;,&quot;value&quot;:[0,1]},&quot;SplitIntoSegments&quot;:{&quot;type&quot;:&quot;bool&quot;,&quot;value&quot;:false},&quot;StartAtBeginning&quot;:{&quot;type&quot;:&quot;bool&quot;,&quot;value&quot;:true},&quot;StretchExact&quot;:{&quot;type&quot;:&quot;bool&quot;,&quot;value&quot;:false},&quot;TargetDuration&quot;:{&quot;type&quot;:&quot;array::std::int64_t&quot;,&quot;value&quot;:[0,1]},&quot;TimbreWeight&quot;:{&quot;type&quot;:&quot;float&quot;,&quot;value&quot;:1}}},&quot;ClipRetargetSourceSettings&quot;:{&quot;type&quot;:&quot;tree::any&quot;,&quot;value&quot;:{&quot;ComponentKeyframeInfoKey&quot;:{&quot;type&quot;:&quot;tree::any&quot;,&quot;value&quot;:{}}}},&quot;RemixResults&quot;:{&quot;type&quot;:&quot;tree::any&quot;,&quot;value&quot;:{&quot;AnalysisDataGuid&quot;:{&quot;type&quot;:&quot;UTF16String&quot;,&quot;value&quot;:&quot;9c69bdd5-f6a3-4770-bef5-8cac6034a52f&quot;}}}}"/>
          <component componentGuid="bd311723-7d3a-45b1-ada6-5b7dc38b0c63" componentID="Audition.Fader" id="clipGain" name="volume" powered="true">
            <parameter index="0" name="volume" parameterValue="1"/>
            <parameter index="1" name="static gain" parameterValue="1"/>
          </component>
          <component componentGuid="a03baae2-c868-471f-9bd4-48bf2ed11593" componentID="Audition.Mute" id="clipMute" name="Mute" powered="true">
            <parameter index="0" parameterValue="0"/>
            <parameter index="1" name="mute" parameterValue="0"/>
          </component>
          <component componentGuid="3e4bb0b8-6a61-4a69-b9d3-cf3986260770" componentID="Audition.StereoPanner" id="clipPan" name="StereoPanner" powered="true">
            <parameter index="0" name="Pan" parameterValue="0"/>
          </component>
          <fadeIn crossFadeLinkType="linkedAsymmetric" endPoint="0" shape="0" startPoint="0" type="cosine"/>
          <fadeOut crossFadeLinkType="linkedAsymmetric" endPoint="22375" shape="0" startPoint="22375" type="cosine"/>
          <editParameter parameterIndex="0" slotIndex="4294967281"/>
          <editParameter parameterIndex="0" slotIndex="4294967280"/>
          <channelMap>
            <channel index="0" sourceIndex="0"/>
            <channel index="1" sourceIndex="1"/>
          </channelMap>
        </audioClip>
        <audioClip clipAutoCrossfade="true" crossFadeHeadClipID="-1" crossFadeTailClipID="-1" endPoint="1810119" fileID="5" hue="-1" id="14" lockedInTime="false" looped="false" name="Sl_Kick_&amp;_Snare_145_03 48000 1" offline="false" select="true" sourceInPoint="0" sourceOutPoint="22375" startPoint="1787744" zOrder="112">
          <properties properties="{&quot;ClipRemixParameters&quot;:{&quot;type&quot;:&quot;tree::any&quot;,&quot;value&quot;:{&quot;ChromaWeight&quot;:{&quot;type&quot;:&quot;float&quot;,&quot;value&quot;:1},&quot;EditLength&quot;:{&quot;type&quot;:&quot;float&quot;,&quot;value&quot;:1},&quot;EndAtEnd&quot;:{&quot;type&quot;:&quot;bool&quot;,&quot;value&quot;:true},&quot;MaximumSlack&quot;:{&quot;type&quot;:&quot;float&quot;,&quot;value&quot;:5},&quot;MinimumLoopBeats&quot;:{&quot;type&quot;:&quot;std::uint32_t&quot;,&quot;value&quot;:8},&quot;MusicRetargetingEnabled&quot;:{&quot;type&quot;:&quot;bool&quot;,&quot;value&quot;:false},&quot;SourceClipDuration&quot;:{&quot;type&quot;:&quot;array::std::int64_t&quot;,&quot;value&quot;:[-1,1]},&quot;SourceClipRangeStart&quot;:{&quot;type&quot;:&quot;array::std::int64_t&quot;,&quot;value&quot;:[0,1]},&quot;SplitIntoSegments&quot;:{&quot;type&quot;:&quot;bool&quot;,&quot;value&quot;:false},&quot;StartAtBeginning&quot;:{&quot;type&quot;:&quot;bool&quot;,&quot;value&quot;:true},&quot;StretchExact&quot;:{&quot;type&quot;:&quot;bool&quot;,&quot;value&quot;:false},&quot;TargetDuration&quot;:{&quot;type&quot;:&quot;array::std::int64_t&quot;,&quot;value&quot;:[0,1]},&quot;TimbreWeight&quot;:{&quot;type&quot;:&quot;float&quot;,&quot;value&quot;:1}}},&quot;ClipRetargetSourceSettings&quot;:{&quot;type&quot;:&quot;tree::any&quot;,&quot;value&quot;:{&quot;ComponentKeyframeInfoKey&quot;:{&quot;type&quot;:&quot;tree::any&quot;,&quot;value&quot;:{}}}},&quot;RemixResults&quot;:{&quot;type&quot;:&quot;tree::any&quot;,&quot;value&quot;:{&quot;AnalysisDataGuid&quot;:{&quot;type&quot;:&quot;UTF16String&quot;,&quot;value&quot;:&quot;9c69bdd5-f6a3-4770-bef5-8cac6034a52f&quot;}}}}"/>
          <component componentGuid="2268a7ce-207f-4f12-8f77-45df75cc2eec" componentID="Audition.Fader" id="clipGain" name="volume" powered="true">
            <parameter index="0" name="volume" parameterValue="1"/>
            <parameter index="1" name="static gain" parameterValue="1"/>
          </component>
          <component componentGuid="1d41d697-efd1-48d1-991d-1020032009d8" componentID="Audition.Mute" id="clipMute" name="Mute" powered="true">
            <parameter index="0" parameterValue="0"/>
            <parameter index="1" name="mute" parameterValue="0"/>
          </component>
          <component componentGuid="f2627be1-64ec-456a-b6d5-826f4f764059" componentID="Audition.StereoPanner" id="clipPan" name="StereoPanner" powered="true">
            <parameter index="0" name="Pan" parameterValue="0"/>
          </component>
          <fadeIn crossFadeLinkType="linkedAsymmetric" endPoint="0" shape="0" startPoint="0" type="cosine"/>
          <fadeOut crossFadeLinkType="linkedAsymmetric" endPoint="22375" shape="0" startPoint="22375" type="cosine"/>
          <editParameter parameterIndex="0" slotIndex="4294967281"/>
          <editParameter parameterIndex="0" slotIndex="4294967280"/>
          <channelMap>
            <channel index="0" sourceIndex="0"/>
            <channel index="1" sourceIndex="1"/>
          </channelMap>
        </audioClip>
        <audioClip clipAutoCrossfade="true" crossFadeHeadClipID="-1" crossFadeTailClipID="-1" endPoint="1832494" fileID="5" hue="-1" id="15" lockedInTime="false" looped="false" name="Sl_Kick_&amp;_Snare_145_03 48000 1" offline="false" select="true" sourceInPoint="0" sourceOutPoint="22375" startPoint="1810119" zOrder="113">
          <properties properties="{&quot;ClipRemixParameters&quot;:{&quot;type&quot;:&quot;tree::any&quot;,&quot;value&quot;:{&quot;ChromaWeight&quot;:{&quot;type&quot;:&quot;float&quot;,&quot;value&quot;:1},&quot;EditLength&quot;:{&quot;type&quot;:&quot;float&quot;,&quot;value&quot;:1},&quot;EndAtEnd&quot;:{&quot;type&quot;:&quot;bool&quot;,&quot;value&quot;:true},&quot;MaximumSlack&quot;:{&quot;type&quot;:&quot;float&quot;,&quot;value&quot;:5},&quot;MinimumLoopBeats&quot;:{&quot;type&quot;:&quot;std::uint32_t&quot;,&quot;value&quot;:8},&quot;MusicRetargetingEnabled&quot;:{&quot;type&quot;:&quot;bool&quot;,&quot;value&quot;:false},&quot;SourceClipDuration&quot;:{&quot;type&quot;:&quot;array::std::int64_t&quot;,&quot;value&quot;:[-1,1]},&quot;SourceClipRangeStart&quot;:{&quot;type&quot;:&quot;array::std::int64_t&quot;,&quot;value&quot;:[0,1]},&quot;SplitIntoSegments&quot;:{&quot;type&quot;:&quot;bool&quot;,&quot;value&quot;:false},&quot;StartAtBeginning&quot;:{&quot;type&quot;:&quot;bool&quot;,&quot;value&quot;:true},&quot;StretchExact&quot;:{&quot;type&quot;:&quot;bool&quot;,&quot;value&quot;:false},&quot;TargetDuration&quot;:{&quot;type&quot;:&quot;array::std::int64_t&quot;,&quot;value&quot;:[0,1]},&quot;TimbreWeight&quot;:{&quot;type&quot;:&quot;float&quot;,&quot;value&quot;:1}}},&quot;ClipRetargetSourceSettings&quot;:{&quot;type&quot;:&quot;tree::any&quot;,&quot;value&quot;:{&quot;ComponentKeyframeInfoKey&quot;:{&quot;type&quot;:&quot;tree::any&quot;,&quot;value&quot;:{}}}},&quot;RemixResults&quot;:{&quot;type&quot;:&quot;tree::any&quot;,&quot;value&quot;:{&quot;AnalysisDataGuid&quot;:{&quot;type&quot;:&quot;UTF16String&quot;,&quot;value&quot;:&quot;9c69bdd5-f6a3-4770-bef5-8cac6034a52f&quot;}}}}"/>
          <component componentGuid="cfc50463-6874-4865-8be8-7c46fcc5a4f8" componentID="Audition.Fader" id="clipGain" name="volume" powered="true">
            <parameter index="0" name="volume" parameterValue="1"/>
            <parameter index="1" name="static gain" parameterValue="1"/>
          </component>
          <component componentGuid="2a2efc0b-0dec-4d9a-8193-2bb5166f0e70" componentID="Audition.Mute" id="clipMute" name="Mute" powered="true">
            <parameter index="0" parameterValue="0"/>
            <parameter index="1" name="mute" parameterValue="0"/>
          </component>
          <component componentGuid="3d8d11ae-4a74-498c-839b-d72751d06165" componentID="Audition.StereoPanner" id="clipPan" name="StereoPanner" powered="true">
            <parameter index="0" name="Pan" parameterValue="0"/>
          </component>
          <fadeIn crossFadeLinkType="linkedAsymmetric" endPoint="0" shape="0" startPoint="0" type="cosine"/>
          <fadeOut crossFadeLinkType="linkedAsymmetric" endPoint="22375" shape="0" startPoint="22375" type="cosine"/>
          <editParameter parameterIndex="0" slotIndex="4294967281"/>
          <editParameter parameterIndex="0" slotIndex="4294967280"/>
          <channelMap>
            <channel index="0" sourceIndex="0"/>
            <channel index="1" sourceIndex="1"/>
          </channelMap>
        </audioClip>
        <audioClip clipAutoCrossfade="true" crossFadeHeadClipID="-1" crossFadeTailClipID="-1" endPoint="1854869" fileID="5" hue="-1" id="16" lockedInTime="false" looped="false" name="Sl_Kick_&amp;_Snare_145_03 48000 1" offline="false" select="true" sourceInPoint="0" sourceOutPoint="22375" startPoint="1832494" zOrder="114">
          <properties properties="{&quot;ClipRemixParameters&quot;:{&quot;type&quot;:&quot;tree::any&quot;,&quot;value&quot;:{&quot;ChromaWeight&quot;:{&quot;type&quot;:&quot;float&quot;,&quot;value&quot;:1},&quot;EditLength&quot;:{&quot;type&quot;:&quot;float&quot;,&quot;value&quot;:1},&quot;EndAtEnd&quot;:{&quot;type&quot;:&quot;bool&quot;,&quot;value&quot;:true},&quot;MaximumSlack&quot;:{&quot;type&quot;:&quot;float&quot;,&quot;value&quot;:5},&quot;MinimumLoopBeats&quot;:{&quot;type&quot;:&quot;std::uint32_t&quot;,&quot;value&quot;:8},&quot;MusicRetargetingEnabled&quot;:{&quot;type&quot;:&quot;bool&quot;,&quot;value&quot;:false},&quot;SourceClipDuration&quot;:{&quot;type&quot;:&quot;array::std::int64_t&quot;,&quot;value&quot;:[-1,1]},&quot;SourceClipRangeStart&quot;:{&quot;type&quot;:&quot;array::std::int64_t&quot;,&quot;value&quot;:[0,1]},&quot;SplitIntoSegments&quot;:{&quot;type&quot;:&quot;bool&quot;,&quot;value&quot;:false},&quot;StartAtBeginning&quot;:{&quot;type&quot;:&quot;bool&quot;,&quot;value&quot;:true},&quot;StretchExact&quot;:{&quot;type&quot;:&quot;bool&quot;,&quot;value&quot;:false},&quot;TargetDuration&quot;:{&quot;type&quot;:&quot;array::std::int64_t&quot;,&quot;value&quot;:[0,1]},&quot;TimbreWeight&quot;:{&quot;type&quot;:&quot;float&quot;,&quot;value&quot;:1}}},&quot;ClipRetargetSourceSettings&quot;:{&quot;type&quot;:&quot;tree::any&quot;,&quot;value&quot;:{&quot;ComponentKeyframeInfoKey&quot;:{&quot;type&quot;:&quot;tree::any&quot;,&quot;value&quot;:{}}}},&quot;RemixResults&quot;:{&quot;type&quot;:&quot;tree::any&quot;,&quot;value&quot;:{&quot;AnalysisDataGuid&quot;:{&quot;type&quot;:&quot;UTF16String&quot;,&quot;value&quot;:&quot;9c69bdd5-f6a3-4770-bef5-8cac6034a52f&quot;}}}}"/>
          <component componentGuid="fc8b0729-4e82-445a-835e-a345df2682b2" componentID="Audition.Fader" id="clipGain" name="volume" powered="true">
            <parameter index="0" name="volume" parameterValue="1"/>
            <parameter index="1" name="static gain" parameterValue="1"/>
          </component>
          <component componentGuid="800b4bde-99e2-4642-9e18-0b759eb9c5c6" componentID="Audition.Mute" id="clipMute" name="Mute" powered="true">
            <parameter index="0" parameterValue="0"/>
            <parameter index="1" name="mute" parameterValue="0"/>
          </component>
          <component componentGuid="abe4aa4e-0eeb-476b-8233-263972bc1499" componentID="Audition.StereoPanner" id="clipPan" name="StereoPanner" powered="true">
            <parameter index="0" name="Pan" parameterValue="0"/>
          </component>
          <fadeIn crossFadeLinkType="linkedAsymmetric" endPoint="0" shape="0" startPoint="0" type="cosine"/>
          <fadeOut crossFadeLinkType="linkedAsymmetric" endPoint="22375" shape="0" startPoint="22375" type="cosine"/>
          <editParameter parameterIndex="0" slotIndex="4294967281"/>
          <editParameter parameterIndex="0" slotIndex="4294967280"/>
          <channelMap>
            <channel index="0" sourceIndex="0"/>
            <channel index="1" sourceIndex="1"/>
          </channelMap>
        </audioClip>
        <audioClip clipAutoCrossfade="true" crossFadeHeadClipID="-1" crossFadeTailClipID="-1" endPoint="1877244" fileID="5" hue="-1" id="17" lockedInTime="false" looped="false" name="Sl_Kick_&amp;_Snare_145_03 48000 1" offline="false" select="true" sourceInPoint="0" sourceOutPoint="22375" startPoint="1854869" zOrder="115">
          <properties properties="{&quot;ClipRemixParameters&quot;:{&quot;type&quot;:&quot;tree::any&quot;,&quot;value&quot;:{&quot;ChromaWeight&quot;:{&quot;type&quot;:&quot;float&quot;,&quot;value&quot;:1},&quot;EditLength&quot;:{&quot;type&quot;:&quot;float&quot;,&quot;value&quot;:1},&quot;EndAtEnd&quot;:{&quot;type&quot;:&quot;bool&quot;,&quot;value&quot;:true},&quot;MaximumSlack&quot;:{&quot;type&quot;:&quot;float&quot;,&quot;value&quot;:5},&quot;MinimumLoopBeats&quot;:{&quot;type&quot;:&quot;std::uint32_t&quot;,&quot;value&quot;:8},&quot;MusicRetargetingEnabled&quot;:{&quot;type&quot;:&quot;bool&quot;,&quot;value&quot;:false},&quot;SourceClipDuration&quot;:{&quot;type&quot;:&quot;array::std::int64_t&quot;,&quot;value&quot;:[-1,1]},&quot;SourceClipRangeStart&quot;:{&quot;type&quot;:&quot;array::std::int64_t&quot;,&quot;value&quot;:[0,1]},&quot;SplitIntoSegments&quot;:{&quot;type&quot;:&quot;bool&quot;,&quot;value&quot;:false},&quot;StartAtBeginning&quot;:{&quot;type&quot;:&quot;bool&quot;,&quot;value&quot;:true},&quot;StretchExact&quot;:{&quot;type&quot;:&quot;bool&quot;,&quot;value&quot;:false},&quot;TargetDuration&quot;:{&quot;type&quot;:&quot;array::std::int64_t&quot;,&quot;value&quot;:[0,1]},&quot;TimbreWeight&quot;:{&quot;type&quot;:&quot;float&quot;,&quot;value&quot;:1}}},&quot;ClipRetargetSourceSettings&quot;:{&quot;type&quot;:&quot;tree::any&quot;,&quot;value&quot;:{&quot;ComponentKeyframeInfoKey&quot;:{&quot;type&quot;:&quot;tree::any&quot;,&quot;value&quot;:{}}}},&quot;RemixResults&quot;:{&quot;type&quot;:&quot;tree::any&quot;,&quot;value&quot;:{&quot;AnalysisDataGuid&quot;:{&quot;type&quot;:&quot;UTF16String&quot;,&quot;value&quot;:&quot;9c69bdd5-f6a3-4770-bef5-8cac6034a52f&quot;}}}}"/>
          <component componentGuid="10000be4-5f9e-4951-bbde-8b2b2a118bff" componentID="Audition.Fader" id="clipGain" name="volume" powered="true">
            <parameter index="0" name="volume" parameterValue="1"/>
            <parameter index="1" name="static gain" parameterValue="1"/>
          </component>
          <component componentGuid="44b5adce-7569-42f7-9259-d7508e05361b" componentID="Audition.Mute" id="clipMute" name="Mute" powered="true">
            <parameter index="0" parameterValue="0"/>
            <parameter index="1" name="mute" parameterValue="0"/>
          </component>
          <component componentGuid="f3f924a4-c286-4776-b647-a2c10661eee8" componentID="Audition.StereoPanner" id="clipPan" name="StereoPanner" powered="true">
            <parameter index="0" name="Pan" parameterValue="0"/>
          </component>
          <fadeIn crossFadeLinkType="linkedAsymmetric" endPoint="0" shape="0" startPoint="0" type="cosine"/>
          <fadeOut crossFadeLinkType="linkedAsymmetric" endPoint="22375" shape="0" startPoint="22375" type="cosine"/>
          <editParameter parameterIndex="0" slotIndex="4294967281"/>
          <editParameter parameterIndex="0" slotIndex="4294967280"/>
          <channelMap>
            <channel index="0" sourceIndex="0"/>
            <channel index="1" sourceIndex="1"/>
          </channelMap>
        </audioClip>
        <audioClip clipAutoCrossfade="true" crossFadeHeadClipID="-1" crossFadeTailClipID="-1" endPoint="1899619" fileID="5" hue="-1" id="18" lockedInTime="false" looped="false" name="Sl_Kick_&amp;_Snare_145_03 48000 1" offline="false" select="true" sourceInPoint="0" sourceOutPoint="22375" startPoint="1877244" zOrder="116">
          <properties properties="{&quot;ClipRemixParameters&quot;:{&quot;type&quot;:&quot;tree::any&quot;,&quot;value&quot;:{&quot;ChromaWeight&quot;:{&quot;type&quot;:&quot;float&quot;,&quot;value&quot;:1},&quot;EditLength&quot;:{&quot;type&quot;:&quot;float&quot;,&quot;value&quot;:1},&quot;EndAtEnd&quot;:{&quot;type&quot;:&quot;bool&quot;,&quot;value&quot;:true},&quot;MaximumSlack&quot;:{&quot;type&quot;:&quot;float&quot;,&quot;value&quot;:5},&quot;MinimumLoopBeats&quot;:{&quot;type&quot;:&quot;std::uint32_t&quot;,&quot;value&quot;:8},&quot;MusicRetargetingEnabled&quot;:{&quot;type&quot;:&quot;bool&quot;,&quot;value&quot;:false},&quot;SourceClipDuration&quot;:{&quot;type&quot;:&quot;array::std::int64_t&quot;,&quot;value&quot;:[-1,1]},&quot;SourceClipRangeStart&quot;:{&quot;type&quot;:&quot;array::std::int64_t&quot;,&quot;value&quot;:[0,1]},&quot;SplitIntoSegments&quot;:{&quot;type&quot;:&quot;bool&quot;,&quot;value&quot;:false},&quot;StartAtBeginning&quot;:{&quot;type&quot;:&quot;bool&quot;,&quot;value&quot;:true},&quot;StretchExact&quot;:{&quot;type&quot;:&quot;bool&quot;,&quot;value&quot;:false},&quot;TargetDuration&quot;:{&quot;type&quot;:&quot;array::std::int64_t&quot;,&quot;value&quot;:[0,1]},&quot;TimbreWeight&quot;:{&quot;type&quot;:&quot;float&quot;,&quot;value&quot;:1}}},&quot;ClipRetargetSourceSettings&quot;:{&quot;type&quot;:&quot;tree::any&quot;,&quot;value&quot;:{&quot;ComponentKeyframeInfoKey&quot;:{&quot;type&quot;:&quot;tree::any&quot;,&quot;value&quot;:{}}}},&quot;RemixResults&quot;:{&quot;type&quot;:&quot;tree::any&quot;,&quot;value&quot;:{&quot;AnalysisDataGuid&quot;:{&quot;type&quot;:&quot;UTF16String&quot;,&quot;value&quot;:&quot;9c69bdd5-f6a3-4770-bef5-8cac6034a52f&quot;}}}}"/>
          <component componentGuid="7e233d21-b9b6-45d1-aeae-aeb1237617b2" componentID="Audition.Fader" id="clipGain" name="volume" powered="true">
            <parameter index="0" name="volume" parameterValue="1"/>
            <parameter index="1" name="static gain" parameterValue="1"/>
          </component>
          <component componentGuid="e5edb279-4a7a-4d1e-b2d6-468634a3260d" componentID="Audition.Mute" id="clipMute" name="Mute" powered="true">
            <parameter index="0" parameterValue="0"/>
            <parameter index="1" name="mute" parameterValue="0"/>
          </component>
          <component componentGuid="557452f6-3b3b-4216-bf22-c244467e6698" componentID="Audition.StereoPanner" id="clipPan" name="StereoPanner" powered="true">
            <parameter index="0" name="Pan" parameterValue="0"/>
          </component>
          <fadeIn crossFadeLinkType="linkedAsymmetric" endPoint="0" shape="0" startPoint="0" type="cosine"/>
          <fadeOut crossFadeLinkType="linkedAsymmetric" endPoint="22375" shape="0" startPoint="22375" type="cosine"/>
          <editParameter parameterIndex="0" slotIndex="4294967281"/>
          <editParameter parameterIndex="0" slotIndex="4294967280"/>
          <channelMap>
            <channel index="0" sourceIndex="0"/>
            <channel index="1" sourceIndex="1"/>
          </channelMap>
        </audioClip>
        <audioClip clipAutoCrossfade="true" crossFadeHeadClipID="-1" crossFadeTailClipID="-1" endPoint="1921994" fileID="5" hue="-1" id="19" lockedInTime="false" looped="false" name="Sl_Kick_&amp;_Snare_145_03 48000 1" offline="false" select="true" sourceInPoint="0" sourceOutPoint="22375" startPoint="1899619" zOrder="117">
          <properties properties="{&quot;ClipRemixParameters&quot;:{&quot;type&quot;:&quot;tree::any&quot;,&quot;value&quot;:{&quot;ChromaWeight&quot;:{&quot;type&quot;:&quot;float&quot;,&quot;value&quot;:1},&quot;EditLength&quot;:{&quot;type&quot;:&quot;float&quot;,&quot;value&quot;:1},&quot;EndAtEnd&quot;:{&quot;type&quot;:&quot;bool&quot;,&quot;value&quot;:true},&quot;MaximumSlack&quot;:{&quot;type&quot;:&quot;float&quot;,&quot;value&quot;:5},&quot;MinimumLoopBeats&quot;:{&quot;type&quot;:&quot;std::uint32_t&quot;,&quot;value&quot;:8},&quot;MusicRetargetingEnabled&quot;:{&quot;type&quot;:&quot;bool&quot;,&quot;value&quot;:false},&quot;SourceClipDuration&quot;:{&quot;type&quot;:&quot;array::std::int64_t&quot;,&quot;value&quot;:[-1,1]},&quot;SourceClipRangeStart&quot;:{&quot;type&quot;:&quot;array::std::int64_t&quot;,&quot;value&quot;:[0,1]},&quot;SplitIntoSegments&quot;:{&quot;type&quot;:&quot;bool&quot;,&quot;value&quot;:false},&quot;StartAtBeginning&quot;:{&quot;type&quot;:&quot;bool&quot;,&quot;value&quot;:true},&quot;StretchExact&quot;:{&quot;type&quot;:&quot;bool&quot;,&quot;value&quot;:false},&quot;TargetDuration&quot;:{&quot;type&quot;:&quot;array::std::int64_t&quot;,&quot;value&quot;:[0,1]},&quot;TimbreWeight&quot;:{&quot;type&quot;:&quot;float&quot;,&quot;value&quot;:1}}},&quot;ClipRetargetSourceSettings&quot;:{&quot;type&quot;:&quot;tree::any&quot;,&quot;value&quot;:{&quot;ComponentKeyframeInfoKey&quot;:{&quot;type&quot;:&quot;tree::any&quot;,&quot;value&quot;:{}}}},&quot;RemixResults&quot;:{&quot;type&quot;:&quot;tree::any&quot;,&quot;value&quot;:{&quot;AnalysisDataGuid&quot;:{&quot;type&quot;:&quot;UTF16String&quot;,&quot;value&quot;:&quot;9c69bdd5-f6a3-4770-bef5-8cac6034a52f&quot;}}}}"/>
          <component componentGuid="dde6f003-03bf-46a8-9502-c2f4bcde76f2" componentID="Audition.Fader" id="clipGain" name="volume" powered="true">
            <parameter index="0" name="volume" parameterValue="1"/>
            <parameter index="1" name="static gain" parameterValue="1"/>
          </component>
          <component componentGuid="86071a46-4a09-4307-a008-bce9ebb2ad1d" componentID="Audition.Mute" id="clipMute" name="Mute" powered="true">
            <parameter index="0" parameterValue="0"/>
            <parameter index="1" name="mute" parameterValue="0"/>
          </component>
          <component componentGuid="f0be5580-fab8-47f5-a2f5-fefaf2adf431" componentID="Audition.StereoPanner" id="clipPan" name="StereoPanner" powered="true">
            <parameter index="0" name="Pan" parameterValue="0"/>
          </component>
          <fadeIn crossFadeLinkType="linkedAsymmetric" endPoint="0" shape="0" startPoint="0" type="cosine"/>
          <fadeOut crossFadeLinkType="linkedAsymmetric" endPoint="22375" shape="0" startPoint="22375" type="cosine"/>
          <editParameter parameterIndex="0" slotIndex="4294967281"/>
          <editParameter parameterIndex="0" slotIndex="4294967280"/>
          <channelMap>
            <channel index="0" sourceIndex="0"/>
            <channel index="1" sourceIndex="1"/>
          </channelMap>
        </audioClip>
        <audioClip clipAutoCrossfade="true" crossFadeHeadClipID="-1" crossFadeTailClipID="-1" endPoint="1944369" fileID="5" hue="-1" id="20" lockedInTime="false" looped="false" name="Sl_Kick_&amp;_Snare_145_03 48000 1" offline="false" select="true" sourceInPoint="0" sourceOutPoint="22375" startPoint="1921994" zOrder="118">
          <properties properties="{&quot;ClipRemixParameters&quot;:{&quot;type&quot;:&quot;tree::any&quot;,&quot;value&quot;:{&quot;ChromaWeight&quot;:{&quot;type&quot;:&quot;float&quot;,&quot;value&quot;:1},&quot;EditLength&quot;:{&quot;type&quot;:&quot;float&quot;,&quot;value&quot;:1},&quot;EndAtEnd&quot;:{&quot;type&quot;:&quot;bool&quot;,&quot;value&quot;:true},&quot;MaximumSlack&quot;:{&quot;type&quot;:&quot;float&quot;,&quot;value&quot;:5},&quot;MinimumLoopBeats&quot;:{&quot;type&quot;:&quot;std::uint32_t&quot;,&quot;value&quot;:8},&quot;MusicRetargetingEnabled&quot;:{&quot;type&quot;:&quot;bool&quot;,&quot;value&quot;:false},&quot;SourceClipDuration&quot;:{&quot;type&quot;:&quot;array::std::int64_t&quot;,&quot;value&quot;:[-1,1]},&quot;SourceClipRangeStart&quot;:{&quot;type&quot;:&quot;array::std::int64_t&quot;,&quot;value&quot;:[0,1]},&quot;SplitIntoSegments&quot;:{&quot;type&quot;:&quot;bool&quot;,&quot;value&quot;:false},&quot;StartAtBeginning&quot;:{&quot;type&quot;:&quot;bool&quot;,&quot;value&quot;:true},&quot;StretchExact&quot;:{&quot;type&quot;:&quot;bool&quot;,&quot;value&quot;:false},&quot;TargetDuration&quot;:{&quot;type&quot;:&quot;array::std::int64_t&quot;,&quot;value&quot;:[0,1]},&quot;TimbreWeight&quot;:{&quot;type&quot;:&quot;float&quot;,&quot;value&quot;:1}}},&quot;ClipRetargetSourceSettings&quot;:{&quot;type&quot;:&quot;tree::any&quot;,&quot;value&quot;:{&quot;ComponentKeyframeInfoKey&quot;:{&quot;type&quot;:&quot;tree::any&quot;,&quot;value&quot;:{}}}},&quot;RemixResults&quot;:{&quot;type&quot;:&quot;tree::any&quot;,&quot;value&quot;:{&quot;AnalysisDataGuid&quot;:{&quot;type&quot;:&quot;UTF16String&quot;,&quot;value&quot;:&quot;9c69bdd5-f6a3-4770-bef5-8cac6034a52f&quot;}}}}"/>
          <component componentGuid="d138ec90-9493-47a5-9356-b62a40942b50" componentID="Audition.Fader" id="clipGain" name="volume" powered="true">
            <parameter index="0" name="volume" parameterValue="1"/>
            <parameter index="1" name="static gain" parameterValue="1"/>
          </component>
          <component componentGuid="3ffdecc0-7c2f-43be-8200-620386cf5160" componentID="Audition.Mute" id="clipMute" name="Mute" powered="true">
            <parameter index="0" parameterValue="0"/>
            <parameter index="1" name="mute" parameterValue="0"/>
          </component>
          <component componentGuid="152f644c-86b6-4a1a-9759-dce14e3dfb4e" componentID="Audition.StereoPanner" id="clipPan" name="StereoPanner" powered="true">
            <parameter index="0" name="Pan" parameterValue="0"/>
          </component>
          <fadeIn crossFadeLinkType="linkedAsymmetric" endPoint="0" shape="0" startPoint="0" type="cosine"/>
          <fadeOut crossFadeLinkType="linkedAsymmetric" endPoint="22375" shape="0" startPoint="22375" type="cosine"/>
          <editParameter parameterIndex="0" slotIndex="4294967281"/>
          <editParameter parameterIndex="0" slotIndex="4294967280"/>
          <channelMap>
            <channel index="0" sourceIndex="0"/>
            <channel index="1" sourceIndex="1"/>
          </channelMap>
        </audioClip>
        <audioClip clipAutoCrossfade="true" crossFadeHeadClipID="-1" crossFadeTailClipID="-1" endPoint="1969529" fileID="5" hue="-1" id="21" lockedInTime="false" looped="false" name="Sl_Kick_&amp;_Snare_145_03 48000 1" offline="false" select="true" sourceInPoint="0" sourceOutPoint="22375" startPoint="1947154" zOrder="119">
          <properties properties="{&quot;ClipRemixParameters&quot;:{&quot;type&quot;:&quot;tree::any&quot;,&quot;value&quot;:{&quot;ChromaWeight&quot;:{&quot;type&quot;:&quot;float&quot;,&quot;value&quot;:1},&quot;EditLength&quot;:{&quot;type&quot;:&quot;float&quot;,&quot;value&quot;:1},&quot;EndAtEnd&quot;:{&quot;type&quot;:&quot;bool&quot;,&quot;value&quot;:true},&quot;MaximumSlack&quot;:{&quot;type&quot;:&quot;float&quot;,&quot;value&quot;:5},&quot;MinimumLoopBeats&quot;:{&quot;type&quot;:&quot;std::uint32_t&quot;,&quot;value&quot;:8},&quot;MusicRetargetingEnabled&quot;:{&quot;type&quot;:&quot;bool&quot;,&quot;value&quot;:false},&quot;SourceClipDuration&quot;:{&quot;type&quot;:&quot;array::std::int64_t&quot;,&quot;value&quot;:[-1,1]},&quot;SourceClipRangeStart&quot;:{&quot;type&quot;:&quot;array::std::int64_t&quot;,&quot;value&quot;:[0,1]},&quot;SplitIntoSegments&quot;:{&quot;type&quot;:&quot;bool&quot;,&quot;value&quot;:false},&quot;StartAtBeginning&quot;:{&quot;type&quot;:&quot;bool&quot;,&quot;value&quot;:true},&quot;StretchExact&quot;:{&quot;type&quot;:&quot;bool&quot;,&quot;value&quot;:false},&quot;TargetDuration&quot;:{&quot;type&quot;:&quot;array::std::int64_t&quot;,&quot;value&quot;:[0,1]},&quot;TimbreWeight&quot;:{&quot;type&quot;:&quot;float&quot;,&quot;value&quot;:1}}},&quot;ClipRetargetSourceSettings&quot;:{&quot;type&quot;:&quot;tree::any&quot;,&quot;value&quot;:{&quot;ComponentKeyframeInfoKey&quot;:{&quot;type&quot;:&quot;tree::any&quot;,&quot;value&quot;:{}}}},&quot;RemixResults&quot;:{&quot;type&quot;:&quot;tree::any&quot;,&quot;value&quot;:{&quot;AnalysisDataGuid&quot;:{&quot;type&quot;:&quot;UTF16String&quot;,&quot;value&quot;:&quot;9c69bdd5-f6a3-4770-bef5-8cac6034a52f&quot;}}}}"/>
          <component componentGuid="20e269b7-1a71-4b37-932e-5381158f5b78" componentID="Audition.Fader" id="clipGain" name="volume" powered="true">
            <parameter index="0" name="volume" parameterValue="1"/>
            <parameter index="1" name="static gain" parameterValue="1"/>
          </component>
          <component componentGuid="0fd55acb-62fb-4ebc-bbe5-d9fa3258bc87" componentID="Audition.Mute" id="clipMute" name="Mute" powered="true">
            <parameter index="0" parameterValue="0"/>
            <parameter index="1" name="mute" parameterValue="0"/>
          </component>
          <component componentGuid="62777f3f-44cb-4ee5-a875-0e0d70ee282d" componentID="Audition.StereoPanner" id="clipPan" name="StereoPanner" powered="true">
            <parameter index="0" name="Pan" parameterValue="0"/>
          </component>
          <fadeIn crossFadeLinkType="linkedAsymmetric" endPoint="0" shape="0" startPoint="0" type="cosine"/>
          <fadeOut crossFadeLinkType="linkedAsymmetric" endPoint="22375" shape="0" startPoint="22375" type="cosine"/>
          <editParameter parameterIndex="0" slotIndex="4294967281"/>
          <editParameter parameterIndex="0" slotIndex="4294967280"/>
          <channelMap>
            <channel index="0" sourceIndex="0"/>
            <channel index="1" sourceIndex="1"/>
          </channelMap>
        </audioClip>
        <audioClip clipAutoCrossfade="true" crossFadeHeadClipID="-1" crossFadeTailClipID="-1" endPoint="1991904" fileID="5" hue="-1" id="22" lockedInTime="false" looped="false" name="Sl_Kick_&amp;_Snare_145_03 48000 1" offline="false" select="true" sourceInPoint="0" sourceOutPoint="22375" startPoint="1969529" zOrder="120">
          <properties properties="{&quot;ClipRemixParameters&quot;:{&quot;type&quot;:&quot;tree::any&quot;,&quot;value&quot;:{&quot;ChromaWeight&quot;:{&quot;type&quot;:&quot;float&quot;,&quot;value&quot;:1},&quot;EditLength&quot;:{&quot;type&quot;:&quot;float&quot;,&quot;value&quot;:1},&quot;EndAtEnd&quot;:{&quot;type&quot;:&quot;bool&quot;,&quot;value&quot;:true},&quot;MaximumSlack&quot;:{&quot;type&quot;:&quot;float&quot;,&quot;value&quot;:5},&quot;MinimumLoopBeats&quot;:{&quot;type&quot;:&quot;std::uint32_t&quot;,&quot;value&quot;:8},&quot;MusicRetargetingEnabled&quot;:{&quot;type&quot;:&quot;bool&quot;,&quot;value&quot;:false},&quot;SourceClipDuration&quot;:{&quot;type&quot;:&quot;array::std::int64_t&quot;,&quot;value&quot;:[-1,1]},&quot;SourceClipRangeStart&quot;:{&quot;type&quot;:&quot;array::std::int64_t&quot;,&quot;value&quot;:[0,1]},&quot;SplitIntoSegments&quot;:{&quot;type&quot;:&quot;bool&quot;,&quot;value&quot;:false},&quot;StartAtBeginning&quot;:{&quot;type&quot;:&quot;bool&quot;,&quot;value&quot;:true},&quot;StretchExact&quot;:{&quot;type&quot;:&quot;bool&quot;,&quot;value&quot;:false},&quot;TargetDuration&quot;:{&quot;type&quot;:&quot;array::std::int64_t&quot;,&quot;value&quot;:[0,1]},&quot;TimbreWeight&quot;:{&quot;type&quot;:&quot;float&quot;,&quot;value&quot;:1}}},&quot;ClipRetargetSourceSettings&quot;:{&quot;type&quot;:&quot;tree::any&quot;,&quot;value&quot;:{&quot;ComponentKeyframeInfoKey&quot;:{&quot;type&quot;:&quot;tree::any&quot;,&quot;value&quot;:{}}}},&quot;RemixResults&quot;:{&quot;type&quot;:&quot;tree::any&quot;,&quot;value&quot;:{&quot;AnalysisDataGuid&quot;:{&quot;type&quot;:&quot;UTF16String&quot;,&quot;value&quot;:&quot;9c69bdd5-f6a3-4770-bef5-8cac6034a52f&quot;}}}}"/>
          <component componentGuid="03051950-d6ae-45cb-8494-4737baec7bc9" componentID="Audition.Fader" id="clipGain" name="volume" powered="true">
            <parameter index="0" name="volume" parameterValue="1"/>
            <parameter index="1" name="static gain" parameterValue="1"/>
          </component>
          <component componentGuid="79aa716b-cca6-40a4-9be9-acfe07436676" componentID="Audition.Mute" id="clipMute" name="Mute" powered="true">
            <parameter index="0" parameterValue="0"/>
            <parameter index="1" name="mute" parameterValue="0"/>
          </component>
          <component componentGuid="8d085e22-8273-4a4f-ab23-d0889135b409" componentID="Audition.StereoPanner" id="clipPan" name="StereoPanner" powered="true">
            <parameter index="0" name="Pan" parameterValue="0"/>
          </component>
          <fadeIn crossFadeLinkType="linkedAsymmetric" endPoint="0" shape="0" startPoint="0" type="cosine"/>
          <fadeOut crossFadeLinkType="linkedAsymmetric" endPoint="22375" shape="0" startPoint="22375" type="cosine"/>
          <editParameter parameterIndex="0" slotIndex="4294967281"/>
          <editParameter parameterIndex="0" slotIndex="4294967280"/>
          <channelMap>
            <channel index="0" sourceIndex="0"/>
            <channel index="1" sourceIndex="1"/>
          </channelMap>
        </audioClip>
        <audioClip clipAutoCrossfade="true" crossFadeHeadClipID="-1" crossFadeTailClipID="-1" endPoint="2014279" fileID="5" hue="-1" id="23" lockedInTime="false" looped="false" name="Sl_Kick_&amp;_Snare_145_03 48000 1" offline="false" select="true" sourceInPoint="0" sourceOutPoint="22375" startPoint="1991904" zOrder="121">
          <properties properties="{&quot;ClipRemixParameters&quot;:{&quot;type&quot;:&quot;tree::any&quot;,&quot;value&quot;:{&quot;ChromaWeight&quot;:{&quot;type&quot;:&quot;float&quot;,&quot;value&quot;:1},&quot;EditLength&quot;:{&quot;type&quot;:&quot;float&quot;,&quot;value&quot;:1},&quot;EndAtEnd&quot;:{&quot;type&quot;:&quot;bool&quot;,&quot;value&quot;:true},&quot;MaximumSlack&quot;:{&quot;type&quot;:&quot;float&quot;,&quot;value&quot;:5},&quot;MinimumLoopBeats&quot;:{&quot;type&quot;:&quot;std::uint32_t&quot;,&quot;value&quot;:8},&quot;MusicRetargetingEnabled&quot;:{&quot;type&quot;:&quot;bool&quot;,&quot;value&quot;:false},&quot;SourceClipDuration&quot;:{&quot;type&quot;:&quot;array::std::int64_t&quot;,&quot;value&quot;:[-1,1]},&quot;SourceClipRangeStart&quot;:{&quot;type&quot;:&quot;array::std::int64_t&quot;,&quot;value&quot;:[0,1]},&quot;SplitIntoSegments&quot;:{&quot;type&quot;:&quot;bool&quot;,&quot;value&quot;:false},&quot;StartAtBeginning&quot;:{&quot;type&quot;:&quot;bool&quot;,&quot;value&quot;:true},&quot;StretchExact&quot;:{&quot;type&quot;:&quot;bool&quot;,&quot;value&quot;:false},&quot;TargetDuration&quot;:{&quot;type&quot;:&quot;array::std::int64_t&quot;,&quot;value&quot;:[0,1]},&quot;TimbreWeight&quot;:{&quot;type&quot;:&quot;float&quot;,&quot;value&quot;:1}}},&quot;ClipRetargetSourceSettings&quot;:{&quot;type&quot;:&quot;tree::any&quot;,&quot;value&quot;:{&quot;ComponentKeyframeInfoKey&quot;:{&quot;type&quot;:&quot;tree::any&quot;,&quot;value&quot;:{}}}},&quot;RemixResults&quot;:{&quot;type&quot;:&quot;tree::any&quot;,&quot;value&quot;:{&quot;AnalysisDataGuid&quot;:{&quot;type&quot;:&quot;UTF16String&quot;,&quot;value&quot;:&quot;9c69bdd5-f6a3-4770-bef5-8cac6034a52f&quot;}}}}"/>
          <component componentGuid="e9ad08e0-d450-4dec-84ba-d724fa510df0" componentID="Audition.Fader" id="clipGain" name="volume" powered="true">
            <parameter index="0" name="volume" parameterValue="1"/>
            <parameter index="1" name="static gain" parameterValue="1"/>
          </component>
          <component componentGuid="b13dd409-7023-4d1e-9568-bd3ec4127b0b" componentID="Audition.Mute" id="clipMute" name="Mute" powered="true">
            <parameter index="0" parameterValue="0"/>
            <parameter index="1" name="mute" parameterValue="0"/>
          </component>
          <component componentGuid="c2787b81-abe2-41d8-b060-7b5dafa4c676" componentID="Audition.StereoPanner" id="clipPan" name="StereoPanner" powered="true">
            <parameter index="0" name="Pan" parameterValue="0"/>
          </component>
          <fadeIn crossFadeLinkType="linkedAsymmetric" endPoint="0" shape="0" startPoint="0" type="cosine"/>
          <fadeOut crossFadeLinkType="linkedAsymmetric" endPoint="22375" shape="0" startPoint="22375" type="cosine"/>
          <editParameter parameterIndex="0" slotIndex="4294967281"/>
          <editParameter parameterIndex="0" slotIndex="4294967280"/>
          <channelMap>
            <channel index="0" sourceIndex="0"/>
            <channel index="1" sourceIndex="1"/>
          </channelMap>
        </audioClip>
        <audioClip clipAutoCrossfade="true" crossFadeHeadClipID="-1" crossFadeTailClipID="-1" endPoint="2036654" fileID="5" hue="-1" id="24" lockedInTime="false" looped="false" name="Sl_Kick_&amp;_Snare_145_03 48000 1" offline="false" select="true" sourceInPoint="0" sourceOutPoint="22375" startPoint="2014279" zOrder="122">
          <properties properties="{&quot;ClipRemixParameters&quot;:{&quot;type&quot;:&quot;tree::any&quot;,&quot;value&quot;:{&quot;ChromaWeight&quot;:{&quot;type&quot;:&quot;float&quot;,&quot;value&quot;:1},&quot;EditLength&quot;:{&quot;type&quot;:&quot;float&quot;,&quot;value&quot;:1},&quot;EndAtEnd&quot;:{&quot;type&quot;:&quot;bool&quot;,&quot;value&quot;:true},&quot;MaximumSlack&quot;:{&quot;type&quot;:&quot;float&quot;,&quot;value&quot;:5},&quot;MinimumLoopBeats&quot;:{&quot;type&quot;:&quot;std::uint32_t&quot;,&quot;value&quot;:8},&quot;MusicRetargetingEnabled&quot;:{&quot;type&quot;:&quot;bool&quot;,&quot;value&quot;:false},&quot;SourceClipDuration&quot;:{&quot;type&quot;:&quot;array::std::int64_t&quot;,&quot;value&quot;:[-1,1]},&quot;SourceClipRangeStart&quot;:{&quot;type&quot;:&quot;array::std::int64_t&quot;,&quot;value&quot;:[0,1]},&quot;SplitIntoSegments&quot;:{&quot;type&quot;:&quot;bool&quot;,&quot;value&quot;:false},&quot;StartAtBeginning&quot;:{&quot;type&quot;:&quot;bool&quot;,&quot;value&quot;:true},&quot;StretchExact&quot;:{&quot;type&quot;:&quot;bool&quot;,&quot;value&quot;:false},&quot;TargetDuration&quot;:{&quot;type&quot;:&quot;array::std::int64_t&quot;,&quot;value&quot;:[0,1]},&quot;TimbreWeight&quot;:{&quot;type&quot;:&quot;float&quot;,&quot;value&quot;:1}}},&quot;ClipRetargetSourceSettings&quot;:{&quot;type&quot;:&quot;tree::any&quot;,&quot;value&quot;:{&quot;ComponentKeyframeInfoKey&quot;:{&quot;type&quot;:&quot;tree::any&quot;,&quot;value&quot;:{}}}},&quot;RemixResults&quot;:{&quot;type&quot;:&quot;tree::any&quot;,&quot;value&quot;:{&quot;AnalysisDataGuid&quot;:{&quot;type&quot;:&quot;UTF16String&quot;,&quot;value&quot;:&quot;9c69bdd5-f6a3-4770-bef5-8cac6034a52f&quot;}}}}"/>
          <component componentGuid="051afacf-8569-48cd-b189-8dff33735a92" componentID="Audition.Fader" id="clipGain" name="volume" powered="true">
            <parameter index="0" name="volume" parameterValue="1"/>
            <parameter index="1" name="static gain" parameterValue="1"/>
          </component>
          <component componentGuid="a746cfa8-2482-44e8-8fc1-75ceb5734aeb" componentID="Audition.Mute" id="clipMute" name="Mute" powered="true">
            <parameter index="0" parameterValue="0"/>
            <parameter index="1" name="mute" parameterValue="0"/>
          </component>
          <component componentGuid="677aac71-4a4b-41a8-a12f-2d3c3b90d8e3" componentID="Audition.StereoPanner" id="clipPan" name="StereoPanner" powered="true">
            <parameter index="0" name="Pan" parameterValue="0"/>
          </component>
          <fadeIn crossFadeLinkType="linkedAsymmetric" endPoint="0" shape="0" startPoint="0" type="cosine"/>
          <fadeOut crossFadeLinkType="linkedAsymmetric" endPoint="22375" shape="0" startPoint="22375" type="cosine"/>
          <editParameter parameterIndex="0" slotIndex="4294967281"/>
          <editParameter parameterIndex="0" slotIndex="4294967280"/>
          <channelMap>
            <channel index="0" sourceIndex="0"/>
            <channel index="1" sourceIndex="1"/>
          </channelMap>
        </audioClip>
        <audioClip clipAutoCrossfade="true" crossFadeHeadClipID="-1" crossFadeTailClipID="-1" endPoint="2059029" fileID="5" hue="-1" id="25" lockedInTime="false" looped="false" name="Sl_Kick_&amp;_Snare_145_03 48000 1" offline="false" select="true" sourceInPoint="0" sourceOutPoint="22375" startPoint="2036654" zOrder="123">
          <properties properties="{&quot;ClipRemixParameters&quot;:{&quot;type&quot;:&quot;tree::any&quot;,&quot;value&quot;:{&quot;ChromaWeight&quot;:{&quot;type&quot;:&quot;float&quot;,&quot;value&quot;:1},&quot;EditLength&quot;:{&quot;type&quot;:&quot;float&quot;,&quot;value&quot;:1},&quot;EndAtEnd&quot;:{&quot;type&quot;:&quot;bool&quot;,&quot;value&quot;:true},&quot;MaximumSlack&quot;:{&quot;type&quot;:&quot;float&quot;,&quot;value&quot;:5},&quot;MinimumLoopBeats&quot;:{&quot;type&quot;:&quot;std::uint32_t&quot;,&quot;value&quot;:8},&quot;MusicRetargetingEnabled&quot;:{&quot;type&quot;:&quot;bool&quot;,&quot;value&quot;:false},&quot;SourceClipDuration&quot;:{&quot;type&quot;:&quot;array::std::int64_t&quot;,&quot;value&quot;:[-1,1]},&quot;SourceClipRangeStart&quot;:{&quot;type&quot;:&quot;array::std::int64_t&quot;,&quot;value&quot;:[0,1]},&quot;SplitIntoSegments&quot;:{&quot;type&quot;:&quot;bool&quot;,&quot;value&quot;:false},&quot;StartAtBeginning&quot;:{&quot;type&quot;:&quot;bool&quot;,&quot;value&quot;:true},&quot;StretchExact&quot;:{&quot;type&quot;:&quot;bool&quot;,&quot;value&quot;:false},&quot;TargetDuration&quot;:{&quot;type&quot;:&quot;array::std::int64_t&quot;,&quot;value&quot;:[0,1]},&quot;TimbreWeight&quot;:{&quot;type&quot;:&quot;float&quot;,&quot;value&quot;:1}}},&quot;ClipRetargetSourceSettings&quot;:{&quot;type&quot;:&quot;tree::any&quot;,&quot;value&quot;:{&quot;ComponentKeyframeInfoKey&quot;:{&quot;type&quot;:&quot;tree::any&quot;,&quot;value&quot;:{}}}},&quot;RemixResults&quot;:{&quot;type&quot;:&quot;tree::any&quot;,&quot;value&quot;:{&quot;AnalysisDataGuid&quot;:{&quot;type&quot;:&quot;UTF16String&quot;,&quot;value&quot;:&quot;9c69bdd5-f6a3-4770-bef5-8cac6034a52f&quot;}}}}"/>
          <component componentGuid="47363e5a-34c8-4fa3-9389-586886cad2a7" componentID="Audition.Fader" id="clipGain" name="volume" powered="true">
            <parameter index="0" name="volume" parameterValue="1"/>
            <parameter index="1" name="static gain" parameterValue="1"/>
          </component>
          <component componentGuid="bb67da60-8d64-43b7-9581-b074ebcaaaab" componentID="Audition.Mute" id="clipMute" name="Mute" powered="true">
            <parameter index="0" parameterValue="0"/>
            <parameter index="1" name="mute" parameterValue="0"/>
          </component>
          <component componentGuid="03eac0e8-5cfa-4816-9098-d321a99b52da" componentID="Audition.StereoPanner" id="clipPan" name="StereoPanner" powered="true">
            <parameter index="0" name="Pan" parameterValue="0"/>
          </component>
          <fadeIn crossFadeLinkType="linkedAsymmetric" endPoint="0" shape="0" startPoint="0" type="cosine"/>
          <fadeOut crossFadeLinkType="linkedAsymmetric" endPoint="22375" shape="0" startPoint="22375" type="cosine"/>
          <editParameter parameterIndex="0" slotIndex="4294967281"/>
          <editParameter parameterIndex="0" slotIndex="4294967280"/>
          <channelMap>
            <channel index="0" sourceIndex="0"/>
            <channel index="1" sourceIndex="1"/>
          </channelMap>
        </audioClip>
        <audioClip clipAutoCrossfade="true" crossFadeHeadClipID="-1" crossFadeTailClipID="-1" endPoint="2081404" fileID="5" hue="-1" id="26" lockedInTime="false" looped="false" name="Sl_Kick_&amp;_Snare_145_03 48000 1" offline="false" select="true" sourceInPoint="0" sourceOutPoint="22375" startPoint="2059029" zOrder="124">
          <properties properties="{&quot;ClipRemixParameters&quot;:{&quot;type&quot;:&quot;tree::any&quot;,&quot;value&quot;:{&quot;ChromaWeight&quot;:{&quot;type&quot;:&quot;float&quot;,&quot;value&quot;:1},&quot;EditLength&quot;:{&quot;type&quot;:&quot;float&quot;,&quot;value&quot;:1},&quot;EndAtEnd&quot;:{&quot;type&quot;:&quot;bool&quot;,&quot;value&quot;:true},&quot;MaximumSlack&quot;:{&quot;type&quot;:&quot;float&quot;,&quot;value&quot;:5},&quot;MinimumLoopBeats&quot;:{&quot;type&quot;:&quot;std::uint32_t&quot;,&quot;value&quot;:8},&quot;MusicRetargetingEnabled&quot;:{&quot;type&quot;:&quot;bool&quot;,&quot;value&quot;:false},&quot;SourceClipDuration&quot;:{&quot;type&quot;:&quot;array::std::int64_t&quot;,&quot;value&quot;:[-1,1]},&quot;SourceClipRangeStart&quot;:{&quot;type&quot;:&quot;array::std::int64_t&quot;,&quot;value&quot;:[0,1]},&quot;SplitIntoSegments&quot;:{&quot;type&quot;:&quot;bool&quot;,&quot;value&quot;:false},&quot;StartAtBeginning&quot;:{&quot;type&quot;:&quot;bool&quot;,&quot;value&quot;:true},&quot;StretchExact&quot;:{&quot;type&quot;:&quot;bool&quot;,&quot;value&quot;:false},&quot;TargetDuration&quot;:{&quot;type&quot;:&quot;array::std::int64_t&quot;,&quot;value&quot;:[0,1]},&quot;TimbreWeight&quot;:{&quot;type&quot;:&quot;float&quot;,&quot;value&quot;:1}}},&quot;ClipRetargetSourceSettings&quot;:{&quot;type&quot;:&quot;tree::any&quot;,&quot;value&quot;:{&quot;ComponentKeyframeInfoKey&quot;:{&quot;type&quot;:&quot;tree::any&quot;,&quot;value&quot;:{}}}},&quot;RemixResults&quot;:{&quot;type&quot;:&quot;tree::any&quot;,&quot;value&quot;:{&quot;AnalysisDataGuid&quot;:{&quot;type&quot;:&quot;UTF16String&quot;,&quot;value&quot;:&quot;9c69bdd5-f6a3-4770-bef5-8cac6034a52f&quot;}}}}"/>
          <component componentGuid="ebb31a7e-8620-4376-8b0e-c194818fef06" componentID="Audition.Fader" id="clipGain" name="volume" powered="true">
            <parameter index="0" name="volume" parameterValue="1"/>
            <parameter index="1" name="static gain" parameterValue="1"/>
          </component>
          <component componentGuid="5f32272b-6de4-400d-8682-673a01f1cf3b" componentID="Audition.Mute" id="clipMute" name="Mute" powered="true">
            <parameter index="0" parameterValue="0"/>
            <parameter index="1" name="mute" parameterValue="0"/>
          </component>
          <component componentGuid="89274bc9-8137-4f49-a75f-e024e7f2aa51" componentID="Audition.StereoPanner" id="clipPan" name="StereoPanner" powered="true">
            <parameter index="0" name="Pan" parameterValue="0"/>
          </component>
          <fadeIn crossFadeLinkType="linkedAsymmetric" endPoint="0" shape="0" startPoint="0" type="cosine"/>
          <fadeOut crossFadeLinkType="linkedAsymmetric" endPoint="22375" shape="0" startPoint="22375" type="cosine"/>
          <editParameter parameterIndex="0" slotIndex="4294967281"/>
          <editParameter parameterIndex="0" slotIndex="4294967280"/>
          <channelMap>
            <channel index="0" sourceIndex="0"/>
            <channel index="1" sourceIndex="1"/>
          </channelMap>
        </audioClip>
        <audioClip clipAutoCrossfade="true" crossFadeHeadClipID="-1" crossFadeTailClipID="-1" endPoint="2103779" fileID="5" hue="-1" id="27" lockedInTime="false" looped="false" name="Sl_Kick_&amp;_Snare_145_03 48000 1" offline="false" select="true" sourceInPoint="0" sourceOutPoint="22375" startPoint="2081404" zOrder="125">
          <properties properties="{&quot;ClipRemixParameters&quot;:{&quot;type&quot;:&quot;tree::any&quot;,&quot;value&quot;:{&quot;ChromaWeight&quot;:{&quot;type&quot;:&quot;float&quot;,&quot;value&quot;:1},&quot;EditLength&quot;:{&quot;type&quot;:&quot;float&quot;,&quot;value&quot;:1},&quot;EndAtEnd&quot;:{&quot;type&quot;:&quot;bool&quot;,&quot;value&quot;:true},&quot;MaximumSlack&quot;:{&quot;type&quot;:&quot;float&quot;,&quot;value&quot;:5},&quot;MinimumLoopBeats&quot;:{&quot;type&quot;:&quot;std::uint32_t&quot;,&quot;value&quot;:8},&quot;MusicRetargetingEnabled&quot;:{&quot;type&quot;:&quot;bool&quot;,&quot;value&quot;:false},&quot;SourceClipDuration&quot;:{&quot;type&quot;:&quot;array::std::int64_t&quot;,&quot;value&quot;:[-1,1]},&quot;SourceClipRangeStart&quot;:{&quot;type&quot;:&quot;array::std::int64_t&quot;,&quot;value&quot;:[0,1]},&quot;SplitIntoSegments&quot;:{&quot;type&quot;:&quot;bool&quot;,&quot;value&quot;:false},&quot;StartAtBeginning&quot;:{&quot;type&quot;:&quot;bool&quot;,&quot;value&quot;:true},&quot;StretchExact&quot;:{&quot;type&quot;:&quot;bool&quot;,&quot;value&quot;:false},&quot;TargetDuration&quot;:{&quot;type&quot;:&quot;array::std::int64_t&quot;,&quot;value&quot;:[0,1]},&quot;TimbreWeight&quot;:{&quot;type&quot;:&quot;float&quot;,&quot;value&quot;:1}}},&quot;ClipRetargetSourceSettings&quot;:{&quot;type&quot;:&quot;tree::any&quot;,&quot;value&quot;:{&quot;ComponentKeyframeInfoKey&quot;:{&quot;type&quot;:&quot;tree::any&quot;,&quot;value&quot;:{}}}},&quot;RemixResults&quot;:{&quot;type&quot;:&quot;tree::any&quot;,&quot;value&quot;:{&quot;AnalysisDataGuid&quot;:{&quot;type&quot;:&quot;UTF16String&quot;,&quot;value&quot;:&quot;9c69bdd5-f6a3-4770-bef5-8cac6034a52f&quot;}}}}"/>
          <component componentGuid="ac9b8fdf-bc44-4607-ad4e-530ab6ae090f" componentID="Audition.Fader" id="clipGain" name="volume" powered="true">
            <parameter index="0" name="volume" parameterValue="1"/>
            <parameter index="1" name="static gain" parameterValue="1"/>
          </component>
          <component componentGuid="61ff3849-b21d-4717-bea2-88c567afe5cd" componentID="Audition.Mute" id="clipMute" name="Mute" powered="true">
            <parameter index="0" parameterValue="0"/>
            <parameter index="1" name="mute" parameterValue="0"/>
          </component>
          <component componentGuid="d4f90b62-9f33-4292-8117-3fd5b871389a" componentID="Audition.StereoPanner" id="clipPan" name="StereoPanner" powered="true">
            <parameter index="0" name="Pan" parameterValue="0"/>
          </component>
          <fadeIn crossFadeLinkType="linkedAsymmetric" endPoint="0" shape="0" startPoint="0" type="cosine"/>
          <fadeOut crossFadeLinkType="linkedAsymmetric" endPoint="22375" shape="0" startPoint="22375" type="cosine"/>
          <editParameter parameterIndex="0" slotIndex="4294967281"/>
          <editParameter parameterIndex="0" slotIndex="4294967280"/>
          <channelMap>
            <channel index="0" sourceIndex="0"/>
            <channel index="1" sourceIndex="1"/>
          </channelMap>
        </audioClip>
        <audioClip clipAutoCrossfade="true" crossFadeHeadClipID="-1" crossFadeTailClipID="-1" endPoint="2126154" fileID="5" hue="-1" id="28" lockedInTime="false" looped="false" name="Sl_Kick_&amp;_Snare_145_03 48000 1" offline="false" select="true" sourceInPoint="0" sourceOutPoint="22375" startPoint="2103779" zOrder="126">
          <properties properties="{&quot;ClipRemixParameters&quot;:{&quot;type&quot;:&quot;tree::any&quot;,&quot;value&quot;:{&quot;ChromaWeight&quot;:{&quot;type&quot;:&quot;float&quot;,&quot;value&quot;:1},&quot;EditLength&quot;:{&quot;type&quot;:&quot;float&quot;,&quot;value&quot;:1},&quot;EndAtEnd&quot;:{&quot;type&quot;:&quot;bool&quot;,&quot;value&quot;:true},&quot;MaximumSlack&quot;:{&quot;type&quot;:&quot;float&quot;,&quot;value&quot;:5},&quot;MinimumLoopBeats&quot;:{&quot;type&quot;:&quot;std::uint32_t&quot;,&quot;value&quot;:8},&quot;MusicRetargetingEnabled&quot;:{&quot;type&quot;:&quot;bool&quot;,&quot;value&quot;:false},&quot;SourceClipDuration&quot;:{&quot;type&quot;:&quot;array::std::int64_t&quot;,&quot;value&quot;:[-1,1]},&quot;SourceClipRangeStart&quot;:{&quot;type&quot;:&quot;array::std::int64_t&quot;,&quot;value&quot;:[0,1]},&quot;SplitIntoSegments&quot;:{&quot;type&quot;:&quot;bool&quot;,&quot;value&quot;:false},&quot;StartAtBeginning&quot;:{&quot;type&quot;:&quot;bool&quot;,&quot;value&quot;:true},&quot;StretchExact&quot;:{&quot;type&quot;:&quot;bool&quot;,&quot;value&quot;:false},&quot;TargetDuration&quot;:{&quot;type&quot;:&quot;array::std::int64_t&quot;,&quot;value&quot;:[0,1]},&quot;TimbreWeight&quot;:{&quot;type&quot;:&quot;float&quot;,&quot;value&quot;:1}}},&quot;ClipRetargetSourceSettings&quot;:{&quot;type&quot;:&quot;tree::any&quot;,&quot;value&quot;:{&quot;ComponentKeyframeInfoKey&quot;:{&quot;type&quot;:&quot;tree::any&quot;,&quot;value&quot;:{}}}},&quot;RemixResults&quot;:{&quot;type&quot;:&quot;tree::any&quot;,&quot;value&quot;:{&quot;AnalysisDataGuid&quot;:{&quot;type&quot;:&quot;UTF16String&quot;,&quot;value&quot;:&quot;9c69bdd5-f6a3-4770-bef5-8cac6034a52f&quot;}}}}"/>
          <component componentGuid="ee195ecd-6c8b-40bf-93c8-1b2b84f8eddd" componentID="Audition.Fader" id="clipGain" name="volume" powered="true">
            <parameter index="0" name="volume" parameterValue="1"/>
            <parameter index="1" name="static gain" parameterValue="1"/>
          </component>
          <component componentGuid="6dcdcac8-5541-4c35-bf35-599c7913b16b" componentID="Audition.Mute" id="clipMute" name="Mute" powered="true">
            <parameter index="0" parameterValue="0"/>
            <parameter index="1" name="mute" parameterValue="0"/>
          </component>
          <component componentGuid="13137e33-b4fc-4db4-8725-b09ce7ce450d" componentID="Audition.StereoPanner" id="clipPan" name="StereoPanner" powered="true">
            <parameter index="0" name="Pan" parameterValue="0"/>
          </component>
          <fadeIn crossFadeLinkType="linkedAsymmetric" endPoint="0" shape="0" startPoint="0" type="cosine"/>
          <fadeOut crossFadeLinkType="linkedAsymmetric" endPoint="22375" shape="0" startPoint="22375" type="cosine"/>
          <editParameter parameterIndex="0" slotIndex="4294967281"/>
          <editParameter parameterIndex="0" slotIndex="4294967280"/>
          <channelMap>
            <channel index="0" sourceIndex="0"/>
            <channel index="1" sourceIndex="1"/>
          </channelMap>
        </audioClip>
        <audioClip clipAutoCrossfade="true" crossFadeHeadClipID="-1" crossFadeTailClipID="-1" endPoint="2148529" fileID="5" hue="-1" id="29" lockedInTime="false" looped="false" name="Sl_Kick_&amp;_Snare_145_03 48000 1" offline="false" select="true" sourceInPoint="0" sourceOutPoint="22375" startPoint="2126154" zOrder="127">
          <properties properties="{&quot;ClipRemixParameters&quot;:{&quot;type&quot;:&quot;tree::any&quot;,&quot;value&quot;:{&quot;ChromaWeight&quot;:{&quot;type&quot;:&quot;float&quot;,&quot;value&quot;:1},&quot;EditLength&quot;:{&quot;type&quot;:&quot;float&quot;,&quot;value&quot;:1},&quot;EndAtEnd&quot;:{&quot;type&quot;:&quot;bool&quot;,&quot;value&quot;:true},&quot;MaximumSlack&quot;:{&quot;type&quot;:&quot;float&quot;,&quot;value&quot;:5},&quot;MinimumLoopBeats&quot;:{&quot;type&quot;:&quot;std::uint32_t&quot;,&quot;value&quot;:8},&quot;MusicRetargetingEnabled&quot;:{&quot;type&quot;:&quot;bool&quot;,&quot;value&quot;:false},&quot;SourceClipDuration&quot;:{&quot;type&quot;:&quot;array::std::int64_t&quot;,&quot;value&quot;:[-1,1]},&quot;SourceClipRangeStart&quot;:{&quot;type&quot;:&quot;array::std::int64_t&quot;,&quot;value&quot;:[0,1]},&quot;SplitIntoSegments&quot;:{&quot;type&quot;:&quot;bool&quot;,&quot;value&quot;:false},&quot;StartAtBeginning&quot;:{&quot;type&quot;:&quot;bool&quot;,&quot;value&quot;:true},&quot;StretchExact&quot;:{&quot;type&quot;:&quot;bool&quot;,&quot;value&quot;:false},&quot;TargetDuration&quot;:{&quot;type&quot;:&quot;array::std::int64_t&quot;,&quot;value&quot;:[0,1]},&quot;TimbreWeight&quot;:{&quot;type&quot;:&quot;float&quot;,&quot;value&quot;:1}}},&quot;ClipRetargetSourceSettings&quot;:{&quot;type&quot;:&quot;tree::any&quot;,&quot;value&quot;:{&quot;ComponentKeyframeInfoKey&quot;:{&quot;type&quot;:&quot;tree::any&quot;,&quot;value&quot;:{}}}},&quot;RemixResults&quot;:{&quot;type&quot;:&quot;tree::any&quot;,&quot;value&quot;:{&quot;AnalysisDataGuid&quot;:{&quot;type&quot;:&quot;UTF16String&quot;,&quot;value&quot;:&quot;9c69bdd5-f6a3-4770-bef5-8cac6034a52f&quot;}}}}"/>
          <component componentGuid="6f7b0edc-a82c-4680-af80-08060f5ba2c9" componentID="Audition.Fader" id="clipGain" name="volume" powered="true">
            <parameter index="0" name="volume" parameterValue="1"/>
            <parameter index="1" name="static gain" parameterValue="1"/>
          </component>
          <component componentGuid="719c1c30-7f0e-4745-bb25-1f2317015d6c" componentID="Audition.Mute" id="clipMute" name="Mute" powered="true">
            <parameter index="0" parameterValue="0"/>
            <parameter index="1" name="mute" parameterValue="0"/>
          </component>
          <component componentGuid="8a45d47e-5595-4af5-b8be-eb53c04ba848" componentID="Audition.StereoPanner" id="clipPan" name="StereoPanner" powered="true">
            <parameter index="0" name="Pan" parameterValue="0"/>
          </component>
          <fadeIn crossFadeLinkType="linkedAsymmetric" endPoint="0" shape="0" startPoint="0" type="cosine"/>
          <fadeOut crossFadeLinkType="linkedAsymmetric" endPoint="22375" shape="0" startPoint="22375" type="cosine"/>
          <editParameter parameterIndex="0" slotIndex="4294967281"/>
          <editParameter parameterIndex="0" slotIndex="4294967280"/>
          <channelMap>
            <channel index="0" sourceIndex="0"/>
            <channel index="1" sourceIndex="1"/>
          </channelMap>
        </audioClip>
        <audioClip clipAutoCrossfade="true" crossFadeHeadClipID="-1" crossFadeTailClipID="-1" endPoint="2170904" fileID="5" hue="-1" id="30" lockedInTime="false" looped="false" name="Sl_Kick_&amp;_Snare_145_03 48000 1" offline="false" select="true" sourceInPoint="0" sourceOutPoint="22375" startPoint="2148529" zOrder="128">
          <properties properties="{&quot;ClipRemixParameters&quot;:{&quot;type&quot;:&quot;tree::any&quot;,&quot;value&quot;:{&quot;ChromaWeight&quot;:{&quot;type&quot;:&quot;float&quot;,&quot;value&quot;:1},&quot;EditLength&quot;:{&quot;type&quot;:&quot;float&quot;,&quot;value&quot;:1},&quot;EndAtEnd&quot;:{&quot;type&quot;:&quot;bool&quot;,&quot;value&quot;:true},&quot;MaximumSlack&quot;:{&quot;type&quot;:&quot;float&quot;,&quot;value&quot;:5},&quot;MinimumLoopBeats&quot;:{&quot;type&quot;:&quot;std::uint32_t&quot;,&quot;value&quot;:8},&quot;MusicRetargetingEnabled&quot;:{&quot;type&quot;:&quot;bool&quot;,&quot;value&quot;:false},&quot;SourceClipDuration&quot;:{&quot;type&quot;:&quot;array::std::int64_t&quot;,&quot;value&quot;:[-1,1]},&quot;SourceClipRangeStart&quot;:{&quot;type&quot;:&quot;array::std::int64_t&quot;,&quot;value&quot;:[0,1]},&quot;SplitIntoSegments&quot;:{&quot;type&quot;:&quot;bool&quot;,&quot;value&quot;:false},&quot;StartAtBeginning&quot;:{&quot;type&quot;:&quot;bool&quot;,&quot;value&quot;:true},&quot;StretchExact&quot;:{&quot;type&quot;:&quot;bool&quot;,&quot;value&quot;:false},&quot;TargetDuration&quot;:{&quot;type&quot;:&quot;array::std::int64_t&quot;,&quot;value&quot;:[0,1]},&quot;TimbreWeight&quot;:{&quot;type&quot;:&quot;float&quot;,&quot;value&quot;:1}}},&quot;ClipRetargetSourceSettings&quot;:{&quot;type&quot;:&quot;tree::any&quot;,&quot;value&quot;:{&quot;ComponentKeyframeInfoKey&quot;:{&quot;type&quot;:&quot;tree::any&quot;,&quot;value&quot;:{}}}},&quot;RemixResults&quot;:{&quot;type&quot;:&quot;tree::any&quot;,&quot;value&quot;:{&quot;AnalysisDataGuid&quot;:{&quot;type&quot;:&quot;UTF16String&quot;,&quot;value&quot;:&quot;9c69bdd5-f6a3-4770-bef5-8cac6034a52f&quot;}}}}"/>
          <component componentGuid="da65ce25-447a-4971-87e5-6b15a91b9943" componentID="Audition.Fader" id="clipGain" name="volume" powered="true">
            <parameter index="0" name="volume" parameterValue="1"/>
            <parameter index="1" name="static gain" parameterValue="1"/>
          </component>
          <component componentGuid="1a54f3cd-4136-45da-8715-4618b7e86641" componentID="Audition.Mute" id="clipMute" name="Mute" powered="true">
            <parameter index="0" parameterValue="0"/>
            <parameter index="1" name="mute" parameterValue="0"/>
          </component>
          <component componentGuid="06d10eeb-a844-42f0-8d66-a6cbb73fedc8" componentID="Audition.StereoPanner" id="clipPan" name="StereoPanner" powered="true">
            <parameter index="0" name="Pan" parameterValue="0"/>
          </component>
          <fadeIn crossFadeLinkType="linkedAsymmetric" endPoint="0" shape="0" startPoint="0" type="cosine"/>
          <fadeOut crossFadeLinkType="linkedAsymmetric" endPoint="22375" shape="0" startPoint="22375" type="cosine"/>
          <editParameter parameterIndex="0" slotIndex="4294967281"/>
          <editParameter parameterIndex="0" slotIndex="4294967280"/>
          <channelMap>
            <channel index="0" sourceIndex="0"/>
            <channel index="1" sourceIndex="1"/>
          </channelMap>
        </audioClip>
        <audioClip clipAutoCrossfade="true" crossFadeHeadClipID="-1" crossFadeTailClipID="-1" endPoint="2193279" fileID="5" hue="-1" id="31" lockedInTime="false" looped="false" name="Sl_Kick_&amp;_Snare_145_03 48000 1" offline="false" select="true" sourceInPoint="0" sourceOutPoint="22375" startPoint="2170904" zOrder="129">
          <properties properties="{&quot;ClipRemixParameters&quot;:{&quot;type&quot;:&quot;tree::any&quot;,&quot;value&quot;:{&quot;ChromaWeight&quot;:{&quot;type&quot;:&quot;float&quot;,&quot;value&quot;:1},&quot;EditLength&quot;:{&quot;type&quot;:&quot;float&quot;,&quot;value&quot;:1},&quot;EndAtEnd&quot;:{&quot;type&quot;:&quot;bool&quot;,&quot;value&quot;:true},&quot;MaximumSlack&quot;:{&quot;type&quot;:&quot;float&quot;,&quot;value&quot;:5},&quot;MinimumLoopBeats&quot;:{&quot;type&quot;:&quot;std::uint32_t&quot;,&quot;value&quot;:8},&quot;MusicRetargetingEnabled&quot;:{&quot;type&quot;:&quot;bool&quot;,&quot;value&quot;:false},&quot;SourceClipDuration&quot;:{&quot;type&quot;:&quot;array::std::int64_t&quot;,&quot;value&quot;:[-1,1]},&quot;SourceClipRangeStart&quot;:{&quot;type&quot;:&quot;array::std::int64_t&quot;,&quot;value&quot;:[0,1]},&quot;SplitIntoSegments&quot;:{&quot;type&quot;:&quot;bool&quot;,&quot;value&quot;:false},&quot;StartAtBeginning&quot;:{&quot;type&quot;:&quot;bool&quot;,&quot;value&quot;:true},&quot;StretchExact&quot;:{&quot;type&quot;:&quot;bool&quot;,&quot;value&quot;:false},&quot;TargetDuration&quot;:{&quot;type&quot;:&quot;array::std::int64_t&quot;,&quot;value&quot;:[0,1]},&quot;TimbreWeight&quot;:{&quot;type&quot;:&quot;float&quot;,&quot;value&quot;:1}}},&quot;ClipRetargetSourceSettings&quot;:{&quot;type&quot;:&quot;tree::any&quot;,&quot;value&quot;:{&quot;ComponentKeyframeInfoKey&quot;:{&quot;type&quot;:&quot;tree::any&quot;,&quot;value&quot;:{}}}},&quot;RemixResults&quot;:{&quot;type&quot;:&quot;tree::any&quot;,&quot;value&quot;:{&quot;AnalysisDataGuid&quot;:{&quot;type&quot;:&quot;UTF16String&quot;,&quot;value&quot;:&quot;9c69bdd5-f6a3-4770-bef5-8cac6034a52f&quot;}}}}"/>
          <component componentGuid="02b23e12-1d8f-487f-9756-c97b8a13aafe" componentID="Audition.Fader" id="clipGain" name="volume" powered="true">
            <parameter index="0" name="volume" parameterValue="1"/>
            <parameter index="1" name="static gain" parameterValue="1"/>
          </component>
          <component componentGuid="c5aa9ce6-0eb9-4a62-ba9b-c40c2d294a2f" componentID="Audition.Mute" id="clipMute" name="Mute" powered="true">
            <parameter index="0" parameterValue="0"/>
            <parameter index="1" name="mute" parameterValue="0"/>
          </component>
          <component componentGuid="63fd7d3d-908e-4dd4-acc9-8d58824e2865" componentID="Audition.StereoPanner" id="clipPan" name="StereoPanner" powered="true">
            <parameter index="0" name="Pan" parameterValue="0"/>
          </component>
          <fadeIn crossFadeLinkType="linkedAsymmetric" endPoint="0" shape="0" startPoint="0" type="cosine"/>
          <fadeOut crossFadeLinkType="linkedAsymmetric" endPoint="22375" shape="0" startPoint="22375" type="cosine"/>
          <editParameter parameterIndex="0" slotIndex="4294967281"/>
          <editParameter parameterIndex="0" slotIndex="4294967280"/>
          <channelMap>
            <channel index="0" sourceIndex="0"/>
            <channel index="1" sourceIndex="1"/>
          </channelMap>
        </audioClip>
        <audioClip clipAutoCrossfade="true" crossFadeHeadClipID="-1" crossFadeTailClipID="-1" endPoint="2215654" fileID="5" hue="-1" id="32" lockedInTime="false" looped="false" name="Sl_Kick_&amp;_Snare_145_03 48000 1" offline="false" select="true" sourceInPoint="0" sourceOutPoint="22375" startPoint="2193279" zOrder="130">
          <properties properties="{&quot;ClipRemixParameters&quot;:{&quot;type&quot;:&quot;tree::any&quot;,&quot;value&quot;:{&quot;ChromaWeight&quot;:{&quot;type&quot;:&quot;float&quot;,&quot;value&quot;:1},&quot;EditLength&quot;:{&quot;type&quot;:&quot;float&quot;,&quot;value&quot;:1},&quot;EndAtEnd&quot;:{&quot;type&quot;:&quot;bool&quot;,&quot;value&quot;:true},&quot;MaximumSlack&quot;:{&quot;type&quot;:&quot;float&quot;,&quot;value&quot;:5},&quot;MinimumLoopBeats&quot;:{&quot;type&quot;:&quot;std::uint32_t&quot;,&quot;value&quot;:8},&quot;MusicRetargetingEnabled&quot;:{&quot;type&quot;:&quot;bool&quot;,&quot;value&quot;:false},&quot;SourceClipDuration&quot;:{&quot;type&quot;:&quot;array::std::int64_t&quot;,&quot;value&quot;:[-1,1]},&quot;SourceClipRangeStart&quot;:{&quot;type&quot;:&quot;array::std::int64_t&quot;,&quot;value&quot;:[0,1]},&quot;SplitIntoSegments&quot;:{&quot;type&quot;:&quot;bool&quot;,&quot;value&quot;:false},&quot;StartAtBeginning&quot;:{&quot;type&quot;:&quot;bool&quot;,&quot;value&quot;:true},&quot;StretchExact&quot;:{&quot;type&quot;:&quot;bool&quot;,&quot;value&quot;:false},&quot;TargetDuration&quot;:{&quot;type&quot;:&quot;array::std::int64_t&quot;,&quot;value&quot;:[0,1]},&quot;TimbreWeight&quot;:{&quot;type&quot;:&quot;float&quot;,&quot;value&quot;:1}}},&quot;ClipRetargetSourceSettings&quot;:{&quot;type&quot;:&quot;tree::any&quot;,&quot;value&quot;:{&quot;ComponentKeyframeInfoKey&quot;:{&quot;type&quot;:&quot;tree::any&quot;,&quot;value&quot;:{}}}},&quot;RemixResults&quot;:{&quot;type&quot;:&quot;tree::any&quot;,&quot;value&quot;:{&quot;AnalysisDataGuid&quot;:{&quot;type&quot;:&quot;UTF16String&quot;,&quot;value&quot;:&quot;9c69bdd5-f6a3-4770-bef5-8cac6034a52f&quot;}}}}"/>
          <component componentGuid="10800bf4-ca0a-4d5d-bc8f-ff58444450b6" componentID="Audition.Fader" id="clipGain" name="volume" powered="true">
            <parameter index="0" name="volume" parameterValue="1"/>
            <parameter index="1" name="static gain" parameterValue="1"/>
          </component>
          <component componentGuid="5dc4882d-d975-42f7-b743-89dafc5e4747" componentID="Audition.Mute" id="clipMute" name="Mute" powered="true">
            <parameter index="0" parameterValue="0"/>
            <parameter index="1" name="mute" parameterValue="0"/>
          </component>
          <component componentGuid="ac64f2e2-f28e-4543-ad7b-ddae66ac2f28" componentID="Audition.StereoPanner" id="clipPan" name="StereoPanner" powered="true">
            <parameter index="0" name="Pan" parameterValue="0"/>
          </component>
          <fadeIn crossFadeLinkType="linkedAsymmetric" endPoint="0" shape="0" startPoint="0" type="cosine"/>
          <fadeOut crossFadeLinkType="linkedAsymmetric" endPoint="22375" shape="0" startPoint="22375" type="cosine"/>
          <editParameter parameterIndex="0" slotIndex="4294967281"/>
          <editParameter parameterIndex="0" slotIndex="4294967280"/>
          <channelMap>
            <channel index="0" sourceIndex="0"/>
            <channel index="1" sourceIndex="1"/>
          </channelMap>
        </audioClip>
        <audioClip clipAutoCrossfade="true" crossFadeHeadClipID="-1" crossFadeTailClipID="-1" endPoint="2238029" fileID="5" hue="-1" id="33" lockedInTime="false" looped="false" name="Sl_Kick_&amp;_Snare_145_03 48000 1" offline="false" select="true" sourceInPoint="0" sourceOutPoint="22375" startPoint="2215654" zOrder="131">
          <properties properties="{&quot;ClipRemixParameters&quot;:{&quot;type&quot;:&quot;tree::any&quot;,&quot;value&quot;:{&quot;ChromaWeight&quot;:{&quot;type&quot;:&quot;float&quot;,&quot;value&quot;:1},&quot;EditLength&quot;:{&quot;type&quot;:&quot;float&quot;,&quot;value&quot;:1},&quot;EndAtEnd&quot;:{&quot;type&quot;:&quot;bool&quot;,&quot;value&quot;:true},&quot;MaximumSlack&quot;:{&quot;type&quot;:&quot;float&quot;,&quot;value&quot;:5},&quot;MinimumLoopBeats&quot;:{&quot;type&quot;:&quot;std::uint32_t&quot;,&quot;value&quot;:8},&quot;MusicRetargetingEnabled&quot;:{&quot;type&quot;:&quot;bool&quot;,&quot;value&quot;:false},&quot;SourceClipDuration&quot;:{&quot;type&quot;:&quot;array::std::int64_t&quot;,&quot;value&quot;:[-1,1]},&quot;SourceClipRangeStart&quot;:{&quot;type&quot;:&quot;array::std::int64_t&quot;,&quot;value&quot;:[0,1]},&quot;SplitIntoSegments&quot;:{&quot;type&quot;:&quot;bool&quot;,&quot;value&quot;:false},&quot;StartAtBeginning&quot;:{&quot;type&quot;:&quot;bool&quot;,&quot;value&quot;:true},&quot;StretchExact&quot;:{&quot;type&quot;:&quot;bool&quot;,&quot;value&quot;:false},&quot;TargetDuration&quot;:{&quot;type&quot;:&quot;array::std::int64_t&quot;,&quot;value&quot;:[0,1]},&quot;TimbreWeight&quot;:{&quot;type&quot;:&quot;float&quot;,&quot;value&quot;:1}}},&quot;ClipRetargetSourceSettings&quot;:{&quot;type&quot;:&quot;tree::any&quot;,&quot;value&quot;:{&quot;ComponentKeyframeInfoKey&quot;:{&quot;type&quot;:&quot;tree::any&quot;,&quot;value&quot;:{}}}},&quot;RemixResults&quot;:{&quot;type&quot;:&quot;tree::any&quot;,&quot;value&quot;:{&quot;AnalysisDataGuid&quot;:{&quot;type&quot;:&quot;UTF16String&quot;,&quot;value&quot;:&quot;9c69bdd5-f6a3-4770-bef5-8cac6034a52f&quot;}}}}"/>
          <component componentGuid="fe8fd11a-f8ff-4cf6-8bb6-d90c6b94cc2e" componentID="Audition.Fader" id="clipGain" name="volume" powered="true">
            <parameter index="0" name="volume" parameterValue="1"/>
            <parameter index="1" name="static gain" parameterValue="1"/>
          </component>
          <component componentGuid="c4b4cbb7-50a7-452b-83bf-f2b6daff6eb2" componentID="Audition.Mute" id="clipMute" name="Mute" powered="true">
            <parameter index="0" parameterValue="0"/>
            <parameter index="1" name="mute" parameterValue="0"/>
          </component>
          <component componentGuid="760d4e17-fa6c-4842-ac1c-11f282b1377c" componentID="Audition.StereoPanner" id="clipPan" name="StereoPanner" powered="true">
            <parameter index="0" name="Pan" parameterValue="0"/>
          </component>
          <fadeIn crossFadeLinkType="linkedAsymmetric" endPoint="0" shape="0" startPoint="0" type="cosine"/>
          <fadeOut crossFadeLinkType="linkedAsymmetric" endPoint="22375" shape="0" startPoint="22375" type="cosine"/>
          <editParameter parameterIndex="0" slotIndex="4294967281"/>
          <editParameter parameterIndex="0" slotIndex="4294967280"/>
          <channelMap>
            <channel index="0" sourceIndex="0"/>
            <channel index="1" sourceIndex="1"/>
          </channelMap>
        </audioClip>
        <audioClip clipAutoCrossfade="true" crossFadeHeadClipID="-1" crossFadeTailClipID="-1" endPoint="2260404" fileID="5" hue="-1" id="34" lockedInTime="false" looped="false" name="Sl_Kick_&amp;_Snare_145_03 48000 1" offline="false" select="true" sourceInPoint="0" sourceOutPoint="22375" startPoint="2238029" zOrder="132">
          <properties properties="{&quot;ClipRemixParameters&quot;:{&quot;type&quot;:&quot;tree::any&quot;,&quot;value&quot;:{&quot;ChromaWeight&quot;:{&quot;type&quot;:&quot;float&quot;,&quot;value&quot;:1},&quot;EditLength&quot;:{&quot;type&quot;:&quot;float&quot;,&quot;value&quot;:1},&quot;EndAtEnd&quot;:{&quot;type&quot;:&quot;bool&quot;,&quot;value&quot;:true},&quot;MaximumSlack&quot;:{&quot;type&quot;:&quot;float&quot;,&quot;value&quot;:5},&quot;MinimumLoopBeats&quot;:{&quot;type&quot;:&quot;std::uint32_t&quot;,&quot;value&quot;:8},&quot;MusicRetargetingEnabled&quot;:{&quot;type&quot;:&quot;bool&quot;,&quot;value&quot;:false},&quot;SourceClipDuration&quot;:{&quot;type&quot;:&quot;array::std::int64_t&quot;,&quot;value&quot;:[-1,1]},&quot;SourceClipRangeStart&quot;:{&quot;type&quot;:&quot;array::std::int64_t&quot;,&quot;value&quot;:[0,1]},&quot;SplitIntoSegments&quot;:{&quot;type&quot;:&quot;bool&quot;,&quot;value&quot;:false},&quot;StartAtBeginning&quot;:{&quot;type&quot;:&quot;bool&quot;,&quot;value&quot;:true},&quot;StretchExact&quot;:{&quot;type&quot;:&quot;bool&quot;,&quot;value&quot;:false},&quot;TargetDuration&quot;:{&quot;type&quot;:&quot;array::std::int64_t&quot;,&quot;value&quot;:[0,1]},&quot;TimbreWeight&quot;:{&quot;type&quot;:&quot;float&quot;,&quot;value&quot;:1}}},&quot;ClipRetargetSourceSettings&quot;:{&quot;type&quot;:&quot;tree::any&quot;,&quot;value&quot;:{&quot;ComponentKeyframeInfoKey&quot;:{&quot;type&quot;:&quot;tree::any&quot;,&quot;value&quot;:{}}}},&quot;RemixResults&quot;:{&quot;type&quot;:&quot;tree::any&quot;,&quot;value&quot;:{&quot;AnalysisDataGuid&quot;:{&quot;type&quot;:&quot;UTF16String&quot;,&quot;value&quot;:&quot;9c69bdd5-f6a3-4770-bef5-8cac6034a52f&quot;}}}}"/>
          <component componentGuid="b7cf2b4e-fd6e-4fed-9ade-16df1b652acf" componentID="Audition.Fader" id="clipGain" name="volume" powered="true">
            <parameter index="0" name="volume" parameterValue="1"/>
            <parameter index="1" name="static gain" parameterValue="1"/>
          </component>
          <component componentGuid="78d7a5c5-4b67-4909-bb96-587e85f56470" componentID="Audition.Mute" id="clipMute" name="Mute" powered="true">
            <parameter index="0" parameterValue="0"/>
            <parameter index="1" name="mute" parameterValue="0"/>
          </component>
          <component componentGuid="8d4ea185-29e9-43eb-a97a-fd20d64116be" componentID="Audition.StereoPanner" id="clipPan" name="StereoPanner" powered="true">
            <parameter index="0" name="Pan" parameterValue="0"/>
          </component>
          <fadeIn crossFadeLinkType="linkedAsymmetric" endPoint="0" shape="0" startPoint="0" type="cosine"/>
          <fadeOut crossFadeLinkType="linkedAsymmetric" endPoint="22375" shape="0" startPoint="22375" type="cosine"/>
          <editParameter parameterIndex="0" slotIndex="4294967281"/>
          <editParameter parameterIndex="0" slotIndex="4294967280"/>
          <channelMap>
            <channel index="0" sourceIndex="0"/>
            <channel index="1" sourceIndex="1"/>
          </channelMap>
        </audioClip>
        <audioClip clipAutoCrossfade="true" crossFadeHeadClipID="-1" crossFadeTailClipID="-1" endPoint="2282779" fileID="5" hue="-1" id="35" lockedInTime="false" looped="false" name="Sl_Kick_&amp;_Snare_145_03 48000 1" offline="false" select="true" sourceInPoint="0" sourceOutPoint="22375" startPoint="2260404" zOrder="133">
          <properties properties="{&quot;ClipRemixParameters&quot;:{&quot;type&quot;:&quot;tree::any&quot;,&quot;value&quot;:{&quot;ChromaWeight&quot;:{&quot;type&quot;:&quot;float&quot;,&quot;value&quot;:1},&quot;EditLength&quot;:{&quot;type&quot;:&quot;float&quot;,&quot;value&quot;:1},&quot;EndAtEnd&quot;:{&quot;type&quot;:&quot;bool&quot;,&quot;value&quot;:true},&quot;MaximumSlack&quot;:{&quot;type&quot;:&quot;float&quot;,&quot;value&quot;:5},&quot;MinimumLoopBeats&quot;:{&quot;type&quot;:&quot;std::uint32_t&quot;,&quot;value&quot;:8},&quot;MusicRetargetingEnabled&quot;:{&quot;type&quot;:&quot;bool&quot;,&quot;value&quot;:false},&quot;SourceClipDuration&quot;:{&quot;type&quot;:&quot;array::std::int64_t&quot;,&quot;value&quot;:[-1,1]},&quot;SourceClipRangeStart&quot;:{&quot;type&quot;:&quot;array::std::int64_t&quot;,&quot;value&quot;:[0,1]},&quot;SplitIntoSegments&quot;:{&quot;type&quot;:&quot;bool&quot;,&quot;value&quot;:false},&quot;StartAtBeginning&quot;:{&quot;type&quot;:&quot;bool&quot;,&quot;value&quot;:true},&quot;StretchExact&quot;:{&quot;type&quot;:&quot;bool&quot;,&quot;value&quot;:false},&quot;TargetDuration&quot;:{&quot;type&quot;:&quot;array::std::int64_t&quot;,&quot;value&quot;:[0,1]},&quot;TimbreWeight&quot;:{&quot;type&quot;:&quot;float&quot;,&quot;value&quot;:1}}},&quot;ClipRetargetSourceSettings&quot;:{&quot;type&quot;:&quot;tree::any&quot;,&quot;value&quot;:{&quot;ComponentKeyframeInfoKey&quot;:{&quot;type&quot;:&quot;tree::any&quot;,&quot;value&quot;:{}}}},&quot;RemixResults&quot;:{&quot;type&quot;:&quot;tree::any&quot;,&quot;value&quot;:{&quot;AnalysisDataGuid&quot;:{&quot;type&quot;:&quot;UTF16String&quot;,&quot;value&quot;:&quot;9c69bdd5-f6a3-4770-bef5-8cac6034a52f&quot;}}}}"/>
          <component componentGuid="5c44ccbe-25f0-4b89-82d3-31536010ba96" componentID="Audition.Fader" id="clipGain" name="volume" powered="true">
            <parameter index="0" name="volume" parameterValue="1"/>
            <parameter index="1" name="static gain" parameterValue="1"/>
          </component>
          <component componentGuid="fd5cb532-a5aa-4e8e-8dbd-29bfa3325560" componentID="Audition.Mute" id="clipMute" name="Mute" powered="true">
            <parameter index="0" parameterValue="0"/>
            <parameter index="1" name="mute" parameterValue="0"/>
          </component>
          <component componentGuid="3f805468-c7d2-4ad5-a626-069d1de45f88" componentID="Audition.StereoPanner" id="clipPan" name="StereoPanner" powered="true">
            <parameter index="0" name="Pan" parameterValue="0"/>
          </component>
          <fadeIn crossFadeLinkType="linkedAsymmetric" endPoint="0" shape="0" startPoint="0" type="cosine"/>
          <fadeOut crossFadeLinkType="linkedAsymmetric" endPoint="22375" shape="0" startPoint="22375" type="cosine"/>
          <editParameter parameterIndex="0" slotIndex="4294967281"/>
          <editParameter parameterIndex="0" slotIndex="4294967280"/>
          <channelMap>
            <channel index="0" sourceIndex="0"/>
            <channel index="1" sourceIndex="1"/>
          </channelMap>
        </audioClip>
        <audioClip clipAutoCrossfade="true" crossFadeHeadClipID="-1" crossFadeTailClipID="-1" endPoint="2305154" fileID="5" hue="-1" id="36" lockedInTime="false" looped="false" name="Sl_Kick_&amp;_Snare_145_03 48000 1" offline="false" select="true" sourceInPoint="0" sourceOutPoint="22375" startPoint="2282779" zOrder="134">
          <properties properties="{&quot;ClipRemixParameters&quot;:{&quot;type&quot;:&quot;tree::any&quot;,&quot;value&quot;:{&quot;ChromaWeight&quot;:{&quot;type&quot;:&quot;float&quot;,&quot;value&quot;:1},&quot;EditLength&quot;:{&quot;type&quot;:&quot;float&quot;,&quot;value&quot;:1},&quot;EndAtEnd&quot;:{&quot;type&quot;:&quot;bool&quot;,&quot;value&quot;:true},&quot;MaximumSlack&quot;:{&quot;type&quot;:&quot;float&quot;,&quot;value&quot;:5},&quot;MinimumLoopBeats&quot;:{&quot;type&quot;:&quot;std::uint32_t&quot;,&quot;value&quot;:8},&quot;MusicRetargetingEnabled&quot;:{&quot;type&quot;:&quot;bool&quot;,&quot;value&quot;:false},&quot;SourceClipDuration&quot;:{&quot;type&quot;:&quot;array::std::int64_t&quot;,&quot;value&quot;:[-1,1]},&quot;SourceClipRangeStart&quot;:{&quot;type&quot;:&quot;array::std::int64_t&quot;,&quot;value&quot;:[0,1]},&quot;SplitIntoSegments&quot;:{&quot;type&quot;:&quot;bool&quot;,&quot;value&quot;:false},&quot;StartAtBeginning&quot;:{&quot;type&quot;:&quot;bool&quot;,&quot;value&quot;:true},&quot;StretchExact&quot;:{&quot;type&quot;:&quot;bool&quot;,&quot;value&quot;:false},&quot;TargetDuration&quot;:{&quot;type&quot;:&quot;array::std::int64_t&quot;,&quot;value&quot;:[0,1]},&quot;TimbreWeight&quot;:{&quot;type&quot;:&quot;float&quot;,&quot;value&quot;:1}}},&quot;ClipRetargetSourceSettings&quot;:{&quot;type&quot;:&quot;tree::any&quot;,&quot;value&quot;:{&quot;ComponentKeyframeInfoKey&quot;:{&quot;type&quot;:&quot;tree::any&quot;,&quot;value&quot;:{}}}},&quot;RemixResults&quot;:{&quot;type&quot;:&quot;tree::any&quot;,&quot;value&quot;:{&quot;AnalysisDataGuid&quot;:{&quot;type&quot;:&quot;UTF16String&quot;,&quot;value&quot;:&quot;9c69bdd5-f6a3-4770-bef5-8cac6034a52f&quot;}}}}"/>
          <component componentGuid="38965fef-abd4-476c-82fc-a81aaee8e7d1" componentID="Audition.Fader" id="clipGain" name="volume" powered="true">
            <parameter index="0" name="volume" parameterValue="1"/>
            <parameter index="1" name="static gain" parameterValue="1"/>
          </component>
          <component componentGuid="46664fe2-9213-414c-befd-af018ea06c0f" componentID="Audition.Mute" id="clipMute" name="Mute" powered="true">
            <parameter index="0" parameterValue="0"/>
            <parameter index="1" name="mute" parameterValue="0"/>
          </component>
          <component componentGuid="15e0a533-b49c-4a0f-a2d2-9efd53a2d587" componentID="Audition.StereoPanner" id="clipPan" name="StereoPanner" powered="true">
            <parameter index="0" name="Pan" parameterValue="0"/>
          </component>
          <fadeIn crossFadeLinkType="linkedAsymmetric" endPoint="0" shape="0" startPoint="0" type="cosine"/>
          <fadeOut crossFadeLinkType="linkedAsymmetric" endPoint="22375" shape="0" startPoint="22375" type="cosine"/>
          <editParameter parameterIndex="0" slotIndex="4294967281"/>
          <editParameter parameterIndex="0" slotIndex="4294967280"/>
          <channelMap>
            <channel index="0" sourceIndex="0"/>
            <channel index="1" sourceIndex="1"/>
          </channelMap>
        </audioClip>
      </audioTrack>
      <audioTrack automationLaneOpenState="false" id="10003" index="3" select="true" visible="true">
        <trackParameters trackHeight="134" trackHue="51" trackMinimized="false">
          <name>Track 3</name>
        </trackParameters>
        <trackAudioParameters audioChannelType="stereo" automationMode="1" monitoring="false" recordArmed="false" solo="false" soloSafe="false">
          <trackOutput outputID="10000" type="trackID"/>
          <trackInput inputID="1"/>
          <component componentGuid="420a6cb0-28f6-4c96-a185-330324e8b953" componentID="Audition.Fader" id="trackFader" name="volume" powered="true">
            <parameter index="0" name="volume" parameterValue="1"/>
            <parameter index="1" name="static gain" parameterValue="1"/>
          </component>
          <component componentGuid="cfa70bd4-9ecd-4c60-a57d-d9ee4d385159" componentID="Audition.Mute" id="trackMute" name="Mute" powered="true">
            <parameter index="0" parameterValue="0"/>
            <parameter index="1" name="mute" parameterValue="0"/>
          </component>
          <component componentGuid="05614b49-16ae-4952-b92f-e1b6124ed881" componentID="Audition.StereoPanner" id="trackPan" name="StereoPanner" powered="true">
            <parameter index="0" name="Pan" parameterValue="0"/>
          </component>
          <component componentGuid="e05fac04-6fa3-44bb-9e84-377c1c00b9c6" componentID="Audition.EQ" id="trackEQ" name="EQ" powered="false">
            <parameter index="0" name="Low Shelf Frequency" parameterValue="0.000834028352983295917510986328125"/>
            <parameter index="1" name="Low Shelf Gain" parameterValue="0.5"/>
            <parameter index="2" name="High Shelf Frequency" parameterValue="0.74979150295257568359375"/>
            <parameter index="3" name="High Shelf Gain" parameterValue="0.5"/>
            <parameter index="4" name="EQ Band 1 Center Frequency" parameterValue="0.00125104258768260478973388671875"/>
            <parameter index="5" name="EQ Band 1 Q" parameterValue="0.000199989997781813144683837890625"/>
            <parameter index="6" name="EQ Band 1 Gain" parameterValue="0.5"/>
            <parameter index="7" name="EQ Band 1 Enable" parameterValue="1"/>
            <parameter index="8" name="EQ Band 2 Center Frequency" parameterValue="0.0075062550604343414306640625"/>
            <parameter index="9" name="EQ Band 2 Q" parameterValue="0.000199989997781813144683837890625"/>
            <parameter index="10" name="EQ Band 2 Gain" parameterValue="0.5"/>
            <parameter index="11" name="EQ Band 2 Enable" parameterValue="1"/>
            <parameter index="12" name="EQ Band 3 Center Frequency" parameterValue="0.0325271077454090118408203125"/>
            <parameter index="13" name="EQ Band 3 Q" parameterValue="0.000199989997781813144683837890625"/>
            <parameter index="14" name="EQ Band 3 Gain" parameterValue="0.5"/>
            <parameter index="15" name="EQ Band 3 Enable" parameterValue="1"/>
            <parameter index="16" name="EQ Band 4 Center Frequency" parameterValue="0.13261051476001739501953125"/>
            <parameter index="17" name="EQ Band 4 Q" parameterValue="0.000199989997781813144683837890625"/>
            <parameter index="18" name="EQ Band 4 Gain" parameterValue="0.5"/>
            <parameter index="19" name="EQ Band 4 Enable" parameterValue="1"/>
            <parameter index="20" name="EQ Band 5 Center Frequency" parameterValue="0.532944142818450927734375"/>
            <parameter index="21" name="EQ Band 5 Q" parameterValue="0.000199989997781813144683837890625"/>
            <parameter index="22" name="EQ Band 5 Gain" parameterValue="0.5"/>
            <parameter index="23" name="EQ Band 5 Enable" parameterValue="1"/>
            <parameter index="24" name="Master Gain" parameterValue="0.666666686534881591796875"/>
            <parameter index="25" name="ConstantQ" parameterValue="1"/>
            <parameter index="26" name="Low Shelf Filter Order" parameterValue="0"/>
            <parameter index="27" name="High Shelf Filter Order" parameterValue="0"/>
            <parameter index="28" name="Ultra-Quiet Mode" parameterValue="0"/>
            <parameter index="29" name="Low Shelf Enable" parameterValue="1"/>
            <parameter index="30" name="High Shelf Enable" parameterValue="1"/>
            <parameter index="31" name="Original Sample Rate" parameterValue="0.25"/>
            <parameter index="32" name="EQ Band 1 Bandwidth" parameterValue="0.002499990165233612060546875"/>
            <parameter index="33" name="EQ Band 2 Bandwidth" parameterValue="0.0099999904632568359375"/>
            <parameter index="34" name="EQ Band 3 Bandwidth" parameterValue="0.0399999916553497314453125"/>
            <parameter index="35" name="EQ Band 4 Bandwidth" parameterValue="0.15999998152256011962890625"/>
            <parameter index="36" name="EQ Band 5 Bandwidth" parameterValue="0.63999998569488525390625"/>
            <parameter index="37" name="High-Pass Filter Enable" parameterValue="0"/>
            <parameter index="38" name="High-Pass Cutoff Frequency" parameterValue="0"/>
            <parameter index="39" name="High-Pass Slope" parameterValue="0.4000000059604644775390625"/>
            <parameter index="40" name="Low-Pass Filter Enable" parameterValue="0"/>
            <parameter index="41" name="Low-Pass Cutoff Frequency" parameterValue="0.833194315433502197265625"/>
            <parameter index="42" name="Low-Pass Slope" parameterValue="0.4000000059604644775390625"/>
            <parameter index="43" name="Bypass" parameterValue="0"/>
            <parameter index="44" name="LowGraphRange" parameterValue="1"/>
          </component>
        </trackAudioParameters>
        <editParameter parameterIndex="0" slotIndex="4294967280"/>
        <audioClip clipAutoCrossfade="true" crossFadeHeadClipID="-1" crossFadeTailClipID="-1" endPoint="1586369" fileID="4" hue="-1" id="0" lockedInTime="false" looped="false" name="SL_Kit_01_Breakdown_Lead_G_128 48000 1" offline="false" select="true" sourceInPoint="0" sourceOutPoint="720000" startPoint="866369" zOrder="98">
          <component componentGuid="81b8a75d-3d5d-4433-bbcd-f836df56943f" componentID="Audition.Fader" id="clipGain" name="volume" powered="true">
            <parameter index="0" name="volume" parameterValue="1"/>
            <parameter index="1" name="static gain" parameterValue="1"/>
          </component>
          <component componentGuid="64448b22-b772-42aa-9f04-a19724017ad9" componentID="Audition.Mute" id="clipMute" name="Mute" powered="true">
            <parameter index="0" parameterValue="0"/>
            <parameter index="1" name="mute" parameterValue="0"/>
          </component>
          <component componentGuid="6fcceaea-fa12-4dd0-8810-475fca990f84" componentID="Audition.StereoPanner" id="clipPan" name="StereoPanner" powered="true">
            <parameter index="0" name="Pan" parameterValue="0"/>
          </component>
          <fadeIn crossFadeLinkType="linkedAsymmetric" endPoint="0" shape="18" startPoint="0" type="log"/>
          <fadeOut crossFadeLinkType="linkedAsymmetric" endPoint="720000" shape="0" startPoint="720000" type="cosine"/>
          <editParameter parameterIndex="0" slotIndex="4294967280"/>
          <editParameter parameterIndex="0" slotIndex="4294967281"/>
          <channelMap>
            <channel index="0" sourceIndex="0"/>
            <channel index="1" sourceIndex="1"/>
          </channelMap>
        </audioClip>
        <audioClip clipAutoCrossfade="true" crossFadeHeadClipID="-1" crossFadeTailClipID="2" endPoint="2306369" fileID="4" hue="-1" id="1" lockedInTime="false" looped="false" name="SL_Kit_01_Breakdown_Lead_G_128 48000 1" offline="false" select="true" sourceInPoint="0" sourceOutPoint="720000" startPoint="1586369" zOrder="99">
          <component componentGuid="5b0129ae-8a58-4050-a387-f46ec884dfff" componentID="Audition.Fader" id="clipGain" name="volume" powered="true">
            <parameter index="0" name="volume" parameterValue="1"/>
            <parameter index="1" name="static gain" parameterValue="1"/>
          </component>
          <component componentGuid="10c06d86-0383-4bb9-b476-3b3106924663" componentID="Audition.Mute" id="clipMute" name="Mute" powered="true">
            <parameter index="0" parameterValue="0"/>
            <parameter index="1" name="mute" parameterValue="0"/>
          </component>
          <component componentGuid="627fde1c-aba3-429a-b4f1-386c9b63e21a" componentID="Audition.StereoPanner" id="clipPan" name="StereoPanner" powered="true">
            <parameter index="0" name="Pan" parameterValue="0"/>
          </component>
          <fadeIn crossFadeLinkType="linkedAsymmetric" endPoint="0" shape="18" startPoint="0" type="log"/>
          <fadeOut crossFadeLinkType="linkedAsymmetric" endPoint="720000" shape="19" startPoint="718785" type="log"/>
          <editParameter parameterIndex="0" slotIndex="4294967280"/>
          <editParameter parameterIndex="0" slotIndex="4294967281"/>
          <channelMap>
            <channel index="0" sourceIndex="0"/>
            <channel index="1" sourceIndex="1"/>
          </channelMap>
        </audioClip>
        <audioClip clipAutoCrossfade="true" crossFadeHeadClipID="1" crossFadeTailClipID="-1" endPoint="3025154" fileID="3" hue="-1" id="2" lockedInTime="false" looped="false" name="SL_Kit_01_Breakdown_Lead_SC_G_128 48000 1" offline="false" select="true" sourceInPoint="0" sourceOutPoint="720000" startPoint="2305154" zOrder="100">
          <component componentGuid="210b1a4e-65ce-4e40-8bb1-f3415fd2a5e9" componentID="Audition.Fader" id="clipGain" name="volume" powered="true">
            <parameter index="0" name="volume" parameterValue="1">
              <parameterKeyframes enableSplines="false" readOnly="false">
                <parameterKeyframe sampleOffset="349092" select="true" type="linear" value="0.64999997615814208984375"/>
              </parameterKeyframes>
            </parameter>
            <parameter index="1" name="static gain" parameterValue="1"/>
          </component>
          <component componentGuid="f6a0d9cb-06fd-4a40-8642-fbdcdaf76751" componentID="Audition.Mute" id="clipMute" name="Mute" powered="true">
            <parameter index="0" parameterValue="0"/>
            <parameter index="1" name="mute" parameterValue="0"/>
          </component>
          <component componentGuid="2d845032-4eb3-45af-834a-09131ee43968" componentID="Audition.StereoPanner" id="clipPan" name="StereoPanner" powered="true">
            <parameter index="0" name="Pan" parameterValue="0"/>
          </component>
          <fadeIn crossFadeLinkType="linkedAsymmetric" endPoint="1215" shape="18" startPoint="0" type="log"/>
          <fadeOut crossFadeLinkType="linkedAsymmetric" endPoint="720000" shape="19" startPoint="720000" type="log"/>
          <editParameter parameterIndex="0" slotIndex="4294967281"/>
          <editParameter parameterIndex="0" slotIndex="4294967280"/>
          <channelMap>
            <channel index="0" sourceIndex="0"/>
            <channel index="1" sourceIndex="1"/>
          </channelMap>
        </audioClip>
      </audioTrack>
      <audioTrack automationLaneOpenState="false" id="10004" index="4" select="false" visible="true">
        <trackParameters trackHeight="134" trackHue="182" trackMinimized="false">
          <name>Track 4</name>
        </trackParameters>
        <trackAudioParameters audioChannelType="stereo" automationMode="1" monitoring="false" recordArmed="false" solo="false" soloSafe="false">
          <trackOutput outputID="10000" type="trackID"/>
          <trackInput inputID="1"/>
          <component componentGuid="66d9ae46-9c0e-456b-b262-0e76e9505347" componentID="Audition.Fader" id="trackFader" name="volume" powered="true">
            <parameter index="0" name="volume" parameterValue="1"/>
            <parameter index="1" name="static gain" parameterValue="1"/>
          </component>
          <component componentGuid="a348d35e-0273-407e-a4ec-7d876c02aab0" componentID="Audition.Mute" id="trackMute" name="Mute" powered="true">
            <parameter index="0" parameterValue="0"/>
            <parameter index="1" name="mute" parameterValue="0"/>
          </component>
          <component componentGuid="1607beb1-e392-4f83-9638-8660cd0b9482" componentID="Audition.StereoPanner" id="trackPan" name="StereoPanner" powered="true">
            <parameter index="0" name="Pan" parameterValue="0"/>
          </component>
          <component componentGuid="80d4a351-9aca-498b-bd2c-f741a8362cee" componentID="Audition.EQ" id="trackEQ" name="EQ" powered="false">
            <parameter index="0" name="Low Shelf Frequency" parameterValue="0.000834028352983295917510986328125"/>
            <parameter index="1" name="Low Shelf Gain" parameterValue="0.5"/>
            <parameter index="2" name="High Shelf Frequency" parameterValue="0.74979150295257568359375"/>
            <parameter index="3" name="High Shelf Gain" parameterValue="0.5"/>
            <parameter index="4" name="EQ Band 1 Center Frequency" parameterValue="0.00125104258768260478973388671875"/>
            <parameter index="5" name="EQ Band 1 Q" parameterValue="0.000199989997781813144683837890625"/>
            <parameter index="6" name="EQ Band 1 Gain" parameterValue="0.5"/>
            <parameter index="7" name="EQ Band 1 Enable" parameterValue="1"/>
            <parameter index="8" name="EQ Band 2 Center Frequency" parameterValue="0.0075062550604343414306640625"/>
            <parameter index="9" name="EQ Band 2 Q" parameterValue="0.000199989997781813144683837890625"/>
            <parameter index="10" name="EQ Band 2 Gain" parameterValue="0.5"/>
            <parameter index="11" name="EQ Band 2 Enable" parameterValue="1"/>
            <parameter index="12" name="EQ Band 3 Center Frequency" parameterValue="0.0325271077454090118408203125"/>
            <parameter index="13" name="EQ Band 3 Q" parameterValue="0.000199989997781813144683837890625"/>
            <parameter index="14" name="EQ Band 3 Gain" parameterValue="0.5"/>
            <parameter index="15" name="EQ Band 3 Enable" parameterValue="1"/>
            <parameter index="16" name="EQ Band 4 Center Frequency" parameterValue="0.13261051476001739501953125"/>
            <parameter index="17" name="EQ Band 4 Q" parameterValue="0.000199989997781813144683837890625"/>
            <parameter index="18" name="EQ Band 4 Gain" parameterValue="0.5"/>
            <parameter index="19" name="EQ Band 4 Enable" parameterValue="1"/>
            <parameter index="20" name="EQ Band 5 Center Frequency" parameterValue="0.532944142818450927734375"/>
            <parameter index="21" name="EQ Band 5 Q" parameterValue="0.000199989997781813144683837890625"/>
            <parameter index="22" name="EQ Band 5 Gain" parameterValue="0.5"/>
            <parameter index="23" name="EQ Band 5 Enable" parameterValue="1"/>
            <parameter index="24" name="Master Gain" parameterValue="0.666666686534881591796875"/>
            <parameter index="25" name="ConstantQ" parameterValue="1"/>
            <parameter index="26" name="Low Shelf Filter Order" parameterValue="0"/>
            <parameter index="27" name="High Shelf Filter Order" parameterValue="0"/>
            <parameter index="28" name="Ultra-Quiet Mode" parameterValue="0"/>
            <parameter index="29" name="Low Shelf Enable" parameterValue="1"/>
            <parameter index="30" name="High Shelf Enable" parameterValue="1"/>
            <parameter index="31" name="Original Sample Rate" parameterValue="0.25"/>
            <parameter index="32" name="EQ Band 1 Bandwidth" parameterValue="0.002499990165233612060546875"/>
            <parameter index="33" name="EQ Band 2 Bandwidth" parameterValue="0.0099999904632568359375"/>
            <parameter index="34" name="EQ Band 3 Bandwidth" parameterValue="0.0399999916553497314453125"/>
            <parameter index="35" name="EQ Band 4 Bandwidth" parameterValue="0.15999998152256011962890625"/>
            <parameter index="36" name="EQ Band 5 Bandwidth" parameterValue="0.63999998569488525390625"/>
            <parameter index="37" name="High-Pass Filter Enable" parameterValue="0"/>
            <parameter index="38" name="High-Pass Cutoff Frequency" parameterValue="0"/>
            <parameter index="39" name="High-Pass Slope" parameterValue="0.4000000059604644775390625"/>
            <parameter index="40" name="Low-Pass Filter Enable" parameterValue="0"/>
            <parameter index="41" name="Low-Pass Cutoff Frequency" parameterValue="0.833194315433502197265625"/>
            <parameter index="42" name="Low-Pass Slope" parameterValue="0.4000000059604644775390625"/>
            <parameter index="43" name="Bypass" parameterValue="0"/>
            <parameter index="44" name="LowGraphRange" parameterValue="1"/>
          </component>
        </trackAudioParameters>
        <editParameter parameterIndex="0" slotIndex="4294967280"/>
      </audioTrack>
      <audioTrack automationLaneOpenState="false" id="10005" index="5" select="false" visible="true">
        <trackParameters trackHeight="134" trackHue="294" trackMinimized="false">
          <name>Track 5</name>
        </trackParameters>
        <trackAudioParameters audioChannelType="stereo" automationMode="1" monitoring="false" recordArmed="false" solo="false" soloSafe="false">
          <trackOutput outputID="10000" type="trackID"/>
          <trackInput inputID="1"/>
          <component componentGuid="ace755d8-77f2-4205-af05-8e15c4e5c826" componentID="Audition.Fader" id="trackFader" name="volume" powered="true">
            <parameter index="0" name="volume" parameterValue="1"/>
            <parameter index="1" name="static gain" parameterValue="1"/>
          </component>
          <component componentGuid="f7c03a4b-dc78-4d4a-bcf8-f96f3ac90905" componentID="Audition.Mute" id="trackMute" name="Mute" powered="true">
            <parameter index="0" parameterValue="0"/>
            <parameter index="1" name="mute" parameterValue="0"/>
          </component>
          <component componentGuid="5fcaca7f-c66e-48f6-b697-461210deb117" componentID="Audition.StereoPanner" id="trackPan" name="StereoPanner" powered="true">
            <parameter index="0" name="Pan" parameterValue="0"/>
          </component>
          <component componentGuid="70228f1a-25c0-4bd1-a57a-2e7990fa8dd6" componentID="Audition.EQ" id="trackEQ" name="EQ" powered="false">
            <parameter index="0" name="Low Shelf Frequency" parameterValue="0.000834028352983295917510986328125"/>
            <parameter index="1" name="Low Shelf Gain" parameterValue="0.5"/>
            <parameter index="2" name="High Shelf Frequency" parameterValue="0.74979150295257568359375"/>
            <parameter index="3" name="High Shelf Gain" parameterValue="0.5"/>
            <parameter index="4" name="EQ Band 1 Center Frequency" parameterValue="0.00125104258768260478973388671875"/>
            <parameter index="5" name="EQ Band 1 Q" parameterValue="0.000199989997781813144683837890625"/>
            <parameter index="6" name="EQ Band 1 Gain" parameterValue="0.5"/>
            <parameter index="7" name="EQ Band 1 Enable" parameterValue="1"/>
            <parameter index="8" name="EQ Band 2 Center Frequency" parameterValue="0.0075062550604343414306640625"/>
            <parameter index="9" name="EQ Band 2 Q" parameterValue="0.000199989997781813144683837890625"/>
            <parameter index="10" name="EQ Band 2 Gain" parameterValue="0.5"/>
            <parameter index="11" name="EQ Band 2 Enable" parameterValue="1"/>
            <parameter index="12" name="EQ Band 3 Center Frequency" parameterValue="0.0325271077454090118408203125"/>
            <parameter index="13" name="EQ Band 3 Q" parameterValue="0.000199989997781813144683837890625"/>
            <parameter index="14" name="EQ Band 3 Gain" parameterValue="0.5"/>
            <parameter index="15" name="EQ Band 3 Enable" parameterValue="1"/>
            <parameter index="16" name="EQ Band 4 Center Frequency" parameterValue="0.13261051476001739501953125"/>
            <parameter index="17" name="EQ Band 4 Q" parameterValue="0.000199989997781813144683837890625"/>
            <parameter index="18" name="EQ Band 4 Gain" parameterValue="0.5"/>
            <parameter index="19" name="EQ Band 4 Enable" parameterValue="1"/>
            <parameter index="20" name="EQ Band 5 Center Frequency" parameterValue="0.532944142818450927734375"/>
            <parameter index="21" name="EQ Band 5 Q" parameterValue="0.000199989997781813144683837890625"/>
            <parameter index="22" name="EQ Band 5 Gain" parameterValue="0.5"/>
            <parameter index="23" name="EQ Band 5 Enable" parameterValue="1"/>
            <parameter index="24" name="Master Gain" parameterValue="0.666666686534881591796875"/>
            <parameter index="25" name="ConstantQ" parameterValue="1"/>
            <parameter index="26" name="Low Shelf Filter Order" parameterValue="0"/>
            <parameter index="27" name="High Shelf Filter Order" parameterValue="0"/>
            <parameter index="28" name="Ultra-Quiet Mode" parameterValue="0"/>
            <parameter index="29" name="Low Shelf Enable" parameterValue="1"/>
            <parameter index="30" name="High Shelf Enable" parameterValue="1"/>
            <parameter index="31" name="Original Sample Rate" parameterValue="0.25"/>
            <parameter index="32" name="EQ Band 1 Bandwidth" parameterValue="0.002499990165233612060546875"/>
            <parameter index="33" name="EQ Band 2 Bandwidth" parameterValue="0.0099999904632568359375"/>
            <parameter index="34" name="EQ Band 3 Bandwidth" parameterValue="0.0399999916553497314453125"/>
            <parameter index="35" name="EQ Band 4 Bandwidth" parameterValue="0.15999998152256011962890625"/>
            <parameter index="36" name="EQ Band 5 Bandwidth" parameterValue="0.63999998569488525390625"/>
            <parameter index="37" name="High-Pass Filter Enable" parameterValue="0"/>
            <parameter index="38" name="High-Pass Cutoff Frequency" parameterValue="0"/>
            <parameter index="39" name="High-Pass Slope" parameterValue="0.4000000059604644775390625"/>
            <parameter index="40" name="Low-Pass Filter Enable" parameterValue="0"/>
            <parameter index="41" name="Low-Pass Cutoff Frequency" parameterValue="0.833194315433502197265625"/>
            <parameter index="42" name="Low-Pass Slope" parameterValue="0.4000000059604644775390625"/>
            <parameter index="43" name="Bypass" parameterValue="0"/>
            <parameter index="44" name="LowGraphRange" parameterValue="1"/>
          </component>
        </trackAudioParameters>
        <editParameter parameterIndex="0" slotIndex="4294967280"/>
      </audioTrack>
      <audioTrack automationLaneOpenState="false" id="10006" index="6" select="false" visible="true">
        <trackParameters trackHeight="134" trackHue="92" trackMinimized="false">
          <name>Track 6</name>
        </trackParameters>
        <trackAudioParameters audioChannelType="stereo" automationMode="1" monitoring="false" recordArmed="false" solo="false" soloSafe="false">
          <trackOutput outputID="10000" type="trackID"/>
          <trackInput inputID="1"/>
          <component componentGuid="3d0070ea-dee1-47d2-a680-a3a98bbeb91b" componentID="Audition.Fader" id="trackFader" name="volume" powered="true">
            <parameter index="0" name="volume" parameterValue="1"/>
            <parameter index="1" name="static gain" parameterValue="1"/>
          </component>
          <component componentGuid="d0a8787a-d537-46be-be75-a29bae09cb29" componentID="Audition.Mute" id="trackMute" name="Mute" powered="true">
            <parameter index="0" parameterValue="0"/>
            <parameter index="1" name="mute" parameterValue="0"/>
          </component>
          <component componentGuid="d5f710fb-646c-4d82-bdcb-6463c1083930" componentID="Audition.StereoPanner" id="trackPan" name="StereoPanner" powered="true">
            <parameter index="0" name="Pan" parameterValue="0"/>
          </component>
          <component componentGuid="be3074b3-4a90-4e5a-bb11-ae29723e6edb" componentID="Audition.EQ" id="trackEQ" name="EQ" powered="false">
            <parameter index="0" name="Low Shelf Frequency" parameterValue="0.000834028352983295917510986328125"/>
            <parameter index="1" name="Low Shelf Gain" parameterValue="0.5"/>
            <parameter index="2" name="High Shelf Frequency" parameterValue="0.74979150295257568359375"/>
            <parameter index="3" name="High Shelf Gain" parameterValue="0.5"/>
            <parameter index="4" name="EQ Band 1 Center Frequency" parameterValue="0.00125104258768260478973388671875"/>
            <parameter index="5" name="EQ Band 1 Q" parameterValue="0.000199989997781813144683837890625"/>
            <parameter index="6" name="EQ Band 1 Gain" parameterValue="0.5"/>
            <parameter index="7" name="EQ Band 1 Enable" parameterValue="1"/>
            <parameter index="8" name="EQ Band 2 Center Frequency" parameterValue="0.0075062550604343414306640625"/>
            <parameter index="9" name="EQ Band 2 Q" parameterValue="0.000199989997781813144683837890625"/>
            <parameter index="10" name="EQ Band 2 Gain" parameterValue="0.5"/>
            <parameter index="11" name="EQ Band 2 Enable" parameterValue="1"/>
            <parameter index="12" name="EQ Band 3 Center Frequency" parameterValue="0.0325271077454090118408203125"/>
            <parameter index="13" name="EQ Band 3 Q" parameterValue="0.000199989997781813144683837890625"/>
            <parameter index="14" name="EQ Band 3 Gain" parameterValue="0.5"/>
            <parameter index="15" name="EQ Band 3 Enable" parameterValue="1"/>
            <parameter index="16" name="EQ Band 4 Center Frequency" parameterValue="0.13261051476001739501953125"/>
            <parameter index="17" name="EQ Band 4 Q" parameterValue="0.000199989997781813144683837890625"/>
            <parameter index="18" name="EQ Band 4 Gain" parameterValue="0.5"/>
            <parameter index="19" name="EQ Band 4 Enable" parameterValue="1"/>
            <parameter index="20" name="EQ Band 5 Center Frequency" parameterValue="0.532944142818450927734375"/>
            <parameter index="21" name="EQ Band 5 Q" parameterValue="0.000199989997781813144683837890625"/>
            <parameter index="22" name="EQ Band 5 Gain" parameterValue="0.5"/>
            <parameter index="23" name="EQ Band 5 Enable" parameterValue="1"/>
            <parameter index="24" name="Master Gain" parameterValue="0.666666686534881591796875"/>
            <parameter index="25" name="ConstantQ" parameterValue="1"/>
            <parameter index="26" name="Low Shelf Filter Order" parameterValue="0"/>
            <parameter index="27" name="High Shelf Filter Order" parameterValue="0"/>
            <parameter index="28" name="Ultra-Quiet Mode" parameterValue="0"/>
            <parameter index="29" name="Low Shelf Enable" parameterValue="1"/>
            <parameter index="30" name="High Shelf Enable" parameterValue="1"/>
            <parameter index="31" name="Original Sample Rate" parameterValue="0.25"/>
            <parameter index="32" name="EQ Band 1 Bandwidth" parameterValue="0.002499990165233612060546875"/>
            <parameter index="33" name="EQ Band 2 Bandwidth" parameterValue="0.0099999904632568359375"/>
            <parameter index="34" name="EQ Band 3 Bandwidth" parameterValue="0.0399999916553497314453125"/>
            <parameter index="35" name="EQ Band 4 Bandwidth" parameterValue="0.15999998152256011962890625"/>
            <parameter index="36" name="EQ Band 5 Bandwidth" parameterValue="0.63999998569488525390625"/>
            <parameter index="37" name="High-Pass Filter Enable" parameterValue="0"/>
            <parameter index="38" name="High-Pass Cutoff Frequency" parameterValue="0"/>
            <parameter index="39" name="High-Pass Slope" parameterValue="0.4000000059604644775390625"/>
            <parameter index="40" name="Low-Pass Filter Enable" parameterValue="0"/>
            <parameter index="41" name="Low-Pass Cutoff Frequency" parameterValue="0.833194315433502197265625"/>
            <parameter index="42" name="Low-Pass Slope" parameterValue="0.4000000059604644775390625"/>
            <parameter index="43" name="Bypass" parameterValue="0"/>
            <parameter index="44" name="LowGraphRange" parameterValue="1"/>
          </component>
        </trackAudioParameters>
        <editParameter parameterIndex="0" slotIndex="4294967280"/>
      </audioTrack>
      <masterTrack automationLaneOpenState="false" id="10000" index="7" select="false" visible="true">
        <trackParameters trackHeight="134" trackHue="-1" trackMinimized="false">
          <name>Master</name>
        </trackParameters>
        <trackAudioParameters audioChannelType="stereo" automationMode="1" monitoring="false" recordArmed="false" solo="false" soloSafe="true">
          <trackOutput outputID="1" type="hardwareOutput"/>
          <trackInput inputID="-1"/>
          <component componentGuid="c2e2d380-01bc-44cd-82e7-d6ba7d88d342" componentID="Audition.Fader" id="trackFader" name="volume" powered="true">
            <parameter index="0" name="volume" parameterValue="1"/>
            <parameter index="1" name="static gain" parameterValue="1"/>
          </component>
          <component componentGuid="43457209-a708-4de5-b7e2-102a8eeb0fcd" componentID="Audition.Mute" id="trackMute" name="Mute" powered="true">
            <parameter index="0" parameterValue="0"/>
            <parameter index="1" name="mute" parameterValue="0"/>
          </component>
          <component componentGuid="d511d12a-ca32-43f5-bb71-3104f383a386" componentID="Audition.StereoPanner" id="trackPan" name="StereoPanner" powered="true">
            <parameter index="0" name="Pan" parameterValue="0"/>
          </component>
          <component componentGuid="97125e24-c762-4f32-ade6-139fb3be5ee2" componentID="Audition.EQ" id="trackEQ" name="EQ" powered="false">
            <parameter index="0" name="Low Shelf Frequency" parameterValue="0.000834028352983295917510986328125"/>
            <parameter index="1" name="Low Shelf Gain" parameterValue="0.5"/>
            <parameter index="2" name="High Shelf Frequency" parameterValue="0.74979150295257568359375"/>
            <parameter index="3" name="High Shelf Gain" parameterValue="0.5"/>
            <parameter index="4" name="EQ Band 1 Center Frequency" parameterValue="0.00125104258768260478973388671875"/>
            <parameter index="5" name="EQ Band 1 Q" parameterValue="0.000199989997781813144683837890625"/>
            <parameter index="6" name="EQ Band 1 Gain" parameterValue="0.5"/>
            <parameter index="7" name="EQ Band 1 Enable" parameterValue="1"/>
            <parameter index="8" name="EQ Band 2 Center Frequency" parameterValue="0.0075062550604343414306640625"/>
            <parameter index="9" name="EQ Band 2 Q" parameterValue="0.000199989997781813144683837890625"/>
            <parameter index="10" name="EQ Band 2 Gain" parameterValue="0.5"/>
            <parameter index="11" name="EQ Band 2 Enable" parameterValue="1"/>
            <parameter index="12" name="EQ Band 3 Center Frequency" parameterValue="0.0325271077454090118408203125"/>
            <parameter index="13" name="EQ Band 3 Q" parameterValue="0.000199989997781813144683837890625"/>
            <parameter index="14" name="EQ Band 3 Gain" parameterValue="0.5"/>
            <parameter index="15" name="EQ Band 3 Enable" parameterValue="1"/>
            <parameter index="16" name="EQ Band 4 Center Frequency" parameterValue="0.13261051476001739501953125"/>
            <parameter index="17" name="EQ Band 4 Q" parameterValue="0.000199989997781813144683837890625"/>
            <parameter index="18" name="EQ Band 4 Gain" parameterValue="0.5"/>
            <parameter index="19" name="EQ Band 4 Enable" parameterValue="1"/>
            <parameter index="20" name="EQ Band 5 Center Frequency" parameterValue="0.532944142818450927734375"/>
            <parameter index="21" name="EQ Band 5 Q" parameterValue="0.000199989997781813144683837890625"/>
            <parameter index="22" name="EQ Band 5 Gain" parameterValue="0.5"/>
            <parameter index="23" name="EQ Band 5 Enable" parameterValue="1"/>
            <parameter index="24" name="Master Gain" parameterValue="0.666666686534881591796875"/>
            <parameter index="25" name="ConstantQ" parameterValue="1"/>
            <parameter index="26" name="Low Shelf Filter Order" parameterValue="0"/>
            <parameter index="27" name="High Shelf Filter Order" parameterValue="0"/>
            <parameter index="28" name="Ultra-Quiet Mode" parameterValue="0"/>
            <parameter index="29" name="Low Shelf Enable" parameterValue="1"/>
            <parameter index="30" name="High Shelf Enable" parameterValue="1"/>
            <parameter index="31" name="Original Sample Rate" parameterValue="0.25"/>
            <parameter index="32" name="EQ Band 1 Bandwidth" parameterValue="0.002499990165233612060546875"/>
            <parameter index="33" name="EQ Band 2 Bandwidth" parameterValue="0.0099999904632568359375"/>
            <parameter index="34" name="EQ Band 3 Bandwidth" parameterValue="0.0399999916553497314453125"/>
            <parameter index="35" name="EQ Band 4 Bandwidth" parameterValue="0.15999998152256011962890625"/>
            <parameter index="36" name="EQ Band 5 Bandwidth" parameterValue="0.63999998569488525390625"/>
            <parameter index="37" name="High-Pass Filter Enable" parameterValue="0"/>
            <parameter index="38" name="High-Pass Cutoff Frequency" parameterValue="0"/>
            <parameter index="39" name="High-Pass Slope" parameterValue="0.4000000059604644775390625"/>
            <parameter index="40" name="Low-Pass Filter Enable" parameterValue="0"/>
            <parameter index="41" name="Low-Pass Cutoff Frequency" parameterValue="0.833194315433502197265625"/>
            <parameter index="42" name="Low-Pass Slope" parameterValue="0.4000000059604644775390625"/>
            <parameter index="43" name="Bypass" parameterValue="0"/>
            <parameter index="44" name="LowGraphRange" parameterValue="1"/>
          </component>
        </trackAudioParameters>
        <editParameter parameterIndex="0" slotIndex="4294967280"/>
      </masterTrack>
    </tracks>
    <sessionState ctiPosition="76807" smpteStart="0">
      <selectionState selectionDuration="0" selectionStart="76807"/>
      <viewState horizontalViewDuration="3486730" horizontalViewStart="0" trackControlsWidth="224" verticalScrollOffset="0"/>
      <timeFormatState beatsPerBar="4" beatsPerMinute="120" customFrameRate="12" linkToDefaultTimeSettings="true" noteLength="4" subdivisions="16" timeCodeDropFrame="false" timeCodeFrameRate="30" timeCodeNTSC="false" timeFormat="timeFormatDecimal"/>
      <mixingOptionState defaultPanModeLogarithmic="false" panPower="-3" playOverlappingClips="false"/>
    </sessionState>
    <xmpMetadata><![CDATA[<?xpacket begin="﻿" id="W5M0MpCehiHzreSzNTczkc9d"?>
<x:xmpmeta xmlns:x="adobe:ns:meta/" x:xmptk="Adobe XMP Core 6.0-c003 79.164527, 2020/10/15-17:48:32        ">
   <rdf:RDF xmlns:rdf="http://www.w3.org/1999/02/22-rdf-syntax-ns#">
      <rdf:Description rdf:about=""
            xmlns:xmp="http://ns.adobe.com/xap/1.0/"
            xmlns:xmpMM="http://ns.adobe.com/xap/1.0/mm/"
            xmlns:stEvt="http://ns.adobe.com/xap/1.0/sType/ResourceEvent#"
            xmlns:dc="http://purl.org/dc/elements/1.1/"
            xmlns:xmpDM="http://ns.adobe.com/xmp/1.0/DynamicMedia/">
         <xmp:CreatorTool>Adobe Audition 13.0 (Windows)</xmp:CreatorTool>
         <xmp:CreateDate>2021-01-30T11:47:47-05:00</xmp:CreateDate>
         <xmp:MetadataDate>2021-02-06T10:35:06-05:00</xmp:MetadataDate>
         <xmp:ModifyDate>2021-02-06T10:35:06-05:00</xmp:ModifyDate>
         <xmpMM:InstanceID>xmp.iid:3b8eac7b-4223-9b4a-b8c5-64bea9b34bda</xmpMM:InstanceID>
         <xmpMM:DocumentID>xmp.did:9229b4b9-8903-1c4c-a1d1-26667e666357</xmpMM:DocumentID>
         <xmpMM:OriginalDocumentID>xmp.did:9229b4b9-8903-1c4c-a1d1-26667e666357</xmpMM:OriginalDocumentID>
         <xmpMM:History>
            <rdf:Seq>
               <rdf:li rdf:parseType="Resource">
                  <stEvt:action>saved</stEvt:action>
                  <stEvt:instanceID>xmp.iid:9229b4b9-8903-1c4c-a1d1-26667e666357</stEvt:instanceID>
                  <stEvt:when>2021-01-30T11:47:47-05:00</stEvt:when>
                  <stEvt:softwareAgent>Adobe Audition 13.0 (Windows)</stEvt:softwareAgent>
                  <stEvt:changed>/metadata</stEvt:changed>
               </rdf:li>
               <rdf:li rdf:parseType="Resource">
                  <stEvt:action>saved</stEvt:action>
                  <stEvt:instanceID>xmp.iid:b37d5968-a5e6-b144-8b1c-20a27f7349a8</stEvt:instanceID>
                  <stEvt:when>2021-01-30T12:33:19-05:00</stEvt:when>
                  <stEvt:softwareAgent>Adobe Audition 13.0 (Windows)</stEvt:softwareAgent>
                  <stEvt:changed>/metadata</stEvt:changed>
               </rdf:li>
               <rdf:li rdf:parseType="Resource">
                  <stEvt:action>saved</stEvt:action>
                  <stEvt:instanceID>xmp.iid:27a0be06-1416-4249-8874-cf5403066109</stEvt:instanceID>
                  <stEvt:when>2021-01-30T12:33:19-05:00</stEvt:when>
                  <stEvt:softwareAgent>Adobe Audition 13.0 (Windows)</stEvt:softwareAgent>
                  <stEvt:changed>/</stEvt:changed>
               </rdf:li>
               <rdf:li rdf:parseType="Resource">
                  <stEvt:action>saved</stEvt:action>
                  <stEvt:instanceID>xmp.iid:2be2e3d9-769b-b54b-9079-f01230efb2de</stEvt:instanceID>
                  <stEvt:when>2021-02-06T10:33:08-05:00</stEvt:when>
                  <stEvt:softwareAgent>Adobe Audition 13.0 (Windows)</stEvt:softwareAgent>
                  <stEvt:changed>/metadata</stEvt:changed>
               </rdf:li>
               <rdf:li rdf:parseType="Resource">
                  <stEvt:action>saved</stEvt:action>
                  <stEvt:instanceID>xmp.iid:f5cb0d29-24fe-e542-8866-a3e2a4cf030c</stEvt:instanceID>
                  <stEvt:when>2021-02-06T10:33:08-05:00</stEvt:when>
                  <stEvt:softwareAgent>Adobe Audition 13.0 (Windows)</stEvt:softwareAgent>
                  <stEvt:changed>/</stEvt:changed>
               </rdf:li>
               <rdf:li rdf:parseType="Resource">
                  <stEvt:action>saved</stEvt:action>
                  <stEvt:instanceID>xmp.iid:29110f6e-26bd-bf45-8e37-c6dbb24fd716</stEvt:instanceID>
                  <stEvt:when>2021-02-06T10:35:06-05:00</stEvt:when>
                  <stEvt:softwareAgent>Adobe Audition 13.0 (Windows)</stEvt:softwareAgent>
                  <stEvt:changed>/metadata</stEvt:changed>
               </rdf:li>
               <rdf:li rdf:parseType="Resource">
                  <stEvt:action>saved</stEvt:action>
                  <stEvt:instanceID>xmp.iid:3b8eac7b-4223-9b4a-b8c5-64bea9b34bda</stEvt:instanceID>
                  <stEvt:when>2021-02-06T10:35:06-05:00</stEvt:when>
                  <stEvt:softwareAgent>Adobe Audition 13.0 (Windows)</stEvt:softwareAgent>
                  <stEvt:changed>/</stEvt:changed>
               </rdf:li>
            </rdf:Seq>
         </xmpMM:History>
         <dc:format>application/xml</dc:format>
         <xmpDM:Tracks>
            <rdf:Bag>
               <rdf:li rdf:parseType="Resource">
                  <xmpDM:trackName>CuePoint Markers</xmpDM:trackName>
                  <xmpDM:trackType>Cue</xmpDM:trackType>
                  <xmpDM:frameRate>f48000</xmpDM:frameRate>
               </rdf:li>
               <rdf:li rdf:parseType="Resource">
                  <xmpDM:trackName>CD Track Markers</xmpDM:trackName>
                  <xmpDM:trackType>Track</xmpDM:trackType>
                  <xmpDM:frameRate>f48000</xmpDM:frameRate>
               </rdf:li>
               <rdf:li rdf:parseType="Resource">
                  <xmpDM:trackName>Subclip Markers</xmpDM:trackName>
                  <xmpDM:trackType>InOut</xmpDM:trackType>
                  <xmpDM:frameRate>f48000</xmpDM:frameRate>
               </rdf:li>
            </rdf:Bag>
         </xmpDM:Tracks>
      </rdf:Description>
   </rdf:RDF>
</x:xmpmeta>
                                                                                                    
                                                                                                    
                                                                                                    
                                                                                                    
                                                                                                    
                                                                                                    
                                                                                                    
                                                                                                    
                                                                                                    
                                                                                                    
                                                                                                    
                                                                                                    
                                                                                                    
                                                                                                    
                                                                                                    
                                                                                                    
                                                                                                    
                                                                                                    
                                                                                                    
                                                                                                    
                           
<?xpacket end="w"?>]]></xmpMetadata>
    <clipGroups/>
    <metronome enabled="false" pattern="downBeat subdivision subdivision subdivision " soundSet="sticks">
      <metronomeTrack automationLaneOpenState="false" id="40000" index="0" select="false" visible="false">
        <trackParameters trackHeight="77" trackHue="-1" trackMinimized="false">
          <name>Metronome</name>
        </trackParameters>
        <trackAudioParameters audioChannelType="mono" automationMode="1" monitoring="false" recordArmed="false" solo="false" soloSafe="true">
          <trackOutput outputID="10000" type="trackID"/>
          <trackInput inputID="-1"/>
          <component componentGuid="218ddcd4-cbf7-4c00-82ed-47387b2a2981" componentID="Audition.Fader" id="trackFader" name="volume" powered="true">
            <parameter index="0" name="volume" parameterValue="0.50118720531463623046875"/>
            <parameter index="1" name="static gain" parameterValue="1"/>
          </component>
          <component componentGuid="6f719291-befd-48f3-94c5-42c0baa1562e" componentID="Audition.Mute" id="trackMute" name="Mute" powered="true">
            <parameter index="0" parameterValue="0"/>
            <parameter index="1" name="mute" parameterValue="0"/>
          </component>
          <component componentGuid="c09d6b37-7197-4d7f-82d5-4f101137fd99" componentID="Audition.StereoPanner" id="trackPan" name="StereoPanner" powered="true">
            <parameter index="0" name="Pan" parameterValue="0"/>
          </component>
          <component componentGuid="35d40e33-03b7-4ef7-ab64-6f3fdabe595b" componentID="Audition.EQ" id="trackEQ" name="EQ" powered="false">
            <parameter index="0" name="Low Shelf Frequency" parameterValue="0.000834028352983295917510986328125"/>
            <parameter index="1" name="Low Shelf Gain" parameterValue="0.5"/>
            <parameter index="2" name="High Shelf Frequency" parameterValue="0.74979150295257568359375"/>
            <parameter index="3" name="High Shelf Gain" parameterValue="0.5"/>
            <parameter index="4" name="EQ Band 1 Center Frequency" parameterValue="0.00125104258768260478973388671875"/>
            <parameter index="5" name="EQ Band 1 Q" parameterValue="0.000199989997781813144683837890625"/>
            <parameter index="6" name="EQ Band 1 Gain" parameterValue="0.5"/>
            <parameter index="7" name="EQ Band 1 Enable" parameterValue="1"/>
            <parameter index="8" name="EQ Band 2 Center Frequency" parameterValue="0.0075062550604343414306640625"/>
            <parameter index="9" name="EQ Band 2 Q" parameterValue="0.000199989997781813144683837890625"/>
            <parameter index="10" name="EQ Band 2 Gain" parameterValue="0.5"/>
            <parameter index="11" name="EQ Band 2 Enable" parameterValue="1"/>
            <parameter index="12" name="EQ Band 3 Center Frequency" parameterValue="0.0325271077454090118408203125"/>
            <parameter index="13" name="EQ Band 3 Q" parameterValue="0.000199989997781813144683837890625"/>
            <parameter index="14" name="EQ Band 3 Gain" parameterValue="0.5"/>
            <parameter index="15" name="EQ Band 3 Enable" parameterValue="1"/>
            <parameter index="16" name="EQ Band 4 Center Frequency" parameterValue="0.13261051476001739501953125"/>
            <parameter index="17" name="EQ Band 4 Q" parameterValue="0.000199989997781813144683837890625"/>
            <parameter index="18" name="EQ Band 4 Gain" parameterValue="0.5"/>
            <parameter index="19" name="EQ Band 4 Enable" parameterValue="1"/>
            <parameter index="20" name="EQ Band 5 Center Frequency" parameterValue="0.532944142818450927734375"/>
            <parameter index="21" name="EQ Band 5 Q" parameterValue="0.000199989997781813144683837890625"/>
            <parameter index="22" name="EQ Band 5 Gain" parameterValue="0.5"/>
            <parameter index="23" name="EQ Band 5 Enable" parameterValue="1"/>
            <parameter index="24" name="Master Gain" parameterValue="0.666666686534881591796875"/>
            <parameter index="25" name="ConstantQ" parameterValue="1"/>
            <parameter index="26" name="Low Shelf Filter Order" parameterValue="0"/>
            <parameter index="27" name="High Shelf Filter Order" parameterValue="0"/>
            <parameter index="28" name="Ultra-Quiet Mode" parameterValue="0"/>
            <parameter index="29" name="Low Shelf Enable" parameterValue="1"/>
            <parameter index="30" name="High Shelf Enable" parameterValue="1"/>
            <parameter index="31" name="Original Sample Rate" parameterValue="0.25"/>
            <parameter index="32" name="EQ Band 1 Bandwidth" parameterValue="0.002499990165233612060546875"/>
            <parameter index="33" name="EQ Band 2 Bandwidth" parameterValue="0.0099999904632568359375"/>
            <parameter index="34" name="EQ Band 3 Bandwidth" parameterValue="0.0399999916553497314453125"/>
            <parameter index="35" name="EQ Band 4 Bandwidth" parameterValue="0.15999998152256011962890625"/>
            <parameter index="36" name="EQ Band 5 Bandwidth" parameterValue="0.63999998569488525390625"/>
            <parameter index="37" name="High-Pass Filter Enable" parameterValue="0"/>
            <parameter index="38" name="High-Pass Cutoff Frequency" parameterValue="0"/>
            <parameter index="39" name="High-Pass Slope" parameterValue="0.4000000059604644775390625"/>
            <parameter index="40" name="Low-Pass Filter Enable" parameterValue="0"/>
            <parameter index="41" name="Low-Pass Cutoff Frequency" parameterValue="0.833194315433502197265625"/>
            <parameter index="42" name="Low-Pass Slope" parameterValue="0.4000000059604644775390625"/>
            <parameter index="43" name="Bypass" parameterValue="0"/>
            <parameter index="44" name="LowGraphRange" parameterValue="1"/>
          </component>
        </trackAudioParameters>
        <editParameter parameterIndex="0" slotIndex="4294967280"/>
      </metronomeTrack>
    </metronome>
    <properties>
      <property key="EssentialSoundConfigurations">[{"Guid":"a8b40e3e-13e7-4c1f-b382-96058f1f691d","Name":"$$$/app/Presets/DefaultPresetName=(Default)","PresetData":{"ModeID":"ambience","Models":{"model_ducking":{},"model_loudness":{"DefaultLoudness":{"type":"float","value":-30},"LoudnessStandard":{"type":"std::uint32_t","value":0},"MaxLoudness":{"type":"float","value":-12},"MinLoudness":{"type":"float","value":-42}},"model_soundeffects":{"ReverbPresets":{"type":"tree::any","value":{"$$$/app/Presets/EssentialSound/ReverbPreset/LargeRoomAmbience=Large Room Ambience":{"type":"array::float","value":[0.051507499068975449,0.32432401180267334,0.29292899370193481,0.30000001192092896,0.20000000298023224,0,0.14285700023174286,0.40000000596046448,0.5,0.69999998807907104,0.30000001192092896,0.25125628709793091,0.03125]},"$$$/app/Presets/EssentialSound/ReverbPreset/OutsideAmbience=Outside Ambience":{"type":"array::float","value":[0.091708503663539886,0.043893899768590927,1,0.5,0.20000000298023224,0.80000001192092896,0.18367299437522888,1,0.5,0,0.80000001192092896,0.25125628709793091,0.03125]},"$$$/app/Presets/EssentialSound/ReverbPreset/RoomAmbience=Room Ambience":{"type":"array::float","value":[0.057788901031017303,0.44944900274276733,0.49494898319244385,0.89999997615814209,0.10000000149011612,0.15000000596046448,0.081632703542709351,0.40000000596046448,0.5,0.80000001192092896,0.20000000298023224,0.25125628709793091,0.03125]},"$$$/app/Presets/EssentialSound/ReverbPreset/WindEffect=Wind Effect":{"type":"array::float","value":[0.19597999751567841,0.6896899938583374,0.69696998596191406,0.25,0.5,0.5,0.23469400405883789,0.51999998092651367,0.5,0.75,0.25,0.25125628709793091,0.03125]}}}},"model_stereowidth":{},"model_volume":{"MaxGain":{"type":"float","value":15},"MinGain":{"type":"float","value":-60}}},"Version":1},"Type":"1c19ca71-c24c-49cd-8dd5-2cc46018507a","Version":1},{"Guid":"58dc27a8-6a2a-480c-bd0c-4b45fff346a6","Name":"$$$/app/Presets/DefaultPresetName=(Default)","PresetData":{"ModeID":"dialog","Models":{"model_clarity":{"EQPresets":{"type":"tree::any","value":{"$$$/app/Presets/EssentialSound/EQPreset/BackgroundVoice=Background Voice":{"type":"array::float","value":[0.12099699676036835,0.5,0.39240506291389465,0,0.5,0.5,0.5,0.5,0.5,0.47827938199043274,0.45772689580917358,0.45778733491897583,0.47946760058403015,0.5,0]},"$$$/app/Presets/EssentialSound/EQPreset/Intercom=Intercom":{"type":"array::float","value":[0.19432899355888367,0.5,1,0,0.071499988436698914,0.071499988436698914,0.071499988436698914,0.40238627791404724,0.48571401834487915,0.5,0.55155748128890991,0.59602576494216919,0.22246670722961426,0.071499988436698914,0]},"$$$/app/Presets/EssentialSound/EQPreset/LockedInTheTrunk=Locked in the Trunk":{"type":"array::float","value":[0.12099699676036835,0.5,0.79746836423873901,0,0.5,0.5,0.5,0.5,0.5,0.32846158742904663,0.15721426904201508,0.15721426904201508,0.15721426904201508,0.15721426904201508,0]},"$$$/app/Presets/EssentialSound/EQPreset/OldRadio=Old Radio":{"type":"array::float","value":[0.12099699676036835,0.5,0.79746836423873901,0,0.15721426904201508,0.15721426904201508,0.15721426904201508,0.28442040085792542,0.48315632343292236,0.36498492956161499,0.52853888273239136,0.43511500954627991,0.27154684066772461,0.15721426904201508,0]},"$$$/app/Presets/EssentialSound/EQPreset/OnTheTelephone=On the Telephone":{"type":"array::float","value":[0.12099699676036835,0.5,0.39240506291389465,0,0.32864287495613098,0.32864287495613098,0.32864287495613098,0.32864287495613098,0.48571401834487915,0.53071397542953491,0.53071397542953491,0.48357096314430237,0.32864287495613098,0.32864287495613098,0]},"$$$/app/Presets/EssentialSound/EQPreset/OutsideOfTheRoom=Outside of the Room":{"type":"array::float","value":[0.12099699676036835,0.5,0.79746836423873901,0,0.42539370059967041,0.47865453362464905,0.5,0.5,0.48571401834487915,0.40073278546333313,0.25656309723854065,0.15721426904201508,0.15721426904201508,0.15721426904201508,0]},"$$$/app/Presets/EssentialSound/EQPreset/PodcastVoice=Podcast Voice":{"type":"array::float","value":[0.12099699676036835,0.5,0.39240506291389465,0,0.5,0.5,0.5,0.51789408922195435,0.50770342350006104,0.5,0.51789408922195435,0.528114914894104,0.5102812647819519,0.5,0]},"$$$/app/Presets/EssentialSound/EQPreset/SubtleBoostFemale=Subtle Boost (Female)":{"type":"array::float","value":[0.096553400158882141,0.5,0.29113924503326416,0,0.5,0.5,0.5,0.5,0.5,0.51933407783508301,0.54642897844314575,0.52706766128540039,0.5,0.5,0]},"$$$/app/Presets/EssentialSound/EQPreset/SubtleBoostMale=Subtle Boost (Male)":{"type":"array::float","value":[0.096553400158882141,0.5,0.29113924503326416,0,0.5,0.5,0.5,0.5,0.5,0.5135338306427002,0.54642897844314575,0.51933407783508301,0.5,0.5,0]},"$$$/app/Presets/EssentialSound/EQPreset/ThatPublicRadioSound=That Public Radio Sound":{"type":"array::float","value":[0.12099699676036835,0.5,0.79746836423873901,0,0.15721426904201508,0.15721426904201508,0.15721426904201508,0.36334344744682312,0.49468311667442322,0.5,0.5,0.5,0.5,0.5,0]},"$$$/app/Presets/EssentialSound/EQPreset/VocalPresence=Vocal Presence":{"type":"array::float","value":[0.096553400158882141,0.5,0.32489451766014099,0,0.3572143018245697,0.3572143018245697,0.46428570151329041,0.47857141494750977,0.4763694703578949,0.49570354819297791,0.55924957990646362,0.56523394584655762,0.50859290361404419,0.46992480754852295,0]}}}},"model_loudness":{"DefaultLoudness":{"type":"float","value":-23},"LoudnessStandard":{"type":"std::uint32_t","value":0},"MaxLoudness":{"type":"float","value":-12},"MinLoudness":{"type":"float","value":-42}},"model_restoration":{"ReduceNoiseMaxSetting":{"type":"array::float","value":[1,0,0,0,0]},"ReduceNoiseMinSetting":{"type":"array::float","value":[0,0,0,0,0]},"ReduceReverbMaxSetting":{"type":"array::float","value":[1,0,0,0,0]},"ReduceReverbMinSetting":{"type":"array::float","value":[0,0,0,0,0]},"ReduceRumbleMaxSetting":{"type":"array::float","value":[1,0.0027260056231170893,0.375,0,0,0.00083333335351198912,1,0,1,0.0390625,0.00083408987848088145,0,0.0041666668839752674,0.00022554649331141263,0.0046875001862645149,0.75,0.0052083334885537624,0.75,1,0.75,0.0040520834736526012,0.75,0.0042629167437553406,0.00022554649331141263,0.0064883334562182426,0.00022554649331141263,0.006866666954010725,0.75,0.0071704164147377014,0.00022554649331141263,0.01041458360850811,0.00022554649331141263,0.010900000110268593,0.75,0.011407917365431786,0.00022554649331141263,0.015606249682605267,0.00022554649331141263,0.016333334147930145,0.75,0.017094582319259644,0.00022554649331141263,0.026243748143315315,0.00022554649331141263,0.0274666678160429,0.75,0.028746666386723518,0.00022554649331141263,0.041658751666545868,0.00022554649331141263,0.043600000441074371,0.75,0.045631669461727142,0.00022554649331141263,0.062424581497907639,0.00022554649331141263,0.065333336591720581,0.75,0.068377502262592316,0.00022554649331141263,0.10497540980577469,0.00022554649331141263,0.1098666712641716,0.75,0.11498583108186722,0.00022554649331141263,0.16663584113121033,0.00022554649331141263,0.17440000176429749,0.75,0.18252624571323395,0.00022554649331141263,0.91874998807907104,0.00022554649331141263,1,0.00022554649331141263,0,0,0,0,0,0,0,0,0,0,0,0,0,0,0,0,0,0,0,0,0,0,0,0,0,0,0,0,0,0,0,0,0,0,0,0,0,0,0,0,0,0,0,0,0,0,0,0,0,0,0,0,0,0,0,0,0,0,0,0,0,0,0,0,0,0,0,0,0,0,0,0,0,0,0,0,0,0,0,0,0,0,0,0,0,0,0,0,0,0,0,0,0,0,0,0,0,0,0,0,0,0,0,0,0,0,0,0,0,0,0,0,0,0,0,0,0,0,0,0,0,0,0,0,0,0,0,0,0,0,0,0,0,0,0,0,0,0,0,0,0,0,0,0,0,0,0,0,0,0,0,0,0,0,0,0,0,0,0,0,0,0,0,0,0,0,0,0,0,0,0,0,0,0,0,0,0,0,0,0,0,0,0,0,0,0,0,0,0,0]},"ReduceRumbleMinSetting":{"type":"array::float","value":[1,0.0027260056231170893,0.375,0,0,0.00083333335351198912,1,0,1,0.0390625,0.00083408987848088145,0.75,0.0041666668839752674,0.75,0.0046875001862645149,0.75,0.0052083334885537624,0.75,1,0.75,0.91874998807907104,0.61237245798110962,1,0.61237245798110962,0,0,0,0,0,0,0,0,0,0,0,0,0,0,0,0,0,0,0,0,0,0,0,0,0,0,0,0,0,0,0,0,0,0,0,0,0,0,0,0,0,0,0,0,0,0,0,0,0,0,0,0,0,0,0,0,0,0,0,0,0,0,0,0,0,0,0,0,0,0,0,0,0,0,0,0,0,0,0,0,0,0,0,0,0,0,0,0,0,0,0,0,0,0,0,0,0,0,0,0,0,0,0,0,0,0,0,0,0,0,0,0,0,0,0,0,0,0,0,0,0,0,0,0,0,0,0,0,0,0,0,0,0,0,0,0,0,0,0,0,0,0,0,0,0,0,0,0,0,0,0,0,0,0,0,0,0,0,0,0,0,0,0,0,0,0,0,0,0,0,0,0,0,0,0,0,0,0,0,0,0,0,0,0,0,0,0,0,0,0,0,0,0,0,0,0,0,0,0,0,0,0,0,0,0,0,0,0,0,0,0,0,0,0,0,0,0,0,0,0,0,0,0,0,0,0,0,0,0,0,0,0,0,0,0,0,0,0,0,0,0,0]},"ReduceSibilanceMaxSetting":{"type":"array::float","value":[0.5,0.19983997941017151,0.18367347121238708,0.26086956262588501,0.52702701091766357,0,1,0,0,0,0,0.75,1,1,0.40000000596046448]},"ReduceSibilanceMinSetting":{"type":"array::float","value":[0.875,0.19983997941017151,0.18367347121238708,0.19130434095859528,0.25675675272941589,0,1,0,0,0,0,0.75,1,1,0.40000000596046448]}},"model_soundeffects":{"ReverbPresets":{"type":"tree::any","value":{"$$$/app/Presets/EssentialSound/ReverbPreset/Auditorium=Auditorium":{"type":"array::float","value":[0.013047545216977596,0.15895412862300873,1,0.89999997615814209,0,0.52007436752319336,0.41663265228271484,0.46000000834465027,0.5,0.73000001907348633,0.15999999642372131,0.75376886129379272,0.03125]},"$$$/app/Presets/EssentialSound/ReverbPreset/Church=Church":{"type":"array::float","value":[0.032663315534591675,0.39939939975738525,0.79797977209091187,0.25,0.5,0.5,0.2297959178686142,0.72000002861022949,0.5,0.62999999523162842,0.87999999523162842,0.25125628709793091,0.03125]},"$$$/app/Presets/EssentialSound/ReverbPreset/LargeReflectiveRoom=Large Reflective Room":{"type":"array::float","value":[0.0074449013918638229,0.098988421261310577,0.79890537261962891,0.89999997615814209,0.10000000149011612,0.40110713243484497,0.060284845530986786,0.27522978186607361,0.5,0.73000001907348633,0.31999999284744263,0.25125628709793091,0.03125]},"$$$/app/Presets/EssentialSound/ReverbPreset/OutsideTheClub=Outside the Club":{"type":"array::float","value":[0.020615793764591217,0.050136558711528778,0.69696998596191406,0.25,0.094355784356594086,0.22242647409439087,0.1071428582072258,0.2800000011920929,0.5,0.73000001907348633,0.46000000834465027,0.25125628709793091,0.03125]},"$$$/app/Presets/EssentialSound/ReverbPreset/SmallDryRoom=Small Dry Room":{"type":"array::float","value":[0.24623115360736847,0.69975000619888306,0.29292899370193481,0.40000000596046448,0.20000000298023224,0.40000000596046448,0.039285715669393539,0.10000000149011612,0.5,1,0.5,0.75376886129379272,0.03125]},"$$$/app/Presets/EssentialSound/ReverbPreset/ThickenVoice=Thicken Voice":{"type":"array::float","value":[0.19597999751567841,0.23931467533111572,0.69696998596191406,0.25,0.5,0.53999996185302734,0.020408162847161293,0.20945435762405396,0.5,1,0.34999999403953552,0.25125628709793091,0.03125]},"$$$/app/Presets/EssentialSound/ReverbPreset/WarmRoom=Warm Room":{"type":"array::float","value":[0.020100502297282219,0.074074074625968933,0.49494948983192444,0.40000000596046448,0.74960309267044067,0.40000000596046448,0.1239795908331871,0.67000001668930054,0.5,0.85000002384185791,0.56000000238418579,0.25125628709793091,0.03125]},"$$$/app/Presets/EssentialSound/ReverbPreset/WarmVoice=Warm Voice":{"type":"array::float","value":[0.19597989320755005,0.89989989995956421,0,0.40000000596046448,0.20000000298023224,0.40000000596046448,0.10204081982374191,0.090000003576278687,0.5,1,0.30000001192092896,0.25125628709793091,0.03125]}}}},"model_volume":{"MaxGain":{"type":"float","value":15},"MinGain":{"type":"float","value":-60}}},"Version":1},"Type":"1c19ca71-c24c-49cd-8dd5-2cc46018507a","Version":1},{"Guid":"353811fa-4179-435e-8e5e-23028ba15a7a","Name":"$$$/app/Presets/DefaultPresetName=(Default)","PresetData":{"ModeID":"generic","Models":{"model_volume":{"MaxGain":{"type":"float","value":15},"MinGain":{"type":"float","value":-60}}},"Version":1},"Type":"1c19ca71-c24c-49cd-8dd5-2cc46018507a","Version":1},{"Guid":"31ba96a6-5d3e-4d89-b1e1-1dbe3c055d0c","Name":"$$$/app/Presets/DefaultPresetName=(Default)","PresetData":{"ModeID":"music","Models":{"model_ducking":{},"model_duration":{},"model_loudness":{"DefaultLoudness":{"type":"float","value":-25},"LoudnessStandard":{"type":"std::uint32_t","value":0},"MaxLoudness":{"type":"float","value":-12},"MinLoudness":{"type":"float","value":-42}},"model_volume":{"MaxGain":{"type":"float","value":15},"MinGain":{"type":"float","value":-60}}},"Version":1},"Type":"1c19ca71-c24c-49cd-8dd5-2cc46018507a","Version":1},{"Guid":"cea63332-1adc-44a9-a6eb-5490f965859b","Name":"$$$/app/Presets/DefaultPresetName=(Default)","PresetData":{"ModeID":"sfx","Models":{"model_loudness":{"DefaultLoudness":{"type":"float","value":-21},"LoudnessStandard":{"type":"std::uint32_t","value":0},"MaxLoudness":{"type":"float","value":-12},"MinLoudness":{"type":"float","value":-42}},"model_pan":{},"model_soundeffects":{"ReverbPresets":{"type":"tree::any","value":{"$$$/app/Presets/EssentialSound/ReverbPreset/HeavyReverb=Heavy Reverb":{"type":"array::float","value":[0.13316600024700165,0.29929900169372559,1,0.95999997854232788,0.85000002384185791,0.5,0.51530599594116211,0.30000001192092896,0.5,0.5,0.5,0.25125628709793091,0.0625]},"$$$/app/Presets/EssentialSound/ReverbPreset/LightReverb=Light Reverb":{"type":"array::float","value":[0.095477402210235596,0.29929900169372559,0.090909101068973541,1,1,0.80000001192092896,0.22449000179767609,0.60000002384185791,0.5,0.69999998807907104,0.30000001192092896,0.25125628709793091,0.0625]},"$$$/app/Presets/EssentialSound/ReverbPreset/OutsideReverb=Outside Reverb":{"type":"array::float","value":[0.091708503663539886,0.043893899768590927,1,0.5,0.20000000298023224,0.80000001192092896,0.18367299437522888,1,0.5,0,0.80000001192092896,0.25125628709793091,0.0625]},"$$$/app/Presets/EssentialSound/ReverbPreset/RoomReverb=Room Reverb":{"type":"array::float","value":[0.057788901031017303,0.44944900274276733,0.49494898319244385,0.89999997615814209,0.10000000149011612,0.15000000596046448,0.081632703542709351,0.40000000596046448,0.5,0.80000001192092896,0.20000000298023224,0.25125628709793091,0.0625]}}}},"model_volume":{"MaxGain":{"type":"float","value":15},"MinGain":{"type":"float","value":-60}}},"Version":1},"Type":"1c19ca71-c24c-49cd-8dd5-2cc46018507a","Version":1}]</property>
    </properties>
  </session>

  <files>
    <file absolutePath="E:\Documents\Unreal Games\TankGame\TankGame_004\Art\DavidLinder\Audio\Music\Source\TankGame-MusicTrack_001\SocialMediaPost_ScreenShotSaturday\Conformed Files\SL_Kit_01_Breakdown_Arp_G_128 48000 1.wav" id="0" importerPrivateSettings="Compression:0:0;LargeFileSupport:0:0;SampleType:0:20;" mediaHandler="AmioWav" relativePath="Conformed Files/SL_Kit_01_Breakdown_Arp_G_128 48000 1.wav"/>
    <file absolutePath="E:\Documents\Unreal Games\TankGame\TankGame_004\Art\DavidLinder\Audio\Music\Source\TankGame-MusicTrack_001\SocialMediaPost_ScreenShotSaturday\Conformed Files\SL_Kit_01_Breakdown_SubLead_SC_G_128 48000 1.wav" id="1" importerPrivateSettings="Compression:0:0;LargeFileSupport:0:0;SampleType:0:20;" mediaHandler="AmioWav" relativePath="Conformed Files/SL_Kit_01_Breakdown_SubLead_SC_G_128 48000 1.wav"/>
    <file absolutePath="E:\Documents\Unreal Games\TankGame\TankGame_004\Art\DavidLinder\Audio\Music\Source\TankGame-MusicTrack_001\SocialMediaPost_ScreenShotSaturday\Conformed Files\SL_Kit_01_Breakdown_SubLead_G_128 48000 1.wav" id="2" importerPrivateSettings="Compression:0:0;LargeFileSupport:0:0;SampleType:0:20;" mediaHandler="AmioWav" relativePath="Conformed Files/SL_Kit_01_Breakdown_SubLead_G_128 48000 1.wav"/>
    <file absolutePath="E:\Documents\Unreal Games\TankGame\TankGame_004\Art\DavidLinder\Audio\Music\Source\TankGame-MusicTrack_001\SocialMediaPost_ScreenShotSaturday\Conformed Files\SL_Kit_01_Breakdown_Lead_SC_G_128 48000 1.wav" id="3" importerPrivateSettings="Compression:0:0;LargeFileSupport:0:0;SampleType:0:20;" mediaHandler="AmioWav" relativePath="Conformed Files/SL_Kit_01_Breakdown_Lead_SC_G_128 48000 1.wav"/>
    <file absolutePath="E:\Documents\Unreal Games\TankGame\TankGame_004\Art\DavidLinder\Audio\Music\Source\TankGame-MusicTrack_001\SocialMediaPost_ScreenShotSaturday\Conformed Files\SL_Kit_01_Breakdown_Lead_G_128 48000 1.wav" id="4" importerPrivateSettings="Compression:0:0;LargeFileSupport:0:0;SampleType:0:20;" mediaHandler="AmioWav" relativePath="Conformed Files/SL_Kit_01_Breakdown_Lead_G_128 48000 1.wav"/>
    <file absolutePath="E:\Documents\Unreal Games\TankGame\TankGame_004\Art\DavidLinder\Audio\Music\Source\TankGame-MusicTrack_001\SocialMediaPost_ScreenShotSaturday\Conformed Files\Sl_Kick_&amp;_Snare_145_03 48000 1.wav" id="5" mediaHandler="AmioWav" relativePath="Conformed Files/Sl_Kick_&amp;_Snare_145_03 48000 1.wav"/>
  </files>

  <audioDevice inputID="40192C2F-D80D-438C-B463-731CD4C13AEF" outputID="75858A5A-FEC7-495F-9707-D71A830D0710">
    <inputPort id="1" name="Default Stereo Input"/>
    <inputPort id="2" name="[01M] Microphone (HD Pro Webcam C920) 1"/>
    <inputPort id="3" name="[02M] Microphone (HD Pro Webcam C920) 2"/>
    <inputPort id="4" name="[01S] Microphone (HD Pro Webcam C920) 1"/>
    <outputPort id="1" name="Default Output"/>
    <outputPort id="2" name="[01M] Speakers (Realtek High Definition Audio) 1"/>
    <outputPort id="3" name="[02M] Speakers (Realtek High Definition Audio) 2"/>
    <outputPort id="4" name="Default Stereo Output"/>
    <outputPort id="5" name="[01S] Speakers (Realtek High Definition Audio) 1"/>
    <outputPort id="6" name="Default Surround Output"/>
  </audioDevice>

</sesx>
